<?xml version="1.0" encoding="utf-8"?>
<!-- Generator: Adobe Illustrator 16.0.0, SVG Export Plug-In . SVG Version: 6.00 Build 0)  -->
<!DOCTYPE svg PUBLIC "-//W3C//DTD SVG 1.1//EN" "http://www.w3.org/Graphics/SVG/1.1/DTD/svg11.dtd">
<svg version="1.1" id="Layer_1" xmlns="http://www.w3.org/2000/svg" xmlns:xlink="http://www.w3.org/1999/xlink" x="0px" y="0px"
	 width="25px" height="19px" viewBox="0 0 25 19" enable-background="new 0 0 25 19" xml:space="preserve">
<g>
	<g>
		<g>
			<path fill="#373F51" d="M5.232,3C5.231,3,5.23,3,5.23,3C5.032,3,4.847,3.077,4.706,3.218C4.563,3.359,4.485,3.549,4.485,3.749
				v11.238c0,0.412,0.336,0.748,0.75,0.749c1.743,0.006,4.666,0.367,6.683,2.477V6.453c0-0.14-0.035-0.271-0.103-0.38
				C10.161,3.409,6.98,3.005,5.232,3z"/>
			<path fill="#373F51" d="M20.516,14.987V3.749c0-0.2-0.079-0.39-0.222-0.531C20.153,3.077,19.968,3,19.771,3h-0.002
				c-1.748,0.005-4.93,0.409-6.584,3.073c-0.067,0.109-0.103,0.24-0.103,0.38v11.76c2.017-2.109,4.939-2.471,6.683-2.477
				C20.179,15.735,20.516,15.399,20.516,14.987z"/>
			<path fill="#373F51" d="M22.224,5.591h-0.545v9.396c0,1.053-0.857,1.911-1.911,1.912c-1.479,0.004-3.919,0.295-5.647,1.929
				c2.988-0.731,6.139-0.256,7.935,0.152c0.224,0.052,0.456-0.002,0.636-0.144s0.281-0.357,0.281-0.586V6.341
				C22.972,5.928,22.636,5.591,22.224,5.591z"/>
			<path fill="#373F51" d="M3.321,14.987V5.591H2.777c-0.412,0-0.749,0.337-0.749,0.75v11.91c0,0.229,0.103,0.444,0.281,0.586
				c0.181,0.142,0.412,0.195,0.636,0.144c1.796-0.409,4.946-0.884,7.935-0.153c-1.729-1.633-4.169-1.924-5.647-1.928
				C4.179,16.898,3.321,16.04,3.321,14.987z"/>
		</g>
	</g>
</g>
</svg>
