<?xml version="1.0" encoding="utf-8"?>
<!-- Generator: Adobe Illustrator 16.0.0, SVG Export Plug-In . SVG Version: 6.00 Build 0)  -->
<!DOCTYPE svg PUBLIC "-//W3C//DTD SVG 1.1//EN" "http://www.w3.org/Graphics/SVG/1.1/DTD/svg11.dtd">
<svg version="1.1" id="Layer_1" xmlns="http://www.w3.org/2000/svg" xmlns:xlink="http://www.w3.org/1999/xlink" x="0px" y="0px"
	 width="25px" height="19px" viewBox="0 0 25 19" enable-background="new 0 0 25 19" xml:space="preserve">
<g>
	<g>
		<g>
			<path fill="#373F51" d="M20.966,4.486H4.034C3.188,4.486,2.5,5.173,2.5,6.021v11.445C2.5,18.312,3.188,19,4.034,19h16.932
				c0.847,0,1.534-0.688,1.534-1.534V6.021C22.5,5.173,21.812,4.486,20.966,4.486z M12.5,16.214c-2.469,0-4.471-2.002-4.471-4.471
				s2.002-4.47,4.471-4.47s4.471,2.001,4.471,4.47S14.969,16.214,12.5,16.214z"/>
		</g>
		<g>
			<g>
				<path fill="#373F51" d="M9.505,3.395c0-0.137,0-0.272,0-0.409c0-0.073,0-0.145,0-0.216c0-0.012,0-0.023,0-0.035
					c0-0.032,0.002-0.063,0.005-0.096c0.006-0.055,0.004-0.042-0.006,0.036c0.004-0.021,0.008-0.041,0.013-0.062
					c0.009-0.04,0.081-0.226,0.021-0.085C9.561,2.473,9.592,2.421,9.625,2.37c0.059-0.09-0.072,0.086-0.004,0.003
					c0.02-0.023,0.04-0.044,0.061-0.065c0.021-0.021,0.044-0.041,0.066-0.062c0.039-0.031,0.03-0.024-0.027,0.021
					C9.736,2.256,9.753,2.244,9.77,2.233C9.805,2.212,9.984,2.13,9.842,2.188c0.057-0.023,0.117-0.039,0.177-0.053
					c0.108-0.022-0.118,0.012-0.005,0c0.031-0.004,0.063-0.004,0.096-0.005c0.002,0,0.004,0,0.006,0c0.439,0,0.879,0,1.316,0
					c1.152,0,2.307,0,3.459,0c0.032,0,0.064,0.002,0.096,0.005c0.113,0.008-0.115-0.021-0.005,0c0.03,0.006,0.06,0.015,0.091,0.023
					c0.029,0.008,0.057,0.019,0.086,0.029c-0.131-0.049-0.035-0.014-0.006,0.001c0.035,0.019,0.196,0.133,0.076,0.039
					c0.048,0.037,0.09,0.08,0.131,0.123c0.021,0.022,0.081,0.106-0.002-0.005c0.018,0.024,0.034,0.05,0.049,0.075
					c0.017,0.026,0.03,0.053,0.045,0.08c0.049,0.096-0.041-0.107-0.002-0.005c0.021,0.059,0.035,0.118,0.047,0.179
					c-0.029-0.153-0.002,0.02-0.002,0.061c0,0.016,0,0.031,0,0.046c0,0.075,0,0.15,0,0.227c0,0.128,0,0.258,0,0.387
					c0,0.267,0.223,0.488,0.488,0.488s0.488-0.222,0.488-0.488c0-0.326,0.018-0.655-0.035-0.979
					c-0.049-0.307-0.229-0.605-0.449-0.819c-0.258-0.251-0.584-0.385-0.937-0.43c-0.144-0.019-0.29-0.012-0.433-0.012
					c-0.269,0-0.537,0-0.805,0c-1.225,0-2.45,0-3.676,0c-0.6,0-1.182,0.33-1.443,0.88C8.49,2.467,8.529,2.932,8.529,3.395
					c0,0.267,0.223,0.488,0.488,0.488S9.505,3.661,9.505,3.395L9.505,3.395z"/>
			</g>
		</g>
		<g>
			<g>
				<path fill="#373F51" d="M12.987,13.677c0-1.155,0-2.31,0-3.465c0-0.13,0-0.26,0-0.39c0-0.266-0.222-0.487-0.487-0.487
					s-0.488,0.222-0.488,0.487c0,1.155,0,2.311,0,3.466c0,0.129,0,0.259,0,0.389c0,0.267,0.223,0.488,0.488,0.488
					S12.987,13.943,12.987,13.677L12.987,13.677z"/>
			</g>
		</g>
		<g>
			<g>
				<path fill="#373F51" d="M10.572,12.237c1.156,0,2.311,0,3.466,0c0.13,0,0.259,0,0.39,0c0.266,0,0.487-0.222,0.487-0.487
					s-0.222-0.487-0.487-0.487c-1.156,0-2.311,0-3.466,0c-0.13,0-0.259,0-0.39,0c-0.266,0-0.487,0.222-0.487,0.487
					S10.307,12.237,10.572,12.237L10.572,12.237z"/>
			</g>
		</g>
	</g>
</g>
</svg>
