<?xml version="1.0" encoding="utf-8"?>
<!-- Generator: Adobe Illustrator 16.0.0, SVG Export Plug-In . SVG Version: 6.00 Build 0)  -->
<!DOCTYPE svg PUBLIC "-//W3C//DTD SVG 1.1//EN" "http://www.w3.org/Graphics/SVG/1.1/DTD/svg11.dtd">
<svg version="1.1" id="Layer_1" xmlns="http://www.w3.org/2000/svg" xmlns:xlink="http://www.w3.org/1999/xlink" x="0px" y="0px"
	 width="25px" height="19px" viewBox="0 0 25 19" enable-background="new 0 0 25 19" xml:space="preserve">
<g>
	<path fill="#373F51" d="M19.9,8.41c1.466-1.467,1.466-3.844,0-5.311c-1.467-1.466-3.844-1.466-5.311,0L12.501,5.19L7.19,10.5
		L5.1,12.59c-1.466,1.467-1.466,3.845,0,5.311c1.467,1.466,3.844,1.466,5.311,0l2.091-2.09L17.81,10.5L19.9,8.41z M13.323,6.984
		c0.227-0.226,0.565-0.271,0.837-0.134l0.321,0.322c0.137,0.271,0.093,0.609-0.135,0.836c-0.282,0.283-0.74,0.283-1.023,0
		C13.04,7.727,13.04,7.269,13.323,6.984z M11.886,8.422c0.283-0.283,0.742-0.283,1.025,0c0.282,0.283,0.282,0.741,0,1.024
		c-0.283,0.283-0.742,0.283-1.025,0S11.603,8.705,11.886,8.422z M10.036,12.321c-0.282,0.283-0.741,0.283-1.024,0
		s-0.283-0.742,0-1.025s0.742-0.283,1.024,0C10.319,11.579,10.319,12.038,10.036,12.321z M10.449,9.858
		c0.282-0.283,0.741-0.283,1.024,0s0.283,0.742,0,1.025s-0.742,0.283-1.024,0C10.166,10.601,10.166,10.142,10.449,9.858z
		 M11.79,14.074c-0.283,0.282-0.742,0.282-1.025,0c-0.283-0.283-0.283-0.743,0-1.024c0.283-0.283,0.742-0.283,1.025,0
		C12.072,13.331,12.072,13.791,11.79,14.074z M13.227,12.636c-0.283,0.283-0.741,0.283-1.024,0s-0.283-0.741,0-1.023
		c0.283-0.283,0.741-0.283,1.024,0C13.509,11.895,13.509,12.353,13.227,12.636z M14.663,11.199c-0.283,0.283-0.742,0.283-1.023,0
		c-0.283-0.282-0.283-0.741,0-1.024c0.282-0.283,0.74-0.283,1.023,0S14.946,10.917,14.663,11.199z M16.101,9.763
		c-0.283,0.283-0.742,0.283-1.024,0s-0.282-0.742,0-1.025c0.226-0.226,0.565-0.271,0.837-0.135l0.322,0.322
		C16.372,9.196,16.327,9.535,16.101,9.763z"/>
	<path fill="#373F51" d="M6.664,9.974l5.31-5.31L10.41,3.1C8.943,1.634,6.566,1.634,5.1,3.1c-1.466,1.467-1.466,3.844,0,5.311
		L6.664,9.974z"/>
	<path fill="#373F51" d="M18.336,11.026l-5.31,5.31L14.59,17.9c1.467,1.466,3.844,1.466,5.311,0c1.466-1.466,1.466-3.844,0-5.311
		L18.336,11.026z"/>
</g>
</svg>
