<?xml version="1.0" encoding="utf-8"?>
<!-- Generator: Adobe Illustrator 16.0.0, SVG Export Plug-In . SVG Version: 6.00 Build 0)  -->
<!DOCTYPE svg PUBLIC "-//W3C//DTD SVG 1.1//EN" "http://www.w3.org/Graphics/SVG/1.1/DTD/svg11.dtd">
<svg version="1.1" id="Layer_1" xmlns="http://www.w3.org/2000/svg" xmlns:xlink="http://www.w3.org/1999/xlink" x="0px" y="0px"
	 width="25px" height="19px" viewBox="0 0 25 19" enable-background="new 0 0 25 19" xml:space="preserve">
<g transform="translate(0.000000,148.000000) scale(0.100000,-0.100000)">
	<path fill="#373F51" d="M117.705,1454.492c-9.609-2.881-20.952-13.359-25.317-23.203c-2.373-5.234-3.369-18.711-1.626-21.582
		c0.381-0.615,0-1.611-1.118-2.002c-0.996-0.371-2.119-1.602-2.622-2.734c-1.118-2.988,1.748-14.6,4.746-19.209
		c1.616-2.246,3.486-6.611,4.482-9.727c0.874-3.125,2.627-7.49,3.994-9.863c1.992-3.486,2.241-4.854,1.128-8.223
		c-1.128-3.496-2.495-4.492-10.981-7.861c-5.239-1.992-14.468-5.107-20.327-6.982c-5.864-1.748-11.606-4.248-12.852-5.615
		c-3.491-3.857-5.61-11.221-5.732-19.707v-7.607l10.347-3.994c5.615-2.119,16.465-5.498,23.945-7.227
		c12.48-2.998,15.972-3.379,39.297-3.379c23.32,0,26.816,0.381,39.287,3.379c7.607,1.729,18.467,5.107,24.326,7.48l10.605,4.111
		l-0.137,8.984c-0.371,15.469-4.238,19.453-24.062,25.322c-26.201,7.725-29.688,11.465-23.457,24.316
		c1.875,3.623,3.379,7.607,3.379,8.613s1.367,3.232,2.988,4.863c3.359,3.359,5.986,11.592,5.605,17.578
		c-0.117,2.129-0.117,9.482,0,16.357c0.254,10.713-0.117,13.213-2.617,18.076c-1.621,3.115-4.365,6.357-6.23,7.227
		c-1.992,0.889-4.004,2.754-4.746,3.994c-0.742,1.377-3.867,3.867-6.982,5.732C136.67,1455.361,124.941,1456.738,117.705,1454.492z"
		/>
	<path fill="#373F51" d="M40.625,1440.146c-6.484-2.373-12.349-8.74-14.097-15.459c-0.742-2.764-1.87-11.729-2.373-19.717
		c-1.118-15.225-2.241-19.326-6.729-22.822c-2.495-2.129-2.495-2.129,2.734-4.746c2.876-1.494,8.115-3.125,11.479-3.486
		c5.366-0.625,6.113-1.123,6.113-3.613c0-2.998-2.246-4.131-21.45-10.361c-11.479-3.74-14.727-7.734-14.727-17.578
		c0-6.621,0.381-7.617,3.501-9.736c4.985-3.496,13.467-6.494,23.691-8.486c11.357-2.109,15.22-2.236,15.718-0.127
		c0.254,0.752,1.128,3.867,1.875,6.865c0.874,2.998,3.486,7.598,5.981,10.352c3.745,4.121,6.24,5.371,16.592,8.613
		c6.738,2.109,14.341,4.609,16.968,5.732c5.239,2.256,4.487,3.369-3.872,5.488c-2.744,0.742-7.983,2.5-11.475,3.984
		c-5.361,2.129-6.606,3.125-6.606,5.488c0,2.5,0.625,2.998,3.491,2.998c5.117,0,15.835,3.379,17.71,5.615
		c1.245,1.494,1.123,2.002-0.493,2.627c-4.751,1.738-6.24,7.852-6.489,24.814c-0.132,21.455-3.115,28.311-12.852,30.059
		c-2.495,0.498-5.61,1.621-6.978,2.5C54.214,1441.758,46.362,1442.266,40.625,1440.146z"/>
	<path fill="#373F51" d="M189.307,1440.635c-11.973-4.229-15.605-10.967-16.973-31.924c-0.869-11.602-1.865-17.334-4.102-22.822
		l-3.008-7.48l3.75-1.875c1.992-1.006,6.357-2.256,9.854-2.617c5.244-0.625,6.104-1.123,6.104-3.496
		c0-2.998-3.242-4.746-17.949-9.482c-8.242-2.617-8.496-2.744-5.625-4.238c1.631-0.879,8.115-3.115,14.219-4.99
		c14.98-4.482,17.598-5.488,21.328-8.359c3.75-2.998,7.48-9.98,8.613-16.338c0.879-4.121,1.25-4.609,4.863-4.609
		c5.615,0,23.691,4.609,29.189,7.344c7.852,4.004,9.346,6.504,8.721,14.482c-0.742,8.975-3.73,12.09-15.088,15.596
		c-16.084,5.107-20.83,7.48-20.83,10.596c0,2.373,0.879,2.871,5.996,3.496c5.986,0.742,15.215,4.248,15.215,5.986
		c0,0.371-0.879,1.494-2.002,2.48c-4.365,3.623-5.488,8.242-5.488,22.588c0,7.725-0.625,16.338-1.367,19.092
		c-1.748,5.977-8.486,13.086-12.607,13.086c-1.621,0-5.098,1.123-7.852,2.5C198.916,1442.383,195.039,1442.646,189.307,1440.635z"/>
</g>
</svg>
