<svg version="1" xmlns="http://www.w3.org/2000/svg" width="666.667" height="666.667" viewBox="0 0 500.000000 500.000000"><path d="M220.5 23.9c-.3.2-.5 102.2-.5 226.5v226.1h16.5c15.8 0 16.6-.1 17-2 .2-1.1.3-103 .2-226.5l-.2-224.5h-16.3c-9-.1-16.5.1-16.7.4zM385 55.2c-41.5 17.1-75.7 31.2-75.9 31.4-.4.4-.4 326.4 0 326.8.2.2 7.2 3.1 15.4 6.4 17.6 7.2 26 10.6 78.5 32.2 55.8 23 58.3 24 59.2 24 .4 0 .8-101.7.8-226 0-180.2-.3-226-1.2-225.9-.7 0-35.3 14.1-76.8 31.1zM85.5 143.7c-34.2 2.9-45.2 15.9-45.3 53.4-.1 24.9 3.9 38 14.8 48.9 7 7.1 10.5 9 33 17.9 29.1 11.5 32 14 33.8 27.7.9 7.4-.3 20.5-2.2 24.2-4 7.8-11.5 8.6-62.3 6.9-13-.5-13.3-.4-13.4 1.7-.1 1.1-.2 3.4-.4 5.1-1.8 22.6-2.3 20.5 5 21.9 6.8 1.4 8.2 1.6 12.5 2.2 2.5.3 5.2.7 6 .9 3.4.9 19.3 1.9 31 1.9 24.1 0 37-2.7 46.3-9.8 7.6-5.7 12.4-15.2 14.4-28.1 1.5-9.5.8-36.4-1-43.5-2.7-10.3-7.3-18.5-14-24.6-7.1-6.6-11.6-8.9-36.1-18.5-12.5-4.9-20.1-8.5-22.6-10.7-5.3-4.5-7.3-10.3-7.3-21-.1-13.9 1.4-18.6 6.6-21.8 3-1.8 5.4-1.9 35.5-1.8 22.6.1 32.2-.2 32.3-1 0-.6.2-1.8.4-2.7.1-.8.6-6.3 1-12.1l.7-10.5-2.9-.8c-9.2-2.6-19.2-4.4-28.5-5.1-8.6-.7-32-1.1-37.3-.7z"/></svg>