<?xml version="1.0" encoding="utf-8"?>
<!-- Generator: Adobe Illustrator 16.0.0, SVG Export Plug-In . SVG Version: 6.00 Build 0)  -->
<!DOCTYPE svg PUBLIC "-//W3C//DTD SVG 1.1//EN" "http://www.w3.org/Graphics/SVG/1.1/DTD/svg11.dtd">
<svg version="1.1" id="Layer_1" xmlns="http://www.w3.org/2000/svg" xmlns:xlink="http://www.w3.org/1999/xlink" x="0px" y="0px"
	 width="10px" height="10px" viewBox="0 0 10 10" enable-background="new 0 0 10 10" xml:space="preserve">
<path fill="#F38D68" d="M8.978,10c-0.262,0-0.523-0.1-0.724-0.3L0.3,1.746C-0.1,1.347-0.1,0.699,0.3,0.3s1.047-0.399,1.446,0
	L9.7,8.254C10.1,8.653,10.1,9.301,9.7,9.7C9.501,9.9,9.239,10,8.978,10z"/>
<path fill="#F38D68" d="M1.022,10C0.761,10,0.499,9.9,0.3,9.7C-0.1,9.301-0.1,8.653,0.3,8.254L8.254,0.3
	C8.653-0.1,9.301-0.1,9.7,0.3s0.399,1.047,0,1.446L1.746,9.7C1.546,9.9,1.284,10,1.022,10z"/>
</svg>
