<?xml version="1.0" encoding="utf-8"?>
<!-- Generator: Adobe Illustrator 16.0.0, SVG Export Plug-In . SVG Version: 6.00 Build 0)  -->
<!DOCTYPE svg PUBLIC "-//W3C//DTD SVG 1.1//EN" "http://www.w3.org/Graphics/SVG/1.1/DTD/svg11.dtd">
<svg version="1.1" id="Layer_1" xmlns="http://www.w3.org/2000/svg" xmlns:xlink="http://www.w3.org/1999/xlink" x="0px" y="0px"
	 width="53px" height="25px" viewBox="0 0 53 25" enable-background="new 0 0 53 25" xml:space="preserve">
<path fill="#E8C26B" d="M40,4.554l2.224,4.554l0.463,0.947l1.043,0.153l5.007,0.735l-3.641,3.589l-0.742,0.731l0.175,1.028
	l0.854,5.033l-4.444-2.363L40,18.464l-0.938,0.498l-4.443,2.363l0.854-5.033l0.175-1.028l-0.742-0.731l-3.642-3.589l5.007-0.735
	l1.043-0.153l0.463-0.947L40,4.554 M40,0l-4.02,8.229L27,9.548l6.503,6.41L31.968,25L40,20.729L48.032,25l-1.534-9.043L53,9.548
	l-8.98-1.318L40,0L40,0z"/>
<polygon fill="#E8C26B" points="13,0 17.02,8.229 26,9.548 19.498,15.958 21.032,25 13,20.729 4.968,25 6.503,15.958 0,9.548 
	8.98,8.229 "/>
</svg>
