<?xml version="1.0" encoding="utf-8"?>
<!-- Generator: Adobe Illustrator 16.0.0, SVG Export Plug-In . SVG Version: 6.00 Build 0)  -->
<!DOCTYPE svg PUBLIC "-//W3C//DTD SVG 1.1//EN" "http://www.w3.org/Graphics/SVG/1.1/DTD/svg11.dtd">
<svg version="1.1" id="Layer_1" xmlns="http://www.w3.org/2000/svg" xmlns:xlink="http://www.w3.org/1999/xlink" x="0px" y="0px"
	 width="21px" height="25px" viewBox="0 0 21 25" enable-background="new 0 0 21 25" xml:space="preserve">
<path id="Funnel_2_" fill="#373F51" d="M20.889,0.551C20.713,0.211,20.368,0,19.988,0H1.034C0.644,0,0.29,0.219,0.113,0.565
	C-0.065,0.914-0.031,1.326,0.2,1.642l7.71,10.511v11.831c0,0.412,0.246,0.78,0.629,0.941C8.665,24.976,8.797,25,8.93,25
	c0.264,0,0.521-0.102,0.718-0.297l3.048-3.041c0.329-0.328,0.513-0.771,0.513-1.238v-8.318l7.598-10.501
	C21.031,1.295,21.063,0.893,20.889,0.551z M2.43,3.359h16.143l-5.956,8.227H8.467L2.43,3.359z M12.14,21.109L9.092,24.15
	c-0.064,0.068-0.166,0.089-0.255,0.05c-0.087-0.035-0.144-0.122-0.144-0.217V12.367h3.731v8.057
	C12.425,20.68,12.32,20.93,12.14,21.109z M20.172,1.146l-1.034,1.432H1.856L0.832,1.18C0.777,1.104,0.767,1.006,0.812,0.922
	c0.042-0.085,0.128-0.14,0.223-0.14h18.954c0.083,0,0.163,0.048,0.203,0.125C20.232,0.984,20.224,1.076,20.172,1.146z"/>
</svg>
