<?xml version="1.0" encoding="utf-8"?>
<!-- Generator: Adobe Illustrator 16.0.0, SVG Export Plug-In . SVG Version: 6.00 Build 0)  -->
<!DOCTYPE svg PUBLIC "-//W3C//DTD SVG 1.1//EN" "http://www.w3.org/Graphics/SVG/1.1/DTD/svg11.dtd">
<svg version="1.1" id="Layer_1" xmlns="http://www.w3.org/2000/svg" xmlns:xlink="http://www.w3.org/1999/xlink" x="0px" y="0px"
	 width="150px" height="39px" viewBox="-47.955 -22.141 150 39" enable-background="new -47.955 -22.141 150 39"
	 xml:space="preserve">
<g>
	<g>
		<path fill="none" d="M-17.049-18.433c-1.214,1.607-2.438,3.208-3.634,4.817C-19.487-15.225-18.263-16.825-17.049-18.433z"/>
		<path fill="none" d="M-17.636-6.543c-0.221-0.606-0.972-2.034-1.05-2.151c-0.466-0.764-1.012-1.427-1.618-2.033
			c-0.48-0.491-1.019-0.896-1.564-1.284c-0.815-0.571-1.685-1.054-2.613-1.393c-1.252-0.468-2.566-0.704-3.908-0.713l0.019-4.011
			l-0.019,4.011c-1.196-0.007-2.394,0.127-3.564,0.505c-0.438,0.135-0.858,0.359-1.284,0.548c-0.299,0.145-1.798,1.01-2.218,1.342
			c-0.268,0.202-0.541,0.401-0.782,0.622c-0.099,0.098-0.184,0.2-0.278,0.297c-0.527,0.523-0.995,1.082-1.409,1.683
			c-0.831,1.222-1.416,2.577-1.731,4.014c-0.285,1.301-0.368,2.641-0.189,3.985c0.112,0.847,0.349,1.688,0.66,2.513
			c0.117,0.31,0.259,0.613,0.404,0.912c0.087,0.185,0.145,0.359,0.241,0.538c0.032,0.065,0.048,0.134,0.082,0.194
			c0.826,1.447,1.933,2.642,3.193,3.564c1.393,1.024,2.988,1.678,4.665,2.006c1.597,0.304,3.248,0.269,4.869-0.13
			c1.015-0.245,2.021-0.584,2.978-1.125h0.004c0.705-0.404,1.342-0.868,1.931-1.385c0.52-0.462,0.988-0.969,1.409-1.501
			c1.046-1.328,1.761-2.857,2.144-4.488l0,0c0.305-1.299,0.418-2.639,0.258-3.982c-0.019-0.201-0.058-0.391-0.094-0.591
			C-17.21-5.254-17.402-5.903-17.636-6.543z"/>
		<path fill="#C32E30" d="M-36.517-10.804c0.095-0.097,0.18-0.199,0.278-0.297l-5.427-5.874c-0.216,0.195-0.29,0.261-0.494,0.463
			c-0.848,0.85-1.72,1.888-2.39,2.875l6.623,4.516C-37.512-9.722-37.044-10.281-36.517-10.804z"/>
		<path fill="#F6B72D" d="M-37.926-9.121l-6.623-4.516c-1.524,2.231-2.368,4.186-2.939,6.819c-0.001,0.002-0.001,0.002-0.001,0.002
			l7.832,1.709C-39.342-6.543-38.757-7.899-37.926-9.121z"/>
		<path fill="#EB5D30" d="M-39.657-5.106l-7.832-1.709c-0.002,0-0.002,0-0.002,0c-0.511,2.35-0.598,4.384-0.271,6.765l7.915-1.07
			C-40.025-2.466-39.942-3.805-39.657-5.106z"/>
		<path fill="#C32E30" d="M-39.847-1.121l-7.915,1.07h-0.002c0.198,1.475,0.555,2.872,1.082,4.271l7.495-2.828
			C-39.498,0.566-39.734-0.274-39.847-1.121z"/>
		<path fill="#EE5E2D" d="M-39.187,1.392l-7.495,2.828c0.208,0.549,0.414,1.025,0.67,1.559l7.229-3.475
			C-38.928,2.005-39.069,1.701-39.187,1.392z"/>
		<path fill="#C32E30" d="M-38.782,2.304l-7.229,3.475c0.168,0.346,0.343,0.687,0.522,1.01c2.291-1.299,4.504-2.555,6.948-3.946
			C-38.638,2.663-38.695,2.488-38.782,2.304z"/>
		<path fill="#F6B72D" d="M-38.459,3.036c-0.034-0.061-0.05-0.129-0.082-0.194c-2.444,1.392-4.657,2.647-6.948,3.946
			c1.37,2.501,3.15,4.517,5.499,6.241l4.725-6.429C-36.526,5.678-37.633,4.483-38.459,3.036z"/>
		<path fill="#C32E30" d="M-35.266,6.601l-4.725,6.429l0.001,0.006c2.362,1.729,4.872,2.871,7.492,3.431
			c0.631-2.622,1.265-5.246,1.896-7.859C-32.277,8.278-33.873,7.625-35.266,6.601z"/>
		<path fill="#F6B72D" d="M-30.601,8.606c-0.632,2.613-1.266,5.237-1.896,7.859c2.766,0.581,5.665,0.524,8.662-0.211l-1.896-7.778
			C-27.353,8.875-29.004,8.91-30.601,8.606z"/>
		<path fill="#C32E30" d="M-22.75,7.352c1.309,2.294,2.614,4.588,3.945,6.928c1.165-0.652,2.258-1.432,3.271-2.34
			c-1.763-1.99-3.522-3.981-5.285-5.973C-21.408,6.483-22.045,6.947-22.75,7.352z"/>
		<path fill="#EB5D30" d="M-22.754,7.352c-0.956,0.541-1.963,0.88-2.978,1.125l1.896,7.778c1.824-0.44,3.494-1.106,5.03-1.976
			c-1.331-2.34-2.637-4.634-3.945-6.928H-22.754z"/>
		<path fill="#F6B72D" d="M-20.819,5.967c1.763,1.991,3.522,3.982,5.285,5.973c0.842-0.752,1.633-1.595,2.376-2.533l-6.252-4.94
			C-19.831,4.998-20.3,5.505-20.819,5.967z"/>
		<path fill="#C32E30" d="M-19.41,4.466l6.252,4.94c1.858-2.358,2.979-4.668,3.672-7.59l-7.78-1.839
			C-17.649,1.608-18.364,3.138-19.41,4.466z"/>
		<path fill="#F6B72D" d="M-9.101-4.942l-7.908,0.937c0.16,1.344,0.047,2.684-0.258,3.982l7.775,1.833l0.005,0.006
			C-8.939-0.524-8.821-2.55-9.101-4.942z"/>
		<polygon fill="#909293" points="-17.267,-0.022 -17.267,-0.022 -9.486,1.816 -9.491,1.811 		"/>
		<path fill="#C32E30" d="M-17.009-4.005l7.908-0.937c-0.033-0.283-0.099-0.721-0.145-1.004l-7.857,1.351
			C-17.066-4.396-17.027-4.206-17.009-4.005z"/>
		<path fill="#EE5E2D" d="M-17.103-4.596l7.857-1.351c-0.201-1.175-0.464-2.156-0.866-3.282l-7.524,2.685
			C-17.402-5.903-17.21-5.254-17.103-4.596z"/>
		<path fill="#F6B72D" d="M-17.636-6.543l7.524-2.685c-0.5-1.412-0.978-2.395-1.761-3.671l-6.813,4.205
			C-18.607-8.578-17.856-7.149-17.636-6.543z"/>
		<path fill="#EE5E2D" d="M-18.686-8.694l6.813-4.205c-0.789-1.273-1.685-2.388-2.739-3.456l-5.692,5.627
			C-19.697-10.122-19.151-9.458-18.686-8.694z"/>
		<path fill="#C32E30" d="M-21.868-12.012c0.546,0.389,1.084,0.793,1.564,1.284l5.692-5.627c-0.79-0.8-1.602-1.464-2.438-2.078
			c-1.214,1.607-2.438,3.208-3.634,4.817C-21.082-13.08-21.477-12.546-21.868-12.012z"/>
		<path fill="#EE5E2D" d="M-21.868-12.012c0.392-0.534,0.786-1.068,1.186-1.604c1.195-1.609,2.42-3.21,3.634-4.817
			c-1.398-1.021-2.879-1.847-4.641-2.496l-2.792,7.524C-23.553-13.065-22.684-12.583-21.868-12.012z"/>
		<path fill="#F6B72D" d="M-28.371-18.129l-0.019,4.011c1.342,0.009,2.656,0.245,3.908,0.713l2.792-7.524
			c-2.254-0.837-4.266-1.198-6.662-1.212l0,0l0,0L-28.371-18.129z"/>
		<path fill="#EB5D30" d="M-28.39-14.118l0.019-4.011l0.02-4.011l0,0c-2.097-0.011-4.03,0.282-6.024,0.923l2.422,7.604
			C-30.783-13.991-29.586-14.125-28.39-14.118z"/>
		<path fill="#C32E30" d="M-31.954-13.613l-2.422-7.604c-0.852,0.274-1.405,0.49-2.221,0.857l3.358,7.295
			C-32.812-13.254-32.392-13.478-31.954-13.613z"/>
		<path fill="#F6B72D" d="M-33.238-13.065l-3.358-7.295c-1.357,0.629-2.592,1.366-3.773,2.289l4.914,6.349
			C-35.036-12.055-33.537-12.921-33.238-13.065z"/>
		<path fill="#EB5D30" d="M-35.456-11.723l-4.914-6.349c-0.47,0.36-0.865,0.692-1.295,1.097l5.427,5.874
			C-35.997-11.322-35.724-11.521-35.456-11.723z"/>
	</g>
	<g>
		<g>
			<g>
				<path fill="#C32E30" d="M-2.274,6.472c-0.722,0-1.221-0.08-1.681-0.156V4.097c0.322,0.12,0.762,0.195,1.238,0.195
					c0.941,0,1.481-0.393,1.481-1.842v-13.436h2.6V2.553C1.364,4.751,0.464,6.472-2.274,6.472z"/>
				<path fill="#C32E30" d="M10.978,2.392c0-0.452,0.02-1.201,0.12-1.761L11.056,0.61c-0.58,1.173-1.737,1.984-3.357,1.984
					c-2.257,0-2.979-1.431-2.979-3.147v-4.969c-0.479-0.086-1.139-0.16-1.719-0.202v-1.58c1.32-0.16,2.898-0.218,4.276-0.181v6.311
					c0,1.029,0.281,1.646,1.222,1.646c1.298,0,2.319-1.466,2.319-3.184v-4.752h2.54v7.899c0.477,0.073,1.157,0.159,1.736,0.195
					v1.587C13.835,2.377,12.298,2.436,10.978,2.392z"/>
				<path fill="#C32E30" d="M29.307,2.377v-6.241c0-1.049-0.238-1.701-1.181-1.701c-1.119,0-2.276,1.304-2.276,3.226v4.716h-2.519
					v-6.241c0-0.97-0.201-1.701-1.182-1.701c-1.179,0-2.277,1.387-2.277,3.226v4.716h-2.54v-7.899
					c-0.481-0.086-1.157-0.16-1.739-0.202v-1.58c1.258-0.16,2.819-0.218,4.14-0.181c0,0.472-0.043,1.21-0.122,1.779h0.02
					c0.6-1.206,1.8-1.974,3.279-1.974c1.759,0,2.501,1.029,2.739,1.974c0.46-0.968,1.558-1.974,3.238-1.974
					c1.919,0,2.979,1.043,2.979,3.285v6.772H29.307z"/>
				<path fill="#C32E30" d="M33.541-5.724v-1.58c1.259-0.16,2.781-0.218,4.1-0.181c0,0.493-0.02,1.15-0.099,1.66h0.038
					c0.559-1.145,1.618-1.841,3.119-1.841c2.356,0,3.639,1.681,3.639,4.595c0,3.422-1.799,5.581-5.237,5.581
					c-0.479,0-0.86-0.017-1.28-0.074v4.71h-2.538V-5.522C34.8-5.608,34.121-5.682,33.541-5.724z M39.958-5.584
					c-1.337,0-2.138,1.542-2.138,3.222v2.741c0.398,0.115,0.821,0.174,1.341,0.174c1.457,0,2.496-0.915,2.496-3.35
					C41.657-4.637,41.12-5.584,39.958-5.584z"/>
				<path fill="#C32E30" d="M48.953,2.595c-0.96,0-1.918-0.102-2.759-0.319l0.159-2.394c0.761,0.253,1.84,0.469,2.82,0.469
					c1.32,0,2.34-0.531,2.34-1.756c0-2.554-5.659-1.392-5.659-5.783c0-2.376,1.898-4.017,5.139-4.017
					c0.761,0,1.64,0.097,2.438,0.235l-0.141,2.26c-0.761-0.217-1.599-0.362-2.419-0.362c-1.499,0-2.257,0.679-2.257,1.624
					c0,2.397,5.677,1.507,5.677,5.682C54.292,0.751,52.272,2.595,48.953,2.595z"/>
				<path fill="#C32E30" d="M59.827,2.571c-2.2,0-2.878-0.788-2.878-3.092v-4.986h-1.72v-1.957h1.699v-3.029l2.56-0.678v3.707h2.418
					v1.957h-2.418v4.32c0,1.261,0.3,1.622,1.179,1.622c0.42,0,0.879-0.057,1.239-0.16v2.041C61.268,2.473,60.526,2.571,59.827,2.571
					z"/>
				<path fill="#C32E30" d="M69.302,2.392c0-0.57,0.02-1.166,0.098-1.682l-0.018-0.019c-0.48,1.107-1.699,1.88-3.181,1.88
					c-1.798,0-2.839-1.005-2.839-2.594c0-2.353,2.362-3.6,5.74-3.6v-0.537c0-1.029-0.503-1.565-1.942-1.565
					c-0.896,0-2.096,0.297-2.937,0.768l-0.22-2.116c0.997-0.353,2.277-0.608,3.557-0.608c3.199,0,4.098,1.26,4.098,3.42v4.696
					c0.483,0.073,1.162,0.159,1.742,0.195v1.587C72.142,2.377,70.6,2.436,69.302,2.392z M69.103-1.984
					c-2.7,0-3.298,0.774-3.298,1.564c0,0.638,0.437,1.051,1.18,1.051c1.258,0,2.118-1.184,2.118-2.375V-1.984z"/>
				<path fill="#C32E30" d="M77.69-5.487h0.042c0.478-1.25,1.438-2.337,3.156-2.193l-0.118,2.493
					c-1.84-0.377-2.761,0.812-2.761,3.541v4.023h-2.537v-7.899c-0.479-0.086-1.159-0.16-1.741-0.202v-1.58
					c1.262-0.16,2.801-0.218,4.142-0.181C77.873-6.97,77.812-6.176,77.69-5.487z"/>
				<path fill="#C32E30" d="M86.376,2.571c-2.2,0-2.88-0.788-2.88-3.092v-4.986h-1.719v-1.957h1.7v-3.029l2.557-0.678v3.707h2.42
					v1.957h-2.42v4.32c0,1.261,0.302,1.622,1.18,1.622c0.421,0,0.88-0.057,1.24-0.16v2.041C87.815,2.473,87.075,2.571,86.376,2.571z
					"/>
			</g>
		</g>
		<path fill="#C32E30" d="M95.882-11.241c-0.587-0.222-1.263-0.367-1.948-0.367c-1.449,0-2.494,0.91-2.494,2.536
			c0,1.539,0.849,2.45,2.342,2.45c0.349,0,0.65-0.043,0.937-0.131v-2.536h1.411v3.475c-0.725,0.29-1.631,0.453-2.51,0.453
			c-2.333,0-3.716-1.362-3.716-3.58c0-2.29,1.569-3.914,4.118-3.914c0.729,0,1.447,0.131,2.078,0.311L95.882-11.241z"/>
		<path fill="#C32E30" d="M102.004-7.926h-3.354c-0.009,1,0.489,1.484,1.49,1.484c0.535,0,1.11-0.122,1.581-0.333l0.129,1.066
			c-0.575,0.231-1.262,0.348-1.937,0.348c-1.721,0-2.678-0.855-2.678-2.739c0-1.638,0.912-2.847,2.538-2.847
			c1.574,0,2.271,1.064,2.271,2.395C102.045-8.375,102.035-8.159,102.004-7.926z M99.727-9.938c-0.575,0-0.978,0.422-1.054,1.069
			h1.991C100.685-9.536,100.314-9.938,99.727-9.938z"/>
	</g>
</g>
</svg>
