<?xml version="1.0" encoding="utf-8"?>
<!-- Generator: Adobe Illustrator 16.0.0, SVG Export Plug-In . SVG Version: 6.00 Build 0)  -->
<!DOCTYPE svg PUBLIC "-//W3C//DTD SVG 1.1//EN" "http://www.w3.org/Graphics/SVG/1.1/DTD/svg11.dtd">
<svg version="1.1" id="Layer_1" xmlns="http://www.w3.org/2000/svg" xmlns:xlink="http://www.w3.org/1999/xlink" x="0px" y="0px"
	 width="139px" height="52px" viewBox="0 0 139 52" enable-background="new 0 0 139 52" xml:space="preserve">
<rect x="1" y="1" fill="#373F51" width="4" height="50"/>
<polygon fill="#009B72" points="28.021,51 11.021,44.008 11.021,7.991 28.021,1 "/>
<circle fill="#FFFFFF" cx="14.021" cy="25.25" r="1.5"/>
<g>
	<g>
		<path fill="#373F51" d="M41.22,41.937c0,2.114-0.837,3.172-2.511,3.172c-1.806,0-2.709-1.298-2.709-3.894
			c0-2.407,0.874-3.611,2.621-3.611c0.465,0,0.881,0.287,1.248,0.862v-2.141c0-0.782-0.416-1.174-1.248-1.174
			c-0.626,0-0.94,0.354-0.94,1.062h-1.395c0.005-1.451,0.783-2.177,2.335-2.177c1.733,0,2.599,0.763,2.599,2.288V41.937z
			 M39.781,41.712c0-1.995-0.387-2.994-1.16-2.994c-0.803,0-1.204,0.831-1.204,2.489c0,1.858,0.44,2.787,1.322,2.787
			C39.434,43.994,39.781,43.234,39.781,41.712z"/>
		<path fill="#373F51" d="M50.716,41.052c0.005,1.387-0.497,2.718-1.505,3.989h-1.608c1.116-1.585,1.674-2.914,1.674-3.989
			c0-1.551-0.318-2.325-0.955-2.325c-0.778,0-1.167,0.673-1.167,2.021l-0.073,1.382h-1.138l-0.051-1.382
			c0-1.348-0.394-2.021-1.182-2.021c-0.626,0-0.94,0.774-0.94,2.325c-0.02,1.07,0.512,2.4,1.593,3.989h-1.608
			c-0.959-1.271-1.439-2.603-1.439-3.989c0-2.294,0.803-3.441,2.408-3.441c0.709,0,1.309,0.454,1.799,1.36
			c0.47-0.906,1.072-1.36,1.806-1.36C49.92,37.61,50.716,38.758,50.716,41.052z"/>
		<path fill="#373F51" d="M56.878,41.028c0,1.299-0.169,2.632-0.507,3.999h-1.38c0.309-1.383,0.463-2.715,0.463-3.999
			c0-1.535-0.392-2.302-1.175-2.302c-0.803,0-1.204,0.767-1.204,2.302c0.005,1.284,0.203,2.616,0.595,3.999h-1.351
			c-0.431-1.383-0.646-2.715-0.646-3.999c0-2.278,0.869-3.418,2.606-3.418C56.011,37.61,56.878,38.75,56.878,41.028z"/>
		<path fill="#373F51" d="M63.048,41.408c0,2.467-0.884,3.7-2.651,3.7c-1.713,0-2.569-1.221-2.569-3.663
			c0-2.557,0.856-3.835,2.569-3.835c0.426,0,0.854,0.268,1.285,0.803v-4.139h1.366V41.408z M61.624,41.379
			c-0.005-1.769-0.414-2.652-1.227-2.652c-0.768,0-1.152,0.901-1.152,2.704c0,1.708,0.384,2.563,1.152,2.563
			C61.215,43.994,61.624,43.122,61.624,41.379z"/>
		<path fill="#373F51" d="M69.349,41.028c0,1.299-0.168,2.632-0.506,3.999h-1.38c0.308-1.383,0.462-2.715,0.462-3.999
			c0-1.535-0.392-2.302-1.175-2.302c-0.803,0-1.204,0.767-1.204,2.302c0.005,1.284,0.203,2.616,0.595,3.999H64.79
			c-0.431-1.383-0.646-2.715-0.646-3.999c0-2.278,0.869-3.418,2.606-3.418C68.483,37.61,69.349,38.75,69.349,41.028z"/>
		<path fill="#373F51" d="M75.445,45.406c0,1.729-0.856,2.594-2.569,2.594c-1.714,0-2.57-0.865-2.57-2.594
			c-0.005-0.49,0.093-1.088,0.294-1.792l1.351,0.231c-0.156,0.684-0.235,1.204-0.235,1.561c0,0.98,0.387,1.471,1.161,1.471
			c0.763,0,1.143-0.465,1.137-1.396v-5.373c-0.004-0.922-0.329-1.381-0.976-1.381c-0.744,0-1.116,0.406-1.116,1.218
			c-0.005,0.486,0.104,1.008,0.33,1.568l-1.247,0.297c-0.255-0.58-0.382-1.189-0.382-1.828c0-1.58,0.803-2.371,2.409-2.371
			c1.609,0,2.415,0.832,2.415,2.497V45.406z"/>
		<path fill="#373F51" d="M85.192,41.869c0,2.16-0.857,3.239-2.57,3.239c-1.781,0-2.673-1.229-2.673-3.686v-7.148h1.41v7.148
			c0.006,1.714,0.427,2.571,1.263,2.571c0.76,0,1.139-0.708,1.139-2.125c0.005-0.733-0.189-1.365-0.581-1.898
			s-0.587-1.094-0.587-1.684c0-0.574,0.174-1.14,0.521-1.694l1.24,0.364c-0.347,0.481-0.521,0.914-0.521,1.301
			c0,0.342,0.227,0.819,0.68,1.431C84.966,40.3,85.192,41.026,85.192,41.869z"/>
		<path fill="#373F51" d="M91.289,45.406c0,1.729-0.856,2.594-2.57,2.594c-1.713,0-2.569-0.865-2.569-2.594
			c-0.005-0.49,0.093-1.088,0.294-1.792l1.351,0.231c-0.156,0.684-0.235,1.204-0.235,1.561c0,0.98,0.387,1.471,1.16,1.471
			c0.764,0,1.144-0.465,1.138-1.396v-5.373c-0.004-0.922-0.33-1.381-0.976-1.381c-0.744,0-1.116,0.406-1.116,1.218
			c-0.005,0.486,0.104,1.008,0.33,1.568l-1.247,0.297c-0.255-0.58-0.382-1.189-0.382-1.828c0-1.58,0.803-2.371,2.408-2.371
			c1.609,0,2.415,0.832,2.415,2.497V45.406z"/>
		<path fill="#373F51" d="M100.843,40.873c0,1.343-0.512,2.728-1.534,4.154h-1.615c1.146-1.674,1.718-3.06,1.718-4.154
			c-0.005-1.432-0.367-2.146-1.087-2.146c-0.738,0-1.107,0.707-1.107,2.124l-0.082,0.996h-1.101l-0.097-0.98
			c-0.059-1.427-0.421-2.14-1.086-2.14c-0.738,0-1.108,0.715-1.108,2.146c0,1.095,0.562,2.48,1.688,4.154h-1.608
			c-1.008-1.417-1.512-2.802-1.512-4.154c0-1.491,0.341-2.686,1.024-3.586c0.684-0.898,1.362-1.575,2.04-2.027
			c0.679-0.454,1.919-0.873,3.72-1.26l0.323,1.24c-1.816,0.287-3.038,0.637-3.667,1.049c-0.631,0.41-1.138,0.943-1.524,1.597
			l0.535-0.275c0.695,0,1.301,0.535,1.814,1.605c0.445-1.07,1.045-1.605,1.799-1.605C100.021,37.61,100.843,38.698,100.843,40.873z"
			/>
		<path fill="#373F51" d="M107.005,45.487c0,1.671-0.832,2.507-2.496,2.513c-1.802,0-2.705-0.899-2.709-2.698
			c-0.006-0.268,0.092-0.797,0.294-1.59l1.328,0.371c-0.146,0.6-0.22,1.006-0.22,1.219c0,1.051,0.436,1.575,1.307,1.575
			c0.715,0,1.072-0.458,1.072-1.374v-0.988c0.005-0.986-0.306-1.479-0.933-1.479h-0.544v-1.115h0.544
			c0.582,0.01,0.873-0.572,0.873-1.746c0-0.966-0.383-1.448-1.152-1.448c-0.602,0-0.903,0.436-0.903,1.308
			c0,0.258,0.061,0.547,0.185,0.869l-1.271,0.326c-0.201-0.639-0.302-1.037-0.302-1.195c0-1.615,0.757-2.424,2.27-2.424
			c1.718,0,2.576,0.865,2.576,2.594c-0.004,1.001-0.462,1.764-1.372,2.289c0.969,0.387,1.453,1.065,1.453,2.036V45.487z"/>
		<path fill="#373F51" d="M113.16,41.028c0,1.299-0.169,2.632-0.508,3.999h-1.38c0.31-1.383,0.463-2.715,0.463-3.999
			c0-1.535-0.392-2.302-1.175-2.302c-0.803,0-1.204,0.767-1.204,2.302c0.005,1.284,0.203,2.616,0.595,3.999H108.6
			c-0.431-1.383-0.646-2.715-0.646-3.999c0-2.278,0.869-3.418,2.606-3.418C112.293,37.61,113.16,38.75,113.16,41.028z"/>
		<path fill="#373F51" d="M119.498,41.869c0,2.16-0.856,3.239-2.569,3.239c-1.781,0-2.673-1.229-2.673-3.686v-7.148h1.41v7.148
			c0.004,1.714,0.425,2.571,1.263,2.571c0.758,0,1.138-0.708,1.138-2.125c0.005-0.733-0.188-1.365-0.579-1.898
			s-0.588-1.094-0.588-1.684c0-0.574,0.173-1.14,0.521-1.694l1.241,0.364c-0.348,0.481-0.521,0.914-0.521,1.301
			c0,0.342,0.227,0.819,0.679,1.431C119.271,40.3,119.498,41.026,119.498,41.869z"/>
		<path fill="#373F51" d="M125.595,45.406c0,1.729-0.856,2.594-2.57,2.594c-1.713,0-2.569-0.865-2.569-2.594
			c-0.005-0.49,0.093-1.088,0.294-1.792l1.351,0.231c-0.156,0.684-0.234,1.204-0.234,1.561c0,0.98,0.386,1.471,1.159,1.471
			c0.764,0,1.143-0.465,1.139-1.396v-5.373c-0.006-0.922-0.331-1.381-0.977-1.381c-0.744,0-1.116,0.406-1.116,1.218
			c-0.005,0.486,0.105,1.008,0.331,1.568l-1.249,0.297c-0.255-0.58-0.382-1.189-0.382-1.828c0-1.58,0.803-2.371,2.408-2.371
			c1.611,0,2.416,0.832,2.416,2.497V45.406z"/>
		<path fill="#373F51" d="M131.845,41.349c0,2.507-0.862,3.76-2.585,3.76c-1.762,0-2.644-1.253-2.644-3.76
			c0-2.056,0.708-3.282,2.123-3.679v-0.898c0-0.54-0.279-0.922-0.837-1.145c-0.559-0.223-0.837-0.719-0.837-1.486h1.38
			c0,0.361,0.26,0.686,0.778,0.973c0.519,0.288,0.778,0.826,0.778,1.613v0.943C131.23,38.201,131.845,39.427,131.845,41.349z
			 M130.428,41.349c-0.005-1.754-0.392-2.631-1.16-2.631c-0.822,0.005-1.231,0.882-1.226,2.631c0,1.764,0.405,2.646,1.218,2.646
			C130.039,43.994,130.428,43.112,130.428,41.349z"/>
		<path fill="#373F51" d="M138,41.028c0,1.299-0.169,2.632-0.507,3.999h-1.381c0.309-1.383,0.462-2.715,0.462-3.999
			c0-1.535-0.392-2.302-1.175-2.302c-0.803,0-1.204,0.767-1.204,2.302c0.006,1.284,0.204,2.616,0.596,3.999h-1.351
			c-0.432-1.383-0.646-2.715-0.646-3.999c0-2.278,0.869-3.418,2.605-3.418C137.133,37.61,138,38.75,138,41.028z"/>
	</g>
</g>
<g>
	<g>
		<path fill="#373F51" d="M37,10.932V9.489c0-0.246,0.068-0.434,0.204-0.568c0.136-0.135,0.314-0.201,0.535-0.201h0.974
			c0.723,0,1.37,0.15,1.941,0.449c0.571,0.299,0.961,0.72,1.171,1.263h0.167C42.539,9.144,43.541,8.5,44.998,8.5
			c0.815,0,1.503,0.069,2.067,0.206c0.563,0.135,1.078,0.382,1.54,0.739c0.464,0.355,0.807,0.873,1.03,1.549
			c0.223,0.676,0.335,1.523,0.335,2.54v12.618c0,1.143-0.08,2.055-0.238,2.737c-0.158,0.681-0.457,1.218-0.894,1.612
			c-0.437,0.392-0.971,0.658-1.6,0.794S45.764,31.5,44.703,31.5h-2.264c-1.04,0-1.882-0.07-2.528-0.21
			c-0.645-0.141-1.186-0.397-1.624-0.767c-0.438-0.371-0.738-0.871-0.902-1.502c-0.164-0.632-0.234-1.447-0.214-2.448v-6.242
			c0-0.698,0.049-1.304,0.146-1.814c0.097-0.512,0.263-0.943,0.5-1.298c0.237-0.355,0.506-0.64,0.809-0.853
			c0.301-0.214,0.705-0.378,1.212-0.492c0.506-0.116,1.024-0.194,1.552-0.235c0.528-0.042,1.186-0.063,1.972-0.063h0.194
			c1.239,0,2.112,0.179,2.619,0.534v-2.352c0-0.88-0.098-1.471-0.294-1.767c-0.197-0.298-0.576-0.447-1.138-0.447
			c-0.488,0-0.828,0.114-1.018,0.341c-0.191,0.226-0.287,0.62-0.287,1.181v0.265c0,0.207-0.062,0.375-0.187,0.502
			c-0.124,0.127-0.306,0.19-0.544,0.19h-1.881c-0.487,0-0.731-0.239-0.731-0.718v-0.335c0-0.49-0.1-0.826-0.301-1.009
			c-0.2-0.184-0.627-0.275-1.281-0.275H37.48C37.161,11.685,37,11.434,37,10.932z M40.966,26.135c0,1.078,0.118,1.771,0.356,2.078
			c0.237,0.311,0.744,0.463,1.519,0.463H44.3c0.795,0,1.307-0.164,1.534-0.494c0.228-0.329,0.341-1,0.341-2.016v-5.523
			c0-0.951-0.148-1.563-0.442-1.835C45.438,18.537,44.8,18.4,43.818,18.4h-0.464c-0.537,0-0.952,0.027-1.241,0.078
			c-0.29,0.053-0.52,0.177-0.69,0.369c-0.17,0.194-0.284,0.422-0.341,0.683c-0.057,0.263-0.096,0.655-0.116,1.177V26.135z"/>
		<path fill="#373F51" d="M58.003,23.028c0-0.22,0.062-0.396,0.187-0.533c0.124-0.135,0.306-0.204,0.544-0.204h1.975
			c0.487,0,0.731,0.247,0.731,0.737v3.107c0,1.025,0.114,1.706,0.342,2.039c0.228,0.336,0.71,0.502,1.446,0.502h1.773
			c0.663,0,1.106-0.166,1.33-0.502c0.223-0.333,0.334-0.945,0.334-1.836V13.552c0-0.847-0.135-1.408-0.404-1.687
			c-0.27-0.276-0.871-0.416-1.804-0.416h-0.855c-0.664,0-1.135,0.165-1.415,0.494c-0.28,0.329-0.436,0.876-0.466,1.639v0.926
			c0,0.492-0.244,0.737-0.731,0.737h-1.913c-0.239,0-0.42-0.066-0.544-0.202c-0.125-0.133-0.187-0.31-0.187-0.528v-0.731
			c0-1.077,0.104-1.957,0.311-2.642c0.208-0.685,0.546-1.21,1.016-1.577c0.468-0.369,1.006-0.618,1.614-0.747
			c0.607-0.129,1.385-0.194,2.333-0.194h1.183c1.204,0,2.171,0.079,2.9,0.235c0.73,0.157,1.303,0.441,1.718,0.853
			c0.416,0.412,0.693,0.902,0.831,1.471c0.139,0.569,0.208,1.327,0.208,2.276v13.143c0,0.96-0.099,1.761-0.295,2.402
			c-0.197,0.641-0.509,1.144-0.934,1.51c-0.426,0.364-0.927,0.619-1.501,0.767c-0.576,0.146-1.289,0.218-2.14,0.218h-2.22
			c-0.746,0-1.357-0.021-1.836-0.062c-0.479-0.041-0.937-0.128-1.374-0.259c-0.437-0.13-0.774-0.309-1.015-0.534
			c-0.239-0.224-0.45-0.529-0.631-0.917c-0.181-0.387-0.306-0.85-0.375-1.389c-0.069-0.537-0.104-1.194-0.104-1.969L58.003,23.028z"
			/>
		<path fill="#373F51" d="M78.727,27.327v-4.299c0-0.22,0.062-0.396,0.187-0.533c0.125-0.135,0.307-0.204,0.544-0.204h1.866
			c0.498,0,0.746,0.243,0.746,0.728v3.356c0,0.947,0.099,1.568,0.296,1.862c0.197,0.293,0.689,0.439,1.478,0.439h1.151
			c0.704,0,1.185-0.139,1.438-0.422c0.253-0.28,0.381-0.853,0.381-1.718l0.031-4.918c0-0.759-0.136-1.499-0.404-2.216
			c-0.27-0.72-0.602-1.343-0.995-1.875c-0.394-0.53-0.822-1.09-1.283-1.679c-0.462-0.588-0.89-1.141-1.283-1.663
			c-0.394-0.52-0.723-1.124-0.987-1.81c-0.265-0.688-0.397-1.39-0.397-2.108V9.533c0-0.219,0.066-0.398,0.194-0.539
			c0.13-0.141,0.309-0.212,0.537-0.212h1.882c0.487,0,0.73,0.251,0.73,0.75v0.704c0,0.635,0.184,1.304,0.552,2.006
			c0.369,0.702,0.814,1.387,1.339,2.053c0.522,0.667,1.046,1.361,1.57,2.085c0.523,0.722,0.969,1.545,1.337,2.467
			c0.368,0.922,0.552,1.859,0.552,2.814l-0.03,4.793c-0.011,0.671-0.036,1.229-0.078,1.675s-0.129,0.873-0.265,1.28
			c-0.135,0.41-0.316,0.731-0.544,0.967c-0.229,0.236-0.532,0.445-0.91,0.63c-0.378,0.183-0.831,0.312-1.36,0.385
			S85.834,31.5,85.088,31.5h-1.307c-0.913,0-1.653-0.049-2.224-0.149c-0.57-0.098-1.084-0.294-1.54-0.588
			c-0.456-0.292-0.785-0.716-0.987-1.271C78.828,28.938,78.727,28.217,78.727,27.327z"/>
		<path fill="#373F51" d="M99.031,25.962V13.398c0-0.803,0.093-1.5,0.279-2.089c0.187-0.589,0.426-1.054,0.716-1.392
			c0.291-0.338,0.661-0.607,1.111-0.805c0.451-0.198,0.892-0.33,1.322-0.392c0.43-0.063,0.93-0.094,1.5-0.094
			c0.907,0,1.627,0.159,2.155,0.477c0.53,0.318,0.983,0.778,1.361,1.381h0.186c0.303-0.532,0.755-0.975,1.355-1.328
			c0.601-0.353,1.209-0.529,1.825-0.529c0.373,0,0.671,0.004,0.893,0.008c0.223,0.006,0.508,0.023,0.854,0.055
			c0.347,0.031,0.624,0.078,0.83,0.139c0.207,0.062,0.451,0.151,0.729,0.265c0.28,0.115,0.503,0.252,0.668,0.413
			c0.166,0.161,0.341,0.368,0.527,0.623c0.188,0.253,0.328,0.541,0.428,0.863c0.097,0.321,0.182,0.7,0.248,1.135
			c0.066,0.436,0.102,0.918,0.102,1.447v10.471c0,0.486-0.245,0.731-0.731,0.731h-1.944c-0.237,0-0.42-0.069-0.544-0.204
			s-0.187-0.312-0.187-0.529V23.73l0.031-9.752c0-0.488-0.023-0.889-0.07-1.201c-0.046-0.312-0.105-0.559-0.178-0.74
			c-0.071-0.183-0.196-0.316-0.371-0.398c-0.176-0.084-0.347-0.135-0.512-0.157c-0.164-0.02-0.412-0.031-0.742-0.031
			c-0.578,0-0.961,0.182-1.146,0.545c-0.187,0.365-0.278,0.951-0.278,1.763v5.594c0,0.495-0.265,0.742-0.792,0.742h-2.21
			c-0.259,0-0.455-0.069-0.591-0.205c-0.135-0.136-0.202-0.317-0.202-0.537V13.82c0-0.916-0.098-1.541-0.295-1.873
			s-0.575-0.498-1.135-0.498c-0.623,0-1.081,0.127-1.377,0.382c-0.295,0.255-0.443,0.798-0.443,1.631v12.185
			c0,1.872,0.871,2.808,2.613,2.808h8.428c0.135,0,0.244,0.065,0.326,0.196c0.083,0.13,0.126,0.317,0.126,0.566v1.299
			c0,0.51-0.245,0.763-0.731,0.763h-8.366c-1.855,0-3.282-0.459-4.276-1.377C99.528,28.986,99.031,27.672,99.031,25.962z"/>
		<path fill="#373F51" d="M124.544,23.028c0-0.22,0.062-0.396,0.187-0.533c0.124-0.135,0.307-0.204,0.544-0.204h1.976
			c0.487,0,0.729,0.247,0.729,0.737v3.107c0,1.025,0.115,1.706,0.343,2.039c0.229,0.336,0.711,0.502,1.446,0.502h1.773
			c0.663,0,1.107-0.166,1.329-0.502c0.224-0.333,0.335-0.945,0.335-1.836V13.552c0-0.847-0.135-1.408-0.405-1.687
			c-0.269-0.276-0.87-0.416-1.804-0.416h-0.855c-0.662,0-1.135,0.165-1.415,0.494c-0.279,0.329-0.436,0.876-0.466,1.639v0.926
			c0,0.492-0.243,0.737-0.731,0.737h-1.912c-0.239,0-0.42-0.066-0.545-0.202c-0.125-0.133-0.187-0.31-0.187-0.528v-0.731
			c0-1.077,0.104-1.957,0.312-2.642c0.207-0.685,0.544-1.21,1.015-1.577c0.469-0.369,1.006-0.618,1.614-0.747
			c0.606-0.129,1.385-0.194,2.332-0.194h1.185c1.203,0,2.17,0.079,2.899,0.235c0.73,0.157,1.303,0.441,1.719,0.853
			c0.416,0.412,0.692,0.902,0.83,1.471c0.141,0.569,0.208,1.327,0.208,2.276v13.143c0,0.96-0.099,1.761-0.296,2.402
			c-0.196,0.641-0.507,1.144-0.933,1.51c-0.427,0.364-0.928,0.619-1.503,0.767c-0.574,0.146-1.288,0.218-2.14,0.218h-2.22
			c-0.745,0-1.357-0.021-1.837-0.062c-0.479-0.041-0.937-0.128-1.373-0.259c-0.438-0.13-0.775-0.309-1.015-0.534
			c-0.239-0.224-0.449-0.529-0.63-0.917c-0.182-0.387-0.308-0.85-0.375-1.389c-0.07-0.537-0.105-1.194-0.105-1.969L124.544,23.028z"
			/>
	</g>
</g>
</svg>
