<?xml version="1.0" encoding="utf-8"?>
<!-- Generator: Adobe Illustrator 16.0.0, SVG Export Plug-In . SVG Version: 6.00 Build 0)  -->
<!DOCTYPE svg PUBLIC "-//W3C//DTD SVG 1.1//EN" "http://www.w3.org/Graphics/SVG/1.1/DTD/svg11.dtd">
<svg version="1.1" id="Layer_1" xmlns="http://www.w3.org/2000/svg" xmlns:xlink="http://www.w3.org/1999/xlink" x="0px" y="0px"
	 width="150px" height="52px" viewBox="0 0 150 52" enable-background="new 0 0 150 52" xml:space="preserve">
<rect x="1" y="1" fill="#373F51" width="4" height="50"/>
<g>
	<g>
		<path fill="#373F51" d="M48.315,8.271L48.09,11.13c-1.479-0.064-3.697-0.097-5.53-0.097c-1.896,0-2.54,0.128-2.54,2.505
			c0,1.96,0.547,2.41,1.801,2.956l3.344,1.317c2.895,1.125,3.762,3.212,3.762,6.457c0,5.043-1.736,6.2-6.688,6.2
			c-1.061,0-3.312-0.063-6.014-0.707l0.225-2.955c3.635,0.097,4.791,0.129,5.854,0.129c2.09,0,2.572-0.418,2.572-2.699
			c0-2.023-0.547-2.409-1.641-2.923l-3.536-1.413C36.965,18.839,36,16.783,36,13.475c0-5.076,1.897-5.943,6.432-5.943
			C44.199,7.532,46.321,7.66,48.315,8.271z"/>
		<path fill="#373F51" d="M66.001,30.082h-3.987V19.931h-6.238v10.151h-3.986V7.917h3.986v8.706h6.238V7.917h3.987V30.082z"/>
		<path fill="#373F51" d="M81.758,29.891c-2.412,0.257-5.434,0.257-8.135,0.257c-2.541,0-4.083-1.606-4.115-4.209V12.061
			c0.032-2.602,1.607-4.208,4.115-4.208c2.701,0,5.723,0,8.135,0.257l-0.193,3.084h-6.912c-0.869,0-1.094,0.481-1.094,1.862v3.888
			H80.6v3.083h-7.041v4.947c0,1.381,0.225,1.862,1.094,1.862h6.912L81.758,29.891z"/>
		<path fill="#373F51" d="M88.254,23.818l-1.318,6.264h-4.084l5.113-21.104c0.193-0.675,0.738-1.061,1.414-1.061h3.762
			c0.676,0,1.223,0.386,1.383,1.061l5.145,21.104h-4.084l-1.318-6.264H88.254z M91.982,12.864c-0.127-0.61-0.32-1.285-0.385-1.895
			h-0.709c-0.062,0.61-0.223,1.285-0.352,1.895L88.93,20.51h4.629L91.982,12.864z"/>
		<path fill="#373F51" d="M114.814,30.082h-2.926l-0.354-2.088c-0.9,1.124-2.67,2.506-5.178,2.506
			c-3.955,0-5.594-3.598-5.594-11.597c0-8.866,2.121-11.403,8.166-11.403c1.77,0,3.635,0.193,5.273,0.739l-0.322,2.987
			c-1.703-0.128-3.664-0.193-4.791-0.193c-3.086,0-4.115,0.867-4.115,8.095c0,5.942,0.611,7.903,2.732,7.903
			c1.256,0,2.283-0.676,3.281-1.446v-8.288h3.826V30.082z"/>
		<path fill="#373F51" d="M132.244,30.082h-3.988V19.931h-6.238v10.151h-3.986V7.917h3.986v8.706h6.238V7.917h3.988V30.082z"/>
		<path fill="#373F51" d="M148,29.891c-2.412,0.257-5.436,0.257-8.135,0.257c-2.541,0-4.084-1.606-4.117-4.209V12.061
			c0.033-2.602,1.607-4.208,4.117-4.208c2.699,0,5.723,0,8.135,0.257l-0.191,3.084h-6.914c-0.869,0-1.094,0.481-1.094,1.862v3.888
			h7.041v3.083h-7.041v4.947c0,1.381,0.225,1.862,1.094,1.862h6.914L148,29.891z"/>
	</g>
</g>
<polygon fill="#009B72" points="28.021,51 11.021,44.008 11.021,7.991 28.021,1 "/>
<circle fill="#FFFFFF" cx="14.021" cy="25.25" r="1.5"/>
<g>
	<g>
		<path fill="#444D5E" d="M42.91,40.529c0,4.135-0.889,5.482-3.355,5.482c-1.174,0-2.151-0.062-3.055-0.14V35.186
			c0.903-0.078,1.866-0.14,3.055-0.14C42.021,35.046,42.91,36.394,42.91,40.529z M41.511,40.529c0-3.237-0.481-4.307-1.956-4.307
			c-0.662,0-1.219,0.016-1.73,0.031v8.534c0.497,0.016,1.084,0.031,1.73,0.031C41.029,44.819,41.511,43.766,41.511,40.529z"/>
		<path fill="#444D5E" d="M45.469,35.123c0.256,0,0.376,0.155,0.376,0.403v0.884c0,0.277-0.12,0.402-0.376,0.402h-0.604
			c-0.239,0-0.359-0.125-0.359-0.402v-0.884c0-0.248,0.12-0.403,0.359-0.403H45.469z M44.535,45.872v-7.543h1.279v7.543H44.535z"/>
		<path fill="#444D5E" d="M52.239,38.376l-0.105,0.96c-0.753-0.03-1.505-0.076-2.257-0.076c-1.037-0.017-1.324,0.015-1.324,0.96
			c0,0.789,0.271,0.913,0.828,1.084l1.641,0.494c0.963,0.295,1.398,0.791,1.398,2.075c0,1.86-0.812,2.17-2.617,2.17
			c-0.377,0-1.34-0.016-2.378-0.217l0.09-0.96c0.511,0.046,1.264,0.076,2.017,0.062c1.279,0,1.655-0.154,1.655-1.055
			c0-0.741-0.347-0.882-0.888-1.053l-1.625-0.496c-0.994-0.293-1.355-0.867-1.355-2.104c0-1.751,0.678-2.106,2.363-2.075
			C50.465,38.159,51.502,38.237,52.239,38.376z"/>
		<path fill="#444D5E" d="M58.424,38.5l-0.166,0.853c-0.557-0.063-1.189-0.093-1.625-0.093c-1.294,0-1.73,0.635-1.73,2.833
			c0,2.214,0.437,2.85,1.73,2.85c0.377,0,1.129-0.03,1.76-0.154l0.121,0.882c-0.603,0.265-1.369,0.388-2.092,0.388
			c-2.091,0-2.857-1.053-2.857-3.965s0.781-3.948,2.857-3.948C56.979,38.145,57.807,38.221,58.424,38.5z"/>
		<path fill="#444D5E" d="M65.134,42.109c0,2.896-0.767,3.965-2.844,3.965c-2.091,0-2.873-1.069-2.873-3.965
			c0-2.881,0.782-3.965,2.873-3.965C64.367,38.145,65.134,39.229,65.134,42.109z M60.756,42.109c0,2.197,0.361,2.85,1.534,2.85
			c1.174,0,1.535-0.652,1.535-2.85c0-2.201-0.361-2.85-1.535-2.85C61.117,39.26,60.756,39.908,60.756,42.109z"/>
		<path fill="#444D5E" d="M69.904,45.548c-0.075,0.2-0.227,0.324-0.437,0.324H68.34c-0.196,0-0.361-0.124-0.422-0.324l-2.092-7.219
			h1.354l1.325,5.282c0.12,0.434,0.226,0.897,0.315,1.316h0.166l0.33-1.316l1.325-5.282h1.354L69.904,45.548z"/>
		<path fill="#444D5E" d="M77.849,44.757l0.12,0.884c-0.602,0.294-1.67,0.417-2.377,0.417c-2.091,0-2.889-1.084-2.889-3.979
			c0-2.958,0.843-3.934,2.783-3.934c1.866,0,2.634,0.835,2.634,2.462c0,1.348-0.482,2.138-1.475,2.138h-2.604
			c0.105,1.796,0.587,2.198,1.716,2.198C76.344,44.942,77.187,44.866,77.849,44.757z M74.027,41.722h2.271
			c0.466,0,0.542-0.559,0.526-1.115c0.016-0.96-0.301-1.347-1.279-1.347C74.418,39.26,74.058,39.815,74.027,41.722z"/>
		<path fill="#444D5E" d="M83.266,39.382h-0.392c-0.602,0-1.174,0.341-2.046,0.931v5.56h-1.279v-7.543h0.993l0.121,1.179
			c0.812-0.869,1.685-1.363,2.468-1.363h0.285L83.266,39.382z"/>
		<path fill="#444D5E" d="M85.462,35.123c0.257,0,0.376,0.155,0.376,0.403v0.884c0,0.277-0.119,0.402-0.376,0.402H84.86
			c-0.241,0-0.36-0.125-0.36-0.402v-0.884c0-0.248,0.119-0.403,0.36-0.403H85.462z M84.529,45.872v-7.543h1.279v7.543H84.529z"/>
		<path fill="#444D5E" d="M92.985,40.22v5.652h-1.264V40.59c0-1.006-0.181-1.33-0.691-1.33c-0.647,0-1.234,0.434-2.138,1.161
			l0.016,5.451h-1.279v-7.543h1.083l0.076,1.162c0.872-0.853,1.729-1.347,2.587-1.347C92.429,38.145,92.985,38.855,92.985,40.22z"/>
		<path fill="#444D5E" d="M99.486,39.15c0.18,0.357,0.255,0.82,0.255,1.394c0,1.658-0.632,2.401-2.603,2.401
			c-0.451,0-0.827-0.032-1.144-0.108c-0.181,0.48-0.136,1.146,0.361,1.255l2.182,0.448c1.144,0.233,1.58,0.853,1.58,2.169
			c0,1.719-0.738,2.291-2.905,2.291c-2.181,0-2.933-0.572-2.933-2.229c0-0.944,0.271-1.349,1.022-1.858
			c-0.662-0.542-0.541-1.827,0.015-2.354c-0.57-0.388-0.797-1.037-0.797-2.014c0-1.688,0.647-2.399,2.618-2.399
			c0.572,0,1.022,0.061,1.385,0.185h1.911l-0.077,0.729L99.486,39.15z M97.86,45.515l-1.744-0.324
			c-0.498,0.543-0.588,0.867-0.588,1.439c0,1.023,0.316,1.255,1.61,1.255c1.43,0,1.73-0.247,1.73-1.255
			C98.869,45.826,98.673,45.67,97.86,45.515z M98.554,40.544c0-1.007-0.331-1.394-1.415-1.394c-1.083,0-1.444,0.387-1.444,1.394
			c0,0.992,0.361,1.394,1.444,1.394C98.223,41.938,98.554,41.536,98.554,40.544z"/>
		<path fill="#444D5E" d="M109.341,35.31l-0.09,0.991c-0.691-0.047-1.625-0.078-2.408-0.078c-1.112,0-1.52,0.047-1.52,1.627
			c0,1.177,0.301,1.518,0.979,1.751l1.641,0.541c1.309,0.402,1.7,1.349,1.7,3.004c0,2.464-0.829,2.912-2.89,2.912
			c-0.526,0-1.475-0.03-2.648-0.295l0.092-1.006c1.579,0.062,1.984,0.093,2.587,0.078c1.188,0,1.52-0.248,1.52-1.72
			c0-1.238-0.301-1.532-0.948-1.766l-1.7-0.558c-1.219-0.388-1.654-1.347-1.654-2.974c0-2.494,0.857-2.818,2.783-2.818
			C107.565,35.015,108.469,35.076,109.341,35.31z"/>
		<path fill="#444D5E" d="M115.977,44.757l0.12,0.884c-0.602,0.294-1.67,0.417-2.377,0.417c-2.092,0-2.889-1.084-2.889-3.979
			c0-2.958,0.842-3.934,2.783-3.934c1.866,0,2.633,0.835,2.633,2.462c0,1.348-0.48,2.138-1.475,2.138h-2.603
			c0.105,1.796,0.587,2.198,1.716,2.198C114.472,44.942,115.314,44.866,115.977,44.757z M112.154,41.722h2.272
			c0.467,0,0.541-0.559,0.527-1.115c0.014-0.96-0.302-1.347-1.279-1.347C112.546,39.26,112.185,39.815,112.154,41.722z"/>
		<path fill="#444D5E" d="M121.393,39.382h-0.391c-0.603,0-1.174,0.341-2.046,0.931v5.56h-1.279v-7.543h0.993l0.12,1.179
			c0.812-0.869,1.686-1.363,2.467-1.363h0.286L121.393,39.382z"/>
		<path fill="#444D5E" d="M125.982,45.548c-0.075,0.2-0.226,0.324-0.437,0.324h-1.129c-0.196,0-0.36-0.124-0.421-0.324l-2.091-7.219
			h1.354l1.325,5.282c0.119,0.434,0.225,0.897,0.315,1.316h0.165l0.33-1.316l1.324-5.282h1.354L125.982,45.548z"/>
		<path fill="#444D5E" d="M130.135,35.123c0.256,0,0.376,0.155,0.376,0.403v0.884c0,0.277-0.12,0.402-0.376,0.402h-0.603
			c-0.239,0-0.36-0.125-0.36-0.402v-0.884c0-0.248,0.121-0.403,0.36-0.403H130.135z M129.202,45.872v-7.543h1.278v7.543H129.202z"/>
		<path fill="#444D5E" d="M136.876,38.5l-0.165,0.853c-0.558-0.063-1.189-0.093-1.626-0.093c-1.293,0-1.729,0.635-1.729,2.833
			c0,2.214,0.437,2.85,1.729,2.85c0.376,0,1.129-0.03,1.762-0.154l0.119,0.882c-0.602,0.265-1.368,0.388-2.091,0.388
			c-2.092,0-2.858-1.053-2.858-3.965s0.782-3.948,2.858-3.948C135.432,38.145,136.259,38.221,136.876,38.5z"/>
		<path fill="#444D5E" d="M143.016,44.757l0.12,0.884c-0.602,0.294-1.67,0.417-2.377,0.417c-2.093,0-2.89-1.084-2.89-3.979
			c0-2.958,0.843-3.934,2.784-3.934c1.865,0,2.633,0.835,2.633,2.462c0,1.348-0.481,2.138-1.475,2.138h-2.603
			c0.105,1.796,0.586,2.198,1.715,2.198C141.512,44.942,142.354,44.866,143.016,44.757z M139.193,41.722h2.272
			c0.467,0,0.541-0.559,0.526-1.115c0.015-0.96-0.301-1.347-1.278-1.347C139.585,39.26,139.223,39.815,139.193,41.722z"/>
		<path fill="#444D5E" d="M149.318,38.376l-0.104,0.96c-0.752-0.03-1.505-0.076-2.257-0.076c-1.037-0.017-1.323,0.015-1.323,0.96
			c0,0.789,0.271,0.913,0.826,1.084l1.641,0.494c0.964,0.295,1.399,0.791,1.399,2.075c0,1.86-0.812,2.17-2.618,2.17
			c-0.377,0-1.339-0.016-2.377-0.217l0.09-0.96c0.512,0.046,1.264,0.076,2.017,0.062c1.279,0,1.655-0.154,1.655-1.055
			c0-0.741-0.347-0.882-0.888-1.053l-1.626-0.496c-0.992-0.293-1.354-0.867-1.354-2.104c0-1.751,0.678-2.106,2.362-2.075
			C147.544,38.159,148.582,38.237,149.318,38.376z"/>
	</g>
</g>
</svg>
