<?xml version="1.0" encoding="utf-8"?>
<!-- Generator: Adobe Illustrator 16.0.0, SVG Export Plug-In . SVG Version: 6.00 Build 0)  -->
<!DOCTYPE svg PUBLIC "-//W3C//DTD SVG 1.1//EN" "http://www.w3.org/Graphics/SVG/1.1/DTD/svg11.dtd">
<svg version="1.1" id="Layer_1" xmlns="http://www.w3.org/2000/svg" xmlns:xlink="http://www.w3.org/1999/xlink" x="0px" y="0px"
	 width="150px" height="57px" viewBox="-47.955 -28.757 150 57" enable-background="new -47.955 -28.757 150 57"
	 xml:space="preserve">
<g>
	<path fill="#231F20" d="M-10.788-10.61l9.27,4.582l7.448-8.303l2.065,2.049l-8.978,9.861l-10.342-5.232l-2.212,11.461l11.831,6.097
		c0.392,0.201,0.46,0.247,0.693,0.454c0.472,0.419,0.532,0.659,0.464,1.348c-0.038,0.363-0.031,0.451,0.053,0.881l2.351,11.829
		l5.292-1.351l0.718,2.936l-8.282,2.006l-3.167-15.571l-10.469-5.594c0,0-0.599,3.971-1.166,6.675
		c-1.085,5.192-3.415,9.397-7.552,12.272c-2.418,1.684-4.277,2.168-7.114,2.372c-6.44,0.468-11.029-1.065-14.928-6.235
		c-3.645-4.833-4.297-12.396-1.021-17.763c0.487-0.795,3.208-3.876,4.014-4.543c4.341-3.583,10.82-4.586,16.668-2.1
		c1.911,0.812,5.809,3.758,5.918,4.698c0.108,0.929-0.75,4.035-0.75,4.035s-0.878-1.321-1.564-2.226
		c-5.379-7.08-15.78-6.046-20.681,0.272c-4.477,5.771-3.417,14.035,2.449,18.507c7.244,5.523,16.681,2.254,20.206-5.493
		c0.468-1.025,0.768-2.015,1.088-3.252c1.11-4.282,4.458-23.03,4.458-23.03l-8.953-4.479l-7.071,7.713c0,0-1.005-0.522-1.701-1.152
		c-0.321-0.292-0.577-0.605-0.577-0.605l8.414-9.359h0.667l9.701,4.825l1.253-5.993c0,0-1.083-0.569-1.701-1.003
		c-1.512-1.065-2.166-3.827-1.837-5.246c0.875-3.767,5.053-5.84,8.572-3.501c3.189,2.123,3.491,7.249-0.257,9.209
		c-0.933,0.484-1.832,0.629-2.106,1.076C-10.007-16.851-10.788-10.61-10.788-10.61"/>
	<path fill="#231F20" d="M43.129-27.263c-0.128,0-0.324-0.011-0.588-0.027c-0.258-0.015-0.453-0.02-0.587-0.018h-0.184
		c0.007,0.185,0.029,0.486,0.07,0.908c0.038,0.388,0.056,0.691,0.056,0.905c0,0.048,0.007,0.119,0.019,0.219
		c0.013,0.094,0.018,0.166,0.018,0.215c0,0.091-0.019,0.17-0.056,0.237c-0.048,0.088-0.122,0.131-0.224,0.131
		c-0.069,0-0.132-0.018-0.187-0.057c-0.055-0.036-0.082-0.086-0.082-0.146c0-0.018,0.005-0.047,0.012-0.089
		c0.009-0.042,0.014-0.073,0.014-0.091c0-0.068-0.006-0.167-0.017-0.3c-0.011-0.131-0.017-0.232-0.017-0.297
		c0-0.194-0.02-0.465-0.06-0.816c-0.04-0.379-0.065-0.648-0.069-0.814l-0.234,0.003c-0.377,0-0.672-0.021-0.887-0.064
		c-0.139-0.029-0.209-0.096-0.209-0.202c0-0.055,0.023-0.104,0.067-0.146c0.052-0.046,0.118-0.067,0.198-0.062
		c0.061,0.001,0.197,0.016,0.412,0.034c0.172,0.016,0.312,0.025,0.418,0.025c0.104,0,0.259-0.001,0.469-0.005
		c0.209-0.005,0.366-0.007,0.469-0.007c0.133,0,0.328,0.01,0.589,0.025c0.261,0.014,0.456,0.018,0.589,0.018
		c0.073,0,0.136,0.022,0.186,0.062s0.074,0.089,0.074,0.15c0,0.058-0.024,0.107-0.074,0.147
		C43.265-27.286,43.202-27.263,43.129-27.263"/>
	<path fill="#231F20" d="M45.721-24.581c-0.121,0-0.202-0.053-0.239-0.155c-0.04-0.112-0.077-0.268-0.108-0.471
		c-0.031-0.198-0.047-0.358-0.047-0.481c0-0.038,0.003-0.089,0.006-0.162c0.005-0.07,0.006-0.126,0.006-0.159
		c0-0.256-0.08-0.381-0.241-0.381c-0.218,0-0.412,0.077-0.584,0.232c-0.088,0.078-0.208,0.231-0.361,0.457
		c0,0.512-0.028,0.819-0.082,0.912c-0.048,0.082-0.123,0.125-0.226,0.125c-0.068,0-0.131-0.019-0.184-0.059
		c-0.053-0.035-0.081-0.083-0.081-0.134c0-0.021,0.008-0.05,0.023-0.09c0.015-0.035,0.023-0.132,0.028-0.296l0.008-0.299
		l0.008-1.487c0.013-0.17,0.018-0.282,0.018-0.34c0-0.069-0.008-0.134-0.024-0.196c-0.016-0.062-0.023-0.124-0.023-0.193
		c0-0.056,0.024-0.103,0.074-0.139c0.05-0.037,0.11-0.055,0.183-0.055c0.141,0,0.225,0.061,0.248,0.178
		c0.027,0.131,0.041,0.248,0.041,0.353c0,0.144-0.006,0.29-0.019,0.446c-0.01,0.148-0.014,0.296-0.013,0.443l0.003,0.177
		c0.142-0.148,0.292-0.259,0.451-0.333c0.161-0.073,0.331-0.107,0.512-0.107c0.286,0,0.481,0.072,0.588,0.218
		c0.075,0.104,0.119,0.274,0.129,0.516l0.021,0.389l0.052,0.42c0.023,0.158,0.053,0.297,0.088,0.416
		c0.007,0.026,0.009,0.042,0.009,0.06c0,0.055-0.024,0.101-0.076,0.14C45.855-24.601,45.792-24.581,45.721-24.581"/>
	<path fill-rule="evenodd" clip-rule="evenodd" fill="#231F20" d="M47.814-24.614c-0.388,0-0.702-0.078-0.941-0.229
		c-0.264-0.17-0.395-0.404-0.395-0.71c0-0.351,0.107-0.643,0.324-0.881c0.235-0.258,0.55-0.389,0.943-0.389
		c0.285,0,0.518,0.038,0.697,0.115c0.223,0.089,0.333,0.235,0.333,0.426c0,0.136-0.099,0.262-0.29,0.37
		c-0.088,0.049-0.27,0.125-0.547,0.228l-0.984,0.365c0.096,0.114,0.215,0.197,0.359,0.253c0.143,0.055,0.31,0.085,0.5,0.085
		c0.119,0,0.259-0.018,0.418-0.051c0.203-0.046,0.333-0.104,0.392-0.175c0.059-0.072,0.12-0.111,0.188-0.111
		c0.061,0,0.113,0.019,0.16,0.057c0.049,0.033,0.07,0.073,0.07,0.122c0,0.152-0.153,0.28-0.46,0.39
		C48.32-24.662,48.064-24.614,47.814-24.614 M47.746-26.458c-0.211,0-0.385,0.062-0.523,0.19c-0.139,0.13-0.243,0.321-0.311,0.578
		l0.79-0.298c0.31-0.12,0.532-0.222,0.665-0.31C48.219-26.404,48.012-26.458,47.746-26.458"/>
	<path fill-rule="evenodd" clip-rule="evenodd" fill="#231F20" d="M40.167,7.633c-0.283,0.024-0.784,0.035-1.509,0.035
		c-0.173,0-0.26-0.062-0.26-0.181c0-0.124,0.087-0.184,0.26-0.184c0.166,0,0.411-0.006,0.739-0.018
		c0.329-0.011,0.573-0.018,0.739-0.018c0.184,0,0.277,0.062,0.277,0.184C40.414,7.561,40.33,7.619,40.167,7.633"/>
	<path fill-rule="evenodd" clip-rule="evenodd" fill="#231F20" d="M43.235,5.458c-0.505,0-0.784,0.263-0.845,0.787l-0.01,0.144
		c0.354-0.02,0.582-0.028,0.686-0.028c0.33,0,0.495,0.076,0.495,0.234c0,0.113-0.081,0.179-0.243,0.204
		c-0.07,0.006-0.152,0.012-0.247,0.008c-0.095-0.003-0.334,0.008-0.718,0.033L42.328,7.37c0,0.102,0.004,0.247,0.014,0.438
		c0.007,0.19,0.012,0.336,0.012,0.433c0,0.297-0.023,0.528-0.069,0.691c-0.035,0.127-0.132,0.188-0.289,0.188
		c-0.086,0-0.158-0.021-0.218-0.062c-0.059-0.04-0.091-0.095-0.091-0.156c0-0.015,0.003-0.029,0.007-0.046
		c0.043-0.202,0.064-0.422,0.064-0.662l-0.009-0.64V6.875c-0.259,0.016-0.425,0.027-0.491,0.027c-0.211,0-0.315-0.077-0.315-0.23
		c0-0.151,0.183-0.234,0.546-0.241l0.298-0.009c0.006-0.087,0.022-0.205,0.047-0.353c0.055-0.348,0.171-0.601,0.349-0.767
		c0.217-0.196,0.554-0.297,1.013-0.297c0.297,0,0.444,0.074,0.444,0.228C43.639,5.385,43.504,5.458,43.235,5.458"/>
	<path fill-rule="evenodd" clip-rule="evenodd" fill="#231F20" d="M45.551,8.885c-0.348,0-0.648-0.098-0.899-0.288
		c-0.281-0.219-0.428-0.508-0.442-0.872c-0.012-0.353,0.107-0.661,0.355-0.929C44.855,6.48,45.26,6.32,45.777,6.32
		c0.417,0,0.731,0.146,0.944,0.429c0.171,0.229,0.253,0.507,0.247,0.832c-0.006,0.344-0.127,0.641-0.361,0.887
		C46.341,8.744,45.989,8.885,45.551,8.885 M45.738,6.796c-0.305-0.002-0.543,0.107-0.714,0.326c-0.134,0.176-0.202,0.38-0.202,0.603
		c0,0.229,0.083,0.405,0.247,0.531c0.136,0.104,0.298,0.156,0.481,0.156c0.217,0,0.402-0.062,0.558-0.18
		c0.177-0.132,0.271-0.308,0.281-0.527C46.419,7.1,46.201,6.798,45.738,6.796"/>
	<path fill-rule="evenodd" clip-rule="evenodd" fill="#231F20" d="M50.16,7.019c-0.014,0.192-0.117,0.294-0.312,0.294
		c-0.178,0-0.268-0.081-0.268-0.234c0-0.029-0.003-0.086-0.009-0.162l-0.009-0.198c-0.329,0.029-0.593,0.098-0.789,0.208
		c-0.186,0.104-0.339,0.255-0.462,0.459l0.007,1.283c0,0.155-0.103,0.235-0.308,0.235c-0.184,0-0.273-0.08-0.273-0.235V7.023
		c0-0.048,0.001-0.127,0.007-0.229c0.005-0.104,0.009-0.183,0.009-0.233c0-0.155,0.091-0.236,0.273-0.236
		c0.203,0,0.307,0.128,0.309,0.389c0.398-0.29,0.84-0.433,1.326-0.433c0.168,0,0.294,0.048,0.377,0.141
		c0.082,0.098,0.125,0.24,0.125,0.433C50.164,6.933,50.163,6.991,50.16,7.019"/>
	<path fill-rule="evenodd" clip-rule="evenodd" fill="#231F20" d="M52.484,7.633c-0.283,0.024-0.785,0.035-1.508,0.035
		c-0.175,0-0.263-0.062-0.263-0.181c0-0.124,0.088-0.184,0.263-0.184c0.164,0,0.41-0.006,0.737-0.018
		c0.328-0.011,0.574-0.018,0.739-0.018c0.184,0,0.275,0.062,0.275,0.184C52.729,7.561,52.647,7.619,52.484,7.633"/>
	<polygon fill-rule="evenodd" clip-rule="evenodd" fill="#EE3E43" points="-18.127,-27.384 -47.942,-27.384 -47.942,-24.5 
		-20.768,-24.5 	"/>
	<polygon fill-rule="evenodd" clip-rule="evenodd" fill="#F9A96F" points="-25.015,-19.74 -47.94,-19.74 -47.94,-16.851 
		-27.643,-16.851 	"/>
	<polygon fill-rule="evenodd" clip-rule="evenodd" fill="#6FBBE4" points="-32.226,-11.899 -47.94,-11.899 -47.94,-9.011 
		-34.901,-9.011 	"/>
	<path fill-rule="evenodd" clip-rule="evenodd" fill="#EE3E43" d="M28.165-12.124c-0.288,0-0.524-0.114-0.712-0.336
		c-0.16-0.193-0.303-0.513-0.432-0.96l-0.288-1.037c-0.219-0.64-0.564-2.053-1.039-4.238l-1.599,3.623l-0.473,1.141
		c-0.192,0.453-0.391,0.821-0.6,1.109c-0.224,0.307-0.525,0.456-0.903,0.456c-0.314,0-0.563-0.126-0.743-0.382
		c-0.118-0.168-0.225-0.381-0.32-0.643l-0.232-0.668c-0.537-1.413-1.013-2.924-1.423-4.542l-0.288,1.079l-1.031,3.168
		c-0.042,0.375-0.176,0.924-0.4,1.653c-0.16,0.313-0.424,0.469-0.791,0.469c-0.262,0-0.47-0.069-0.623-0.209
		c-0.135-0.12-0.2-0.269-0.2-0.445c0-0.669,0.184-1.49,0.552-2.462l0.879-2.422l0.464-1.893c0.235-0.883,0.481-1.465,0.743-1.735
		c0.214-0.231,0.478-0.348,0.792-0.348c0.347,0,0.604,0.149,0.776,0.443c0.207,0.357,0.433,1.083,0.672,2.182
		c0.281,1.318,0.721,2.743,1.318,4.277c0.789-1.541,1.473-3.146,2.047-4.818l0.24-0.877c0.097-0.354,0.221-0.634,0.376-0.852
		c0.208-0.296,0.493-0.446,0.855-0.446c0.459,0,0.808,0.332,1.047,0.998c0.087,0.228,0.19,0.702,0.313,1.419
		c0.314,1.81,0.705,3.354,1.174,4.635l0.393,1.033c0.202,0.552,0.304,0.894,0.304,1.02c0,0.174-0.087,0.32-0.259,0.436
		C28.58-12.181,28.383-12.124,28.165-12.124"/>
	<path fill-rule="evenodd" clip-rule="evenodd" fill="#231F20" d="M34.354-12.244c-1.094,0-2.004-0.249-2.735-0.746
		c-0.768-0.518-1.15-1.206-1.15-2.06c0-0.812,0.359-1.653,1.078-2.517c0.801-0.963,1.701-1.443,2.703-1.443
		c0.523,0,1.106,0.094,1.751,0.276c0.817,0.238,1.224,0.525,1.224,0.866c0,0.155-0.066,0.286-0.2,0.405
		c-0.132,0.118-0.298,0.177-0.495,0.177c-0.155,0-0.289-0.033-0.404-0.106c-0.113-0.069-0.225-0.137-0.331-0.204
		c-0.314-0.19-0.829-0.283-1.544-0.283c-0.544,0-1.082,0.364-1.615,1.093c-0.484,0.667-0.729,1.248-0.729,1.735
		c0,0.529,0.241,0.943,0.721,1.25c0.447,0.283,1.023,0.424,1.728,0.424c0.319,0,0.662-0.06,1.022-0.191l0.93-0.373
		c0.159-0.065,0.273-0.094,0.344-0.094c0.197,0,0.366,0.058,0.512,0.175c0.143,0.117,0.215,0.254,0.215,0.407
		c0,0.293-0.41,0.572-1.231,0.848C35.426-12.366,34.828-12.244,34.354-12.244"/>
	<path fill-rule="evenodd" clip-rule="evenodd" fill="#231F20" d="M46.237-12.867c-0.603,0.209-1.55,0.4-2.839,0.569
		c-1.188,0.156-2.159,0.235-2.91,0.235c-0.539,0-0.925-0.063-1.16-0.188c-0.32-0.167-0.48-0.476-0.48-0.923l0.16-1.99
		c0.14-1.833,0.207-3.868,0.207-6.102c0-0.172,0.078-0.318,0.229-0.44c0.152-0.121,0.342-0.181,0.564-0.181
		c0.229,0,0.42,0.061,0.572,0.181c0.151,0.122,0.228,0.268,0.228,0.44c0,2.261-0.071,4.32-0.217,6.174l-0.103,0.912
		c-0.044,0.334-0.059,0.627-0.049,0.884c1.391,0.011,3.15-0.235,5.277-0.738c0.091-0.021,0.176-0.03,0.257-0.03
		c0.229,0,0.42,0.067,0.574,0.205c0.135,0.121,0.201,0.263,0.201,0.424C46.749-13.178,46.578-12.99,46.237-12.867"/>
	<path fill-rule="evenodd" clip-rule="evenodd" fill="#231F20" d="M54.416-12.225c-0.102,0-0.285-0.088-0.553-0.266
		c-0.238-0.165-0.418-0.312-0.535-0.438c-0.512,0.209-0.962,0.365-1.35,0.472c-0.391,0.104-0.716,0.159-0.977,0.159
		c-1.248,0-2.156-0.264-2.728-0.794c-0.538-0.495-0.808-1.257-0.808-2.282c0-0.967,0.444-1.798,1.332-2.485
		c0.887-0.689,1.947-1.036,3.18-1.036c0.463,0,0.982,0.09,1.558,0.271c0.726,0.225,1.088,0.494,1.088,0.809
		c0,0.111-0.053,0.205-0.16,0.292c-0.052,0.149-0.095,0.4-0.124,0.749c-0.029,0.348-0.046,0.797-0.052,1.339
		c-0.007,0.497,0.04,0.891,0.136,1.179c0.054,0.177,0.222,0.53,0.504,1.055c0.038,0.073,0.099,0.179,0.185,0.321l0.047,0.102
		c0,0.161-0.073,0.292-0.224,0.395C54.786-12.28,54.613-12.225,54.416-12.225 M52.752-16.399c0-0.174,0.016-0.363,0.045-0.565
		c0.029-0.201,0.073-0.415,0.132-0.646c-0.197-0.073-0.366-0.131-0.508-0.167c-0.141-0.038-0.255-0.053-0.339-0.053
		c-0.828,0-1.54,0.251-2.14,0.759c-0.6,0.507-0.899,1.09-0.899,1.752c0,0.657,0.154,1.149,0.463,1.475
		c0.31,0.331,0.773,0.496,1.393,0.496c0.511,0,0.945-0.072,1.303-0.212c0.191-0.076,0.46-0.227,0.808-0.457
		C52.838-15.078,52.752-15.873,52.752-16.399"/>
	<path fill-rule="evenodd" clip-rule="evenodd" fill="#231F20" d="M58.079-20.226c-0.257,0-0.478-0.071-0.664-0.205
		c-0.188-0.137-0.28-0.302-0.28-0.494c0-0.19,0.093-0.356,0.28-0.494c0.187-0.134,0.407-0.204,0.664-0.204
		c0.255,0,0.476,0.07,0.659,0.204c0.185,0.137,0.275,0.304,0.275,0.494c0,0.192-0.091,0.356-0.275,0.494
		C58.555-20.297,58.334-20.226,58.079-20.226 M58.438-15.349c0,0.238,0.009,0.6,0.028,1.078c0.018,0.478,0.027,0.836,0.027,1.078
		c0,0.176-0.072,0.32-0.216,0.431c-0.144,0.116-0.334,0.17-0.568,0.17c-0.229,0-0.416-0.055-0.563-0.17
		c-0.146-0.111-0.221-0.255-0.221-0.431c0-0.241-0.008-0.6-0.027-1.078c-0.019-0.478-0.027-0.84-0.027-1.078
		c0-0.378,0.025-0.846,0.08-1.412c0.054-0.559,0.08-1.03,0.08-1.406c0-0.181,0.072-0.327,0.221-0.438
		c0.146-0.116,0.332-0.171,0.562-0.171c0.229,0,0.418,0.055,0.564,0.171c0.146,0.111,0.22,0.257,0.22,0.438
		c0,0.376-0.026,0.847-0.08,1.406C58.465-16.194,58.438-15.727,58.438-15.349"/>
	<path fill-rule="evenodd" clip-rule="evenodd" fill="#231F20" d="M67.273-12.195c-0.459,0-0.717-0.188-0.775-0.567l-0.225-1.315
		c-0.074-0.467-0.111-0.905-0.111-1.314c0-0.114,0.01-0.305,0.027-0.569c0.02-0.272,0.028-0.46,0.028-0.572
		c0-0.866-0.212-1.297-0.64-1.297c-0.597,0-1.168,0.263-1.711,0.798c-0.49,0.486-0.873,1.098-1.151,1.837
		c-0.012,0.154-0.035,0.353-0.072,0.59c-0.032,0.2-0.048,0.396-0.048,0.583c0,0.119,0.016,0.297,0.048,0.54
		c0.032,0.237,0.048,0.419,0.048,0.541c0,0.177-0.072,0.323-0.22,0.439c-0.146,0.11-0.333,0.166-0.563,0.166
		c-0.234,0-0.424-0.055-0.567-0.166c-0.145-0.116-0.216-0.262-0.216-0.439c0-0.122-0.018-0.304-0.053-0.541
		c-0.033-0.243-0.053-0.421-0.053-0.54c0-0.414,0.039-0.987,0.116-1.718c0.079-0.732,0.117-1.302,0.117-1.713
		c0-0.13-0.01-0.319-0.029-0.571c-0.017-0.254-0.027-0.443-0.027-0.571c0-0.17,0.077-0.314,0.229-0.422
		c0.151-0.113,0.34-0.167,0.563-0.167c0.49,0,0.76,0.26,0.808,0.783l0.024,0.702c0.895-0.897,1.815-1.344,2.758-1.344
		c0.853,0,1.447,0.278,1.783,0.847c0.229,0.375,0.354,0.932,0.376,1.666v0.608l-0.008,0.559c0,0.333,0.057,0.76,0.172,1.287
		c0.114,0.527,0.171,0.956,0.171,1.283c0,0.176-0.074,0.321-0.227,0.43C67.693-12.252,67.502-12.195,67.273-12.195"/>
	<path fill-rule="evenodd" clip-rule="evenodd" fill="#F9A96F" d="M25.166,1.967c-0.49,0-0.917-0.473-1.28-1.418
		c-0.138-0.361-0.312-0.991-0.521-1.895c-0.543,0.059-1.254,0.16-2.133,0.304l-2.127,0.328c-0.268,0.524-0.723,1.293-1.367,2.303
		c-0.172,0.221-0.403,0.335-0.697,0.335c-0.213,0-0.403-0.058-0.571-0.175c-0.167-0.117-0.253-0.263-0.253-0.433
		c0-0.193,0.403-0.923,1.208-2.193c-0.09-0.104-0.136-0.221-0.136-0.359c0-0.326,0.262-0.534,0.783-0.624
		c0.608-0.858,1.375-1.843,2.304-2.957c1.263-1.518,2.05-2.277,2.358-2.277c0.422,0,0.709,0.221,0.864,0.663l0.504,2.019l1.19,4.175
		l0.457,0.949c0.154,0.322,0.23,0.542,0.23,0.646c0,0.172-0.082,0.318-0.247,0.435C25.569,1.91,25.379,1.967,25.166,1.967
		 M22.344-4.899l-2.288,2.767c0.646-0.121,1.624-0.273,2.936-0.449L22.344-4.899z"/>
	<path fill-rule="evenodd" clip-rule="evenodd" fill="#231F20" d="M33.658-2.84c-0.295,0-0.499-0.074-0.617-0.223
		c-0.08-0.104-0.147-0.319-0.206-0.648c-0.401,0.075-1.017,0.218-1.848,0.421c-0.858,0.255-1.29,0.572-1.296,0.951
		c0.16,0.044,0.317,0.073,0.472,0.093c1.227,0.166,2.138,0.389,2.735,0.681c0.868,0.42,1.304,1.026,1.304,1.825
		c0,0.653-0.377,1.145-1.128,1.477c-0.624,0.273-1.412,0.409-2.367,0.409c-0.698,0-1.365-0.09-1.998-0.265
		c-0.822-0.224-1.232-0.538-1.232-0.935c0-0.161,0.085-0.303,0.252-0.423c0.169-0.118,0.358-0.178,0.572-0.178
		c0.165,0,0.378,0.094,0.639,0.286c0.129,0.094,0.416,0.169,0.864,0.228c0.356,0.049,0.658,0.073,0.903,0.073
		c0.449,0,0.843-0.04,1.184-0.118c0.496-0.116,0.744-0.303,0.744-0.554c0-0.544-0.506-0.913-1.521-1.108l-0.831-0.135
		c-0.709-0.115-1.213-0.253-1.512-0.408c-0.432-0.226-0.646-0.566-0.646-1.018c0-0.836,0.525-1.435,1.575-1.79
		c0.319-0.11,0.831-0.238,1.535-0.389c0.704-0.146,1.207-0.276,1.512-0.379c0.219-0.073,0.454-0.108,0.711-0.108
		c0.229,0,0.417,0.056,0.564,0.167c0.146,0.115,0.219,0.262,0.219,0.438c0,0.117,0.034,0.291,0.101,0.512
		c0.066,0.226,0.1,0.393,0.1,0.51c0,0.182-0.074,0.328-0.221,0.438C34.074-2.895,33.887-2.84,33.658-2.84"/>
	<path fill-rule="evenodd" clip-rule="evenodd" fill="#231F20" d="M41.629-2.84c-0.293,0-0.498-0.074-0.615-0.223
		c-0.08-0.104-0.149-0.319-0.208-0.648c-0.399,0.075-1.015,0.218-1.847,0.421c-0.858,0.255-1.29,0.572-1.296,0.951
		c0.159,0.044,0.317,0.073,0.473,0.093c1.225,0.166,2.138,0.389,2.734,0.681c0.869,0.42,1.303,1.026,1.303,1.825
		c0,0.653-0.375,1.145-1.127,1.477c-0.623,0.273-1.413,0.409-2.366,0.409c-0.699,0-1.365-0.09-2-0.265
		c-0.82-0.224-1.232-0.538-1.232-0.935c0-0.161,0.084-0.303,0.252-0.423c0.169-0.118,0.359-0.178,0.572-0.178
		c0.166,0,0.379,0.094,0.641,0.286c0.127,0.094,0.415,0.169,0.863,0.228c0.357,0.049,0.658,0.073,0.904,0.073
		c0.447,0,0.842-0.04,1.183-0.118c0.495-0.116,0.743-0.303,0.743-0.554c0-0.544-0.505-0.913-1.52-1.108l-0.831-0.135
		c-0.71-0.115-1.213-0.253-1.511-0.408c-0.432-0.226-0.648-0.566-0.648-1.018c0-0.836,0.525-1.435,1.575-1.79
		c0.32-0.11,0.833-0.238,1.536-0.389c0.703-0.146,1.207-0.276,1.511-0.379c0.219-0.073,0.456-0.108,0.712-0.108
		c0.23,0,0.416,0.056,0.562,0.167c0.148,0.115,0.221,0.262,0.221,0.438c0,0.117,0.034,0.291,0.101,0.512
		c0.065,0.226,0.101,0.393,0.101,0.51c0,0.182-0.073,0.328-0.22,0.438C42.047-2.895,41.858-2.84,41.629-2.84"/>
	<path fill-rule="evenodd" clip-rule="evenodd" fill="#231F20" d="M47.203,2.141c-0.896,0-1.667-0.248-2.312-0.744
		c-0.719-0.553-1.099-1.297-1.136-2.232c-0.031-0.905,0.271-1.701,0.911-2.391c0.747-0.811,1.786-1.217,3.118-1.217
		c1.066,0,1.874,0.366,2.424,1.096c0.438,0.595,0.648,1.307,0.631,2.14c-0.016,0.888-0.324,1.648-0.927,2.277
		C49.23,1.782,48.326,2.141,47.203,2.141 M47.682-3.225c-0.784-0.004-1.393,0.275-1.831,0.843C45.505-1.93,45.33-1.415,45.33-0.834
		c0,0.584,0.211,1.036,0.632,1.358c0.353,0.27,0.767,0.404,1.241,0.404c0.553,0,1.03-0.153,1.43-0.458
		c0.454-0.337,0.693-0.792,0.719-1.363C49.428-2.441,48.87-3.219,47.682-3.225"/>
	<path fill-rule="evenodd" clip-rule="evenodd" fill="#231F20" d="M56.429,2.164c-1.093,0-2.004-0.248-2.734-0.745
		c-0.768-0.519-1.151-1.206-1.151-2.061c0-0.812,0.36-1.653,1.079-2.515c0.8-0.963,1.7-1.445,2.702-1.445
		c0.523,0,1.107,0.094,1.752,0.277c0.816,0.236,1.223,0.526,1.223,0.865c0,0.154-0.066,0.289-0.199,0.406
		c-0.132,0.118-0.299,0.177-0.495,0.177c-0.155,0-0.289-0.033-0.405-0.104c-0.113-0.071-0.223-0.139-0.33-0.206
		c-0.315-0.188-0.83-0.283-1.545-0.283c-0.543,0-1.082,0.365-1.613,1.093c-0.485,0.667-0.729,1.249-0.729,1.736
		c0,0.529,0.24,0.946,0.721,1.251c0.447,0.282,1.021,0.424,1.726,0.424c0.319,0,0.662-0.063,1.023-0.189l0.929-0.376
		c0.159-0.062,0.273-0.093,0.344-0.093c0.197,0,0.367,0.059,0.512,0.177c0.143,0.117,0.216,0.251,0.216,0.405
		c0,0.294-0.411,0.573-1.231,0.848C57.501,2.043,56.904,2.164,56.429,2.164"/>
	<path fill-rule="evenodd" clip-rule="evenodd" fill="#231F20" d="M62.754-5.818c-0.256,0-0.476-0.068-0.663-0.205
		c-0.187-0.136-0.28-0.301-0.28-0.491c0-0.193,0.094-0.358,0.28-0.497c0.188-0.132,0.407-0.203,0.663-0.203
		c0.257,0,0.477,0.071,0.66,0.203c0.184,0.138,0.275,0.304,0.275,0.497c0,0.19-0.092,0.354-0.275,0.491
		C63.23-5.886,63.011-5.818,62.754-5.818 M63.114-0.941c0,0.238,0.009,0.601,0.028,1.077c0.019,0.478,0.028,0.84,0.028,1.079
		c0,0.177-0.072,0.321-0.218,0.433c-0.143,0.113-0.332,0.168-0.566,0.168c-0.229,0-0.416-0.056-0.563-0.168
		c-0.146-0.112-0.221-0.256-0.221-0.433c0-0.238-0.009-0.601-0.027-1.079c-0.019-0.477-0.028-0.839-0.028-1.077
		c0-0.375,0.026-0.844,0.08-1.411c0.053-0.56,0.08-1.03,0.08-1.405c0-0.183,0.073-0.329,0.22-0.439
		c0.146-0.113,0.335-0.169,0.563-0.169c0.229,0,0.418,0.056,0.564,0.169c0.146,0.11,0.22,0.256,0.22,0.439
		c0,0.375-0.027,0.846-0.081,1.405C63.142-1.786,63.114-1.316,63.114-0.941"/>
	<path fill-rule="evenodd" clip-rule="evenodd" fill="#231F20" d="M72.062,2.183c-0.101,0-0.284-0.09-0.552-0.265
		c-0.239-0.166-0.418-0.312-0.537-0.438c-0.51,0.209-0.96,0.365-1.35,0.471c-0.389,0.105-0.715,0.161-0.975,0.161
		c-1.25,0-2.158-0.265-2.729-0.795c-0.537-0.496-0.808-1.258-0.808-2.282c0-0.968,0.444-1.796,1.331-2.485
		c0.889-0.691,1.948-1.034,3.18-1.034c0.464,0,0.982,0.088,1.56,0.269c0.725,0.226,1.086,0.494,1.086,0.812
		c0,0.107-0.052,0.205-0.159,0.288c-0.054,0.151-0.096,0.401-0.123,0.749c-0.03,0.351-0.048,0.799-0.053,1.343
		c-0.006,0.497,0.04,0.889,0.137,1.177c0.052,0.175,0.22,0.531,0.504,1.057c0.037,0.073,0.098,0.176,0.184,0.319l0.047,0.103
		c0,0.16-0.074,0.292-0.223,0.396C72.432,2.129,72.26,2.183,72.062,2.183 M70.398-1.992c0-0.171,0.016-0.361,0.044-0.563
		c0.03-0.203,0.073-0.417,0.132-0.645c-0.197-0.074-0.365-0.131-0.508-0.168c-0.142-0.036-0.254-0.054-0.34-0.054
		c-0.826,0-1.539,0.251-2.139,0.761c-0.601,0.504-0.9,1.088-0.9,1.751c0,0.656,0.154,1.147,0.465,1.477
		c0.309,0.327,0.772,0.493,1.391,0.493c0.512,0,0.947-0.069,1.304-0.211c0.192-0.077,0.461-0.227,0.809-0.457
		C70.483-0.67,70.398-1.462,70.398-1.992"/>
	<path fill-rule="evenodd" clip-rule="evenodd" fill="#231F20" d="M79.545-3.331c-0.111,0-0.243-0.005-0.396-0.015
		c-0.151-0.007-0.282-0.012-0.396-0.012c-0.123,0-0.484,0.03-1.087,0.091l0.151,3.55l0.008,0.265l0.008,0.306
		c0.021,0.878-0.258,1.316-0.84,1.316c-0.214,0-0.397-0.055-0.555-0.158c-0.157-0.103-0.236-0.234-0.236-0.391
		c0-0.15,0.008-0.38,0.023-0.684c0.017-0.303,0.024-0.531,0.024-0.683l-0.16-3.51c-0.388-0.011-0.98-0.047-1.774-0.102
		c-0.475-0.047-0.713-0.246-0.713-0.593c0-0.177,0.073-0.323,0.217-0.44c0.143-0.115,0.328-0.173,0.552-0.173l1.679,0.102
		c0-0.203-0.012-0.476-0.035-0.82c-0.024-0.342-0.037-0.59-0.037-0.742c0-0.169,0.077-0.307,0.232-0.417
		c0.154-0.11,0.344-0.164,0.568-0.164c0.479,0,0.758,0.294,0.839,0.88c0.017,0.149,0.024,0.328,0.024,0.538l-0.017,0.349
		l-0.008,0.369c0.661-0.061,1.039-0.094,1.136-0.094c0.554,0,0.917,0.021,1.088,0.061c0.324,0.078,0.487,0.267,0.487,0.562
		c0,0.178-0.073,0.322-0.22,0.435C79.962-3.39,79.775-3.331,79.545-3.331"/>
	<path fill-rule="evenodd" clip-rule="evenodd" fill="#231F20" d="M83.438-5.818c-0.256,0-0.477-0.068-0.663-0.205
		c-0.187-0.136-0.28-0.301-0.28-0.491c0-0.193,0.094-0.358,0.28-0.497c0.187-0.132,0.407-0.203,0.663-0.203
		c0.257,0,0.477,0.071,0.66,0.203c0.184,0.138,0.276,0.304,0.276,0.497c0,0.19-0.093,0.354-0.276,0.491
		C83.915-5.886,83.695-5.818,83.438-5.818 M83.799-0.941c0,0.238,0.01,0.601,0.027,1.077c0.02,0.478,0.029,0.84,0.029,1.079
		c0,0.177-0.072,0.321-0.217,0.433c-0.143,0.113-0.333,0.168-0.567,0.168c-0.229,0-0.417-0.056-0.563-0.168
		c-0.146-0.112-0.22-0.256-0.22-0.433c0-0.238-0.009-0.601-0.028-1.079c-0.018-0.477-0.028-0.839-0.028-1.077
		c0-0.375,0.027-0.844,0.08-1.411c0.054-0.56,0.081-1.03,0.081-1.405c0-0.183,0.072-0.329,0.22-0.439
		c0.146-0.113,0.334-0.169,0.562-0.169c0.229,0,0.418,0.056,0.563,0.169c0.146,0.11,0.221,0.256,0.221,0.439
		c0,0.375-0.026,0.846-0.08,1.405C83.826-1.786,83.799-1.316,83.799-0.941"/>
	<path fill-rule="evenodd" clip-rule="evenodd" fill="#231F20" d="M89.5,2.141c-0.896,0-1.667-0.248-2.312-0.744
		C86.47,0.845,86.09,0.1,86.053-0.834c-0.031-0.905,0.272-1.701,0.912-2.391c0.746-0.811,1.785-1.217,3.118-1.217
		c1.067,0,1.874,0.366,2.424,1.096c0.437,0.595,0.647,1.307,0.632,2.14c-0.018,0.888-0.325,1.648-0.928,2.277
		C91.527,1.782,90.624,2.141,89.5,2.141 M89.979-3.225c-0.784-0.004-1.395,0.275-1.831,0.843c-0.346,0.453-0.52,0.968-0.52,1.548
		c0,0.584,0.211,1.036,0.631,1.358c0.352,0.27,0.766,0.404,1.24,0.404c0.554,0,1.031-0.153,1.431-0.458
		c0.454-0.337,0.694-0.792,0.72-1.363C91.726-2.441,91.168-3.219,89.979-3.225"/>
	<path fill-rule="evenodd" clip-rule="evenodd" fill="#231F20" d="M101.245,2.214c-0.458,0-0.717-0.189-0.776-0.566l-0.223-1.314
		c-0.074-0.468-0.111-0.907-0.111-1.316c0-0.115,0.009-0.305,0.026-0.57c0.02-0.27,0.028-0.46,0.028-0.57
		c0-0.869-0.213-1.298-0.639-1.298c-0.598,0-1.168,0.265-1.712,0.796c-0.49,0.487-0.873,1.098-1.151,1.839
		c-0.012,0.156-0.035,0.352-0.073,0.591c-0.03,0.199-0.046,0.394-0.046,0.582c0,0.121,0.016,0.297,0.046,0.54
		c0.034,0.238,0.05,0.42,0.05,0.541c0,0.179-0.074,0.325-0.221,0.438c-0.146,0.111-0.334,0.167-0.563,0.167
		c-0.234,0-0.423-0.055-0.568-0.167c-0.144-0.113-0.214-0.259-0.214-0.438c0-0.121-0.02-0.303-0.053-0.541
		c-0.035-0.243-0.053-0.419-0.053-0.54c0-0.415,0.039-0.986,0.115-1.717c0.078-0.731,0.116-1.3,0.116-1.713
		c0-0.127-0.009-0.317-0.028-0.571c-0.017-0.254-0.027-0.443-0.027-0.571c0-0.172,0.076-0.314,0.229-0.424
		c0.151-0.109,0.339-0.167,0.563-0.167c0.49,0,0.76,0.262,0.808,0.784l0.023,0.705c0.896-0.899,1.815-1.348,2.76-1.348
		c0.852,0,1.446,0.283,1.782,0.847c0.229,0.376,0.354,0.933,0.376,1.669v0.608l-0.008,0.56c0,0.332,0.057,0.759,0.172,1.286
		c0.115,0.524,0.172,0.954,0.172,1.284c0,0.175-0.076,0.319-0.228,0.429C101.666,2.159,101.475,2.214,101.245,2.214"/>
	<path fill-rule="evenodd" clip-rule="evenodd" fill="#6FBBE4" d="M24.485,15.101c-0.342,0-0.598-0.151-0.769-0.449
		c-0.148-0.258-0.287-0.415-0.416-0.47c-0.111-0.043-0.389-0.065-0.83-0.065c-0.773,0-1.632,0.444-2.576,1.332
		c-1.277,1.193-1.918,2.326-1.918,3.396c0,0.513,0.221,0.961,0.664,1.33c0.452,0.387,0.998,0.579,1.639,0.579
		c0.549,0,1.101-0.107,1.655-0.317c0.31-0.122,0.784-0.358,1.423-0.712c0.305-0.166,0.533-0.25,0.688-0.25
		c0.228,0,0.421,0.064,0.575,0.194c0.155,0.129,0.231,0.274,0.231,0.436c0,0.181-0.101,0.338-0.304,0.477
		c-1.407,0.938-2.831,1.404-4.27,1.404c-1.104,0-2.037-0.321-2.799-0.955c-0.736-0.618-1.104-1.347-1.104-2.186
		c0-1.358,0.756-2.751,2.271-4.174c1.265-1.191,2.538-1.786,3.823-1.786c0.26,0,0.495,0.007,0.703,0.026
		c0.207,0.02,0.392,0.049,0.552,0.086c0.187-0.203,0.429-0.306,0.728-0.306c0.369,0,0.6,0.184,0.695,0.549
		c0.086,0.322,0.129,0.721,0.129,1.196c0,0.161-0.06,0.308-0.177,0.43C24.957,15.021,24.752,15.101,24.485,15.101"/>
	<path fill-rule="evenodd" clip-rule="evenodd" fill="#231F20" d="M33.329,22.214c-0.379,0-0.626-0.154-0.743-0.459
		c-0.123-0.326-0.234-0.791-0.337-1.396c-0.096-0.58-0.144-1.06-0.144-1.432c0-0.104,0.008-0.263,0.02-0.475
		c0.014-0.211,0.021-0.368,0.021-0.474c0-0.753-0.251-1.131-0.753-1.131c-0.677,0-1.282,0.232-1.814,0.692
		c-0.272,0.236-0.646,0.687-1.119,1.351c0,1.526-0.086,2.43-0.256,2.711c-0.15,0.248-0.381,0.37-0.696,0.37
		c-0.219,0-0.41-0.055-0.576-0.165c-0.165-0.113-0.248-0.249-0.248-0.409c0-0.056,0.025-0.144,0.072-0.267
		c0.044-0.099,0.073-0.391,0.088-0.876l0.023-0.89l0.025-4.416c0.037-0.496,0.055-0.83,0.055-1.001c0-0.205-0.025-0.399-0.074-0.58
		c-0.052-0.183-0.076-0.373-0.076-0.566c0-0.169,0.076-0.308,0.23-0.419c0.155-0.107,0.345-0.165,0.568-0.165
		c0.438,0,0.693,0.175,0.768,0.525c0.085,0.393,0.128,0.744,0.128,1.054c0,0.421-0.019,0.859-0.056,1.316
		c-0.032,0.435-0.046,0.874-0.039,1.314l0.007,0.53c0.437-0.441,0.905-0.77,1.403-0.988c0.499-0.219,1.027-0.327,1.587-0.327
		c0.886,0,1.493,0.215,1.823,0.648c0.234,0.306,0.369,0.818,0.4,1.535l0.064,1.149l0.159,1.248c0.075,0.47,0.166,0.884,0.272,1.236
		c0.021,0.072,0.031,0.132,0.031,0.175c0,0.166-0.079,0.303-0.24,0.412C33.745,22.159,33.553,22.214,33.329,22.214"/>
	<path fill-rule="evenodd" clip-rule="evenodd" fill="#231F20" d="M37.622,14.235c-0.255,0-0.478-0.067-0.664-0.203
		s-0.278-0.301-0.278-0.493s0.092-0.357,0.278-0.49c0.187-0.138,0.409-0.205,0.664-0.205c0.257,0,0.476,0.067,0.66,0.205
		c0.185,0.133,0.274,0.298,0.274,0.49s-0.09,0.357-0.274,0.493S37.879,14.235,37.622,14.235 M37.982,19.113
		c0,0.242,0.009,0.6,0.027,1.077c0.02,0.481,0.028,0.84,0.028,1.081c0,0.175-0.071,0.321-0.216,0.432
		c-0.145,0.111-0.334,0.167-0.568,0.167c-0.229,0-0.416-0.056-0.564-0.167c-0.146-0.11-0.219-0.257-0.219-0.432
		c0-0.241-0.01-0.6-0.027-1.081c-0.02-0.478-0.027-0.835-0.027-1.077c0-0.376,0.025-0.847,0.079-1.407
		c0.053-0.564,0.079-1.034,0.079-1.411c0-0.179,0.074-0.325,0.221-0.438c0.146-0.111,0.334-0.167,0.562-0.167
		c0.23,0,0.418,0.056,0.564,0.167c0.146,0.112,0.22,0.259,0.22,0.438c0,0.377-0.026,0.847-0.079,1.411
		C38.008,18.267,37.982,18.737,37.982,19.113"/>
	<path fill-rule="evenodd" clip-rule="evenodd" fill="#231F20" d="M42.715,17.12l-0.119,2.984c0,0.317-0.021,0.782-0.063,1.394
		c-0.054,0.4-0.315,0.603-0.784,0.603c-0.523,0-0.783-0.203-0.783-0.612c0-0.484,0.029-1.212,0.088-2.187
		c0.059-0.969,0.088-1.697,0.088-2.182c0-0.634,0.013-1.356,0.039-2.172c0.026-0.817,0.041-1.538,0.041-2.174
		c0-0.396,0.261-0.601,0.783-0.601c0.528,0,0.792,0.204,0.792,0.601c0,0.636-0.015,1.356-0.041,2.174
		C42.729,15.764,42.715,16.486,42.715,17.12"/>
	<path fill-rule="evenodd" clip-rule="evenodd" fill="#231F20" d="M52.535,16.54c-0.064,0.585-0.097,1.174-0.097,1.766
		c0,1.33,0.083,2.337,0.247,3.019c0.012,0.056,0.018,0.103,0.018,0.137c0,0.16-0.076,0.292-0.225,0.397
		c-0.15,0.104-0.322,0.156-0.521,0.156c-0.33,0-0.571-0.179-0.727-0.539c-0.386,0.21-0.782,0.372-1.196,0.48
		c-0.413,0.107-0.844,0.162-1.292,0.162c-1.104,0-2.017-0.278-2.741-0.83c-0.746-0.565-1.119-1.288-1.119-2.175
		c0-1.07,0.375-1.927,1.129-2.571c0.756-0.645,1.735-0.966,2.94-0.966c0.618,0,1.096,0.073,1.432,0.217l0.751,0.412
		c0.074-1.685,0.162-2.819,0.264-3.403c0.069-0.358,0.312-0.538,0.729-0.538c0.484,0,0.727,0.197,0.727,0.582
		C52.854,13.404,52.747,14.636,52.535,16.54 M48.984,16.693c-0.896,0-1.567,0.197-2.016,0.597c-0.447,0.4-0.671,1-0.671,1.801
		c0,0.516,0.243,0.96,0.731,1.333c0.486,0.372,1.059,0.557,1.714,0.557c0.448,0,0.827-0.06,1.136-0.185
		c0.183-0.073,0.477-0.24,0.887-0.499c0.08-0.052,0.16-0.115,0.233-0.186l-0.024-1.04l0.01-0.695l0.015-0.711
		c-0.204-0.322-0.472-0.568-0.808-0.73C49.855,16.774,49.453,16.693,48.984,16.693"/>
	<path fill-rule="evenodd" clip-rule="evenodd" fill="#231F20" d="M61.01,17.401c-0.037,0.5-0.305,0.75-0.8,0.75
		c-0.459,0-0.688-0.195-0.688-0.592c0-0.079-0.007-0.217-0.024-0.421l-0.024-0.507c-0.843,0.077-1.517,0.257-2.022,0.535
		c-0.475,0.263-0.869,0.653-1.185,1.178l0.017,3.29c0,0.408-0.264,0.609-0.791,0.609c-0.471,0-0.705-0.201-0.705-0.609v-4.217
		c0-0.132,0.008-0.327,0.021-0.592c0.013-0.268,0.02-0.463,0.02-0.595c0-0.407,0.234-0.608,0.703-0.608
		c0.523,0,0.787,0.332,0.792,0.997c1.024-0.737,2.159-1.11,3.407-1.11c0.431,0,0.754,0.124,0.967,0.365
		c0.213,0.244,0.321,0.613,0.321,1.104C61.019,17.188,61.014,17.329,61.01,17.401"/>
	<path fill-rule="evenodd" clip-rule="evenodd" fill="#231F20" d="M66.391,22.118c-1.204,0-2.18-0.227-2.927-0.681
		c-0.815-0.501-1.223-1.202-1.223-2.102c0-1.043,0.337-1.914,1.007-2.62c0.73-0.768,1.705-1.154,2.927-1.154
		c0.886,0,1.608,0.115,2.168,0.338c0.688,0.275,1.03,0.699,1.03,1.273c0,0.402-0.301,0.766-0.903,1.092
		c-0.267,0.145-0.831,0.37-1.694,0.674l-3.055,1.09c0.299,0.332,0.67,0.582,1.115,0.748c0.445,0.172,0.963,0.254,1.555,0.254
		c0.368,0,0.8-0.051,1.296-0.155c0.629-0.133,1.034-0.305,1.215-0.522c0.181-0.212,0.377-0.321,0.584-0.321
		c0.187,0,0.354,0.057,0.5,0.159c0.146,0.106,0.22,0.231,0.22,0.371c0,0.446-0.478,0.826-1.432,1.147
		C67.958,21.981,67.164,22.118,66.391,22.118 M66.175,16.643c-0.651,0-1.191,0.19-1.623,0.569c-0.432,0.38-0.755,0.948-0.968,1.708
		l2.455-0.877c0.965-0.35,1.652-0.655,2.062-0.918C67.643,16.805,67.002,16.643,66.175,16.643"/>
	<path fill-rule="evenodd" clip-rule="evenodd" fill="#231F20" d="M77.761,22.266c-0.459,0-0.717-0.187-0.775-0.562l-0.225-1.315
		c-0.074-0.47-0.112-0.907-0.112-1.316c0-0.111,0.01-0.3,0.029-0.57c0.019-0.267,0.027-0.458,0.027-0.571
		c0-0.863-0.213-1.298-0.641-1.298c-0.596,0-1.166,0.267-1.709,0.799c-0.491,0.484-0.876,1.099-1.153,1.839
		c-0.011,0.157-0.034,0.351-0.071,0.587c-0.033,0.202-0.049,0.396-0.049,0.584c0,0.121,0.016,0.302,0.049,0.542
		c0.031,0.242,0.048,0.419,0.048,0.54c0,0.181-0.073,0.327-0.22,0.438c-0.146,0.113-0.335,0.172-0.564,0.172
		c-0.234,0-0.424-0.059-0.567-0.172c-0.144-0.11-0.216-0.257-0.216-0.438c0-0.121-0.017-0.298-0.053-0.54
		c-0.034-0.24-0.051-0.421-0.051-0.542c0-0.411,0.037-0.98,0.116-1.713c0.077-0.731,0.115-1.304,0.115-1.718
		c0-0.127-0.01-0.318-0.027-0.57c-0.019-0.25-0.028-0.44-0.028-0.571c0-0.171,0.075-0.312,0.227-0.424
		c0.153-0.108,0.342-0.162,0.564-0.162c0.49,0,0.761,0.261,0.808,0.778l0.024,0.704c0.896-0.896,1.814-1.346,2.758-1.346
		c0.854,0,1.448,0.281,1.785,0.847c0.228,0.376,0.354,0.932,0.374,1.671v0.604l-0.008,0.561c0,0.331,0.058,0.763,0.173,1.29
		c0.114,0.526,0.172,0.951,0.172,1.282c0,0.176-0.076,0.317-0.228,0.429C78.18,22.212,77.99,22.266,77.761,22.266"/>
</g>
</svg>
