<?xml version="1.0" encoding="utf-8"?>
<!-- Generator: Adobe Illustrator 16.0.0, SVG Export Plug-In . SVG Version: 6.00 Build 0)  -->
<!DOCTYPE svg PUBLIC "-//W3C//DTD SVG 1.1//EN" "http://www.w3.org/Graphics/SVG/1.1/DTD/svg11.dtd">
<svg version="1.1" id="Layer_1" xmlns="http://www.w3.org/2000/svg" xmlns:xlink="http://www.w3.org/1999/xlink" x="0px" y="0px"
	 width="20px" height="22px" viewBox="0 0 20 22" enable-background="new 0 0 20 22" xml:space="preserve">
<g>
	<path fill="#009B72" d="M4.316,14.587c-0.071-0.077-0.141-0.149-0.208-0.217H4.107c-0.602-0.594-1.306-1.004-2.025-1.112
		C1.387,13.154,0.668,13.333,0,13.908l6.276,6.189c1.228,1.211,2.83,1.868,4.432,1.9c1.547,0.033,3.097-0.519,4.308-1.711
		c1.776-1.754,1.775-3.914,1.772-6.227v-0.202c0-0.033,0.008-0.067,0.021-0.098l3.093-7.362c0.137-0.327,0.125-0.679-0.002-0.983
		c-0.127-0.299-0.365-0.553-0.69-0.689c-0.009-0.003-0.019-0.008-0.027-0.011c-0.329-0.129-0.679-0.118-0.983,0.006
		c-0.308,0.126-0.568,0.368-0.706,0.694l-2.651,6.021c-0.042,0.097-0.137,0.156-0.237,0.156l0,0h-0.377
		c-0.144,0-0.258-0.113-0.258-0.254c0-0.022,0.003-0.045,0.009-0.065l1.542-8.071c0.066-0.347-0.019-0.688-0.208-0.961
		c-0.185-0.269-0.471-0.468-0.815-0.536c-0.012-0.002-0.023-0.003-0.034-0.006c-0.347-0.06-0.686,0.022-0.958,0.205
		c-0.275,0.187-0.48,0.476-0.546,0.822l-1.653,8.658c-0.024,0.123-0.132,0.208-0.254,0.207v0.001H10.75
		c-0.141,0-0.255-0.109-0.259-0.247L9.693,1.185C9.666,0.831,9.494,0.523,9.241,0.31C8.987,0.095,8.65-0.024,8.293,0.004H8.292
		C7.937,0.03,7.624,0.199,7.407,0.449C7.189,0.698,7.068,1.031,7.096,1.383l0.78,9.936c0.011,0.141-0.096,0.263-0.239,0.272
		l-0.019,0.001H7.253c-0.12,0-0.22-0.078-0.25-0.187L4.378,3.201c-0.108-0.336-0.346-0.6-0.643-0.752
		C3.44,2.298,3.085,2.257,2.744,2.363l0,0c-0.34,0.105-0.607,0.341-0.761,0.632C1.828,3.288,1.787,3.638,1.894,3.974l3.046,9.52
		c0.018,0.056,0.015,0.113-0.004,0.164c-0.046,0.159-0.089,0.31-0.118,0.446c-0.028,0.127-0.043,0.237-0.043,0.324
		c0,0.14-0.116,0.255-0.258,0.255C4.435,14.683,4.363,14.645,4.316,14.587z"/>
</g>
</svg>
