<?xml version="1.0" encoding="utf-8"?>
<!-- Generator: Adobe Illustrator 16.0.0, SVG Export Plug-In . SVG Version: 6.00 Build 0)  -->
<!DOCTYPE svg PUBLIC "-//W3C//DTD SVG 1.1//EN" "http://www.w3.org/Graphics/SVG/1.1/DTD/svg11.dtd">
<svg version="1.1" id="Layer_1" xmlns="http://www.w3.org/2000/svg" xmlns:xlink="http://www.w3.org/1999/xlink" x="0px" y="0px"
	 width="24px" height="24px" viewBox="0 0 24 24" enable-background="new 0 0 24 24" xml:space="preserve">
<path fill="#E54235" d="M12.5,13.166c0.729,0,1.5-0.602,1.5-1.332V6.498c0-0.73-0.771-1.332-1.5-1.332c-0.739,0-1.5,0.601-1.5,1.332
	v5.336C11,12.564,11.761,13.166,12.5,13.166z M11.928,14.771c-1.11,0-2,0.907-2,1.995c0,1.098,0.89,2.006,2,2.006
	c1.11,0,2-0.908,2-2.006C13.928,15.678,13.038,14.771,11.928,14.771z"/>
<path fill="#E54235" d="M20.03,23.5H3.98C1.734,23.5,0,20.996,0,18.841c0-0.354,0.095-1.953,0.535-2.711L8.558,2.463
	C9.269,1.252,10.587,0.5,12,0.5c1.412,0,2.727,0.745,3.432,1.944l8.03,13.703C23.903,16.869,24,18.481,24,18.841
	C24,20.996,22.266,23.5,20.03,23.5z M12,2.458c-0.726,0-1.376,0.371-1.741,0.991L2.24,17.112c-0.116,0.223-0.269,1.196-0.269,1.729
	c0,1.155,0.988,2.701,1.999,2.701H20.03c1.011,0,1.999-1.546,1.999-2.701c0-0.521-0.149-1.478-0.266-1.704L13.73,3.429
	C13.378,2.831,12.714,2.458,12,2.458z"/>
<path fill="#E54235" d="M14,6.558v5.217c0,0.714-0.771,1.302-1.5,1.302c-0.739,0-1.5-0.588-1.5-1.302V6.558
	c0-0.714,0.761-1.302,1.5-1.302C13.229,5.256,14,5.843,14,6.558z"/>
</svg>
