<?xml version="1.0" encoding="utf-8"?>
<!-- Generator: Adobe Illustrator 16.0.0, SVG Export Plug-In . SVG Version: 6.00 Build 0)  -->
<!DOCTYPE svg PUBLIC "-//W3C//DTD SVG 1.1//EN" "http://www.w3.org/Graphics/SVG/1.1/DTD/svg11.dtd">
<svg version="1.1" id="Layer_1" xmlns="http://www.w3.org/2000/svg" xmlns:xlink="http://www.w3.org/1999/xlink" x="0px" y="0px"
	 width="173px" height="120px" viewBox="0 0 173 120" enable-background="new 0 0 173 120" xml:space="preserve">
<polygon fill="#E8C26B" points="86,120 0,120 0,119 85,119 85,1 0,1 0,0 86,0 "/>
<path fill="#FFFFFF" d="M52.705,84.5c-0.442,0-0.879-0.201-1.17-0.585L31.179,57l20.356-26.915c0.497-0.658,1.422-0.779,2.068-0.274
	c0.646,0.505,0.766,1.447,0.27,2.104L34.9,57l18.973,25.085c0.496,0.657,0.375,1.599-0.27,2.104
	C53.335,84.398,53.019,84.5,52.705,84.5z"/>
<polygon fill="#E8C26B" points="87,120 173,120 173,119 88,119 88,1 173,1 173,0 87,0 "/>
<path fill="#FFFFFF" d="M120.295,84.5c0.442,0,0.88-0.201,1.17-0.585L141.821,57l-20.356-26.915
	c-0.496-0.658-1.422-0.779-2.068-0.274c-0.645,0.505-0.766,1.447-0.27,2.104L138.1,57l-18.973,25.085
	c-0.496,0.657-0.375,1.599,0.27,2.104C119.665,84.398,119.981,84.5,120.295,84.5z"/>
</svg>
