<?xml version="1.0" encoding="utf-8"?>
<!-- Generator: Adobe Illustrator 16.0.0, SVG Export Plug-In . SVG Version: 6.00 Build 0)  -->
<!DOCTYPE svg PUBLIC "-//W3C//DTD SVG 1.1//EN" "http://www.w3.org/Graphics/SVG/1.1/DTD/svg11.dtd">
<svg version="1.1" id="Layer_1" xmlns="http://www.w3.org/2000/svg" xmlns:xlink="http://www.w3.org/1999/xlink" x="0px" y="0px"
	 width="24px" height="20px" viewBox="0 0 24 20" enable-background="new 0 0 24 20" xml:space="preserve">
<g>
	<path fill="#E6E6E6" d="M22.456,3.646h-10.14l-1.056,3.458l-0.378,2.274l2.031,4.799L13.239,20h9.217
		C23.308,20,24,19.414,24,18.692V4.954C24,4.232,23.308,3.646,22.456,3.646z"/>
	<polygon fill="#3A5BBC" points="17.282,16.354 13.239,20 11.806,16.354 12.391,15.023 	"/>
	<path fill="#808080" d="M22.011,9.53V8.702h-3.718v-1.16h-0.977v1.16h-3.351V9.53h5.432c-0.303,0.539-0.825,1.398-1.545,2.306
		c-0.664-0.701-1.081-1.189-1.087-1.195l-0.287-0.335l-0.792,0.486l0.287,0.335c0.023,0.026,0.511,0.594,1.282,1.402
		c-0.526,0.545-1.491,1.434-1.999,1.864l0.692,0.586c0.438-0.372,1.349-1.2,1.941-1.8c0.772,0.776,1.524,1.477,2.244,2.086
		l0.346,0.293l0.691-0.586l-0.345-0.293c-0.743-0.629-1.525-1.361-2.327-2.176c1.037-1.264,1.709-2.461,1.979-2.974H22.011z"/>
	<path fill="#518EF8" d="M16.375,14.031l0.907,2.322h-5.476H1.544C0.691,16.354,0,15.768,0,15.046V1.308C0,0.586,0.691,0,1.544,0
		h9.347l1.425,3.646l2.137,5.47L16.375,14.031z"/>
	<path fill="#FFFFFF" d="M6.999,11.246c-2.005,0-3.636-1.382-3.636-3.08c0-1.699,1.631-3.081,3.636-3.081
		c0.97,0,1.882,0.32,2.57,0.902L8.878,6.574C8.376,6.148,7.708,5.915,6.999,5.915c-1.465,0-2.658,1.01-2.658,2.251
		c0,1.241,1.192,2.251,2.658,2.251c1.297,0,2.382-0.792,2.612-1.837H6.999V7.751h3.636v0.415
		C10.635,9.864,9.003,11.246,6.999,11.246z"/>
</g>
</svg>
