<?xml version="1.0" encoding="utf-8"?>
<!-- Generator: Adobe Illustrator 16.0.0, SVG Export Plug-In . SVG Version: 6.00 Build 0)  -->
<!DOCTYPE svg PUBLIC "-//W3C//DTD SVG 1.1//EN" "http://www.w3.org/Graphics/SVG/1.1/DTD/svg11.dtd">
<svg version="1.1" id="Layer_1" xmlns="http://www.w3.org/2000/svg" xmlns:xlink="http://www.w3.org/1999/xlink" x="0px" y="0px"
	 width="51px" height="9px" viewBox="0 0 51 9" enable-background="new 0 0 51 9" xml:space="preserve">
<path fill="#F38D68" d="M1.001,9C0.664,9,0.334,8.832,0.146,8.528C-0.142,8.065,0.008,7.461,0.48,7.18L12.5,0l12.02,7.18
	c0.472,0.281,0.622,0.886,0.335,1.349s-0.902,0.61-1.374,0.328L12.5,2.298L1.52,8.856C1.357,8.954,1.178,9,1.001,9z"/>
<path fill="#F38D68" d="M27,0c-0.337,0-0.666,0.168-0.854,0.472c-0.288,0.463-0.138,1.067,0.334,1.349L38.5,9l12.02-7.18
	c0.472-0.281,0.622-0.886,0.335-1.349s-0.902-0.61-1.374-0.328L38.5,6.702L27.52,0.144C27.358,0.046,27.178,0,27,0z"/>
</svg>
