<?xml version="1.0" encoding="utf-8"?>
<!-- Generator: Adobe Illustrator 16.0.0, SVG Export Plug-In . SVG Version: 6.00 Build 0)  -->
<!DOCTYPE svg PUBLIC "-//W3C//DTD SVG 1.1//EN" "http://www.w3.org/Graphics/SVG/1.1/DTD/svg11.dtd">
<svg version="1.1" id="Layer_1" xmlns="http://www.w3.org/2000/svg" xmlns:xlink="http://www.w3.org/1999/xlink" x="0px" y="0px"
	 width="25px" height="19px" viewBox="0 0 25 19" enable-background="new 0 0 25 19" xml:space="preserve">
<g>
	<path fill="#373F51" d="M19.169,14.836c-1.793-1.329-3.512-2.2-3.901-2.391c-0.052-0.024-0.083-0.077-0.083-0.133V10.73
		c0.245-0.41,0.398-0.845,0.46-1.239c0.177-0.015,0.404-0.262,0.653-1.141c0.342-1.205-0.021-1.381-0.324-1.354
		c0.059-0.166,0.104-0.329,0.131-0.496c0.521-3.117-1.018-3.225-1.018-3.225s-0.254-0.489-0.924-0.86
		c-0.447-0.267-1.076-0.472-1.898-0.402c-0.266,0.014-0.521,0.065-0.755,0.146l0,0c-0.302,0.104-0.579,0.254-0.832,0.427
		c-0.309,0.194-0.6,0.433-0.858,0.707C9.416,3.71,9.052,4.247,8.895,4.917C8.763,5.415,8.792,5.938,8.902,6.501l0,0
		c0.03,0.164,0.07,0.33,0.132,0.496C8.728,6.97,8.364,7.146,8.706,8.351C8.955,9.23,9.188,9.477,9.363,9.492
		c0.061,0.398,0.218,0.838,0.456,1.254v1.568c0,0.055-0.03,0.106-0.083,0.133c-0.387,0.188-2.108,1.057-3.9,2.39
		c-0.893,0.662-1.411,1.716-1.411,2.826v0.426C4.425,18.592,4.833,19,5.335,19h6.104h2.12h6.104c0.502,0,0.912-0.408,0.912-0.912
		v-0.426C20.585,16.548,20.064,15.498,19.169,14.836z"/>
</g>
</svg>
