<svg xmlns="http://www.w3.org/2000/svg" width="22.253" height="17" viewBox="0 0 22.253 17">
  <g id="Group_30" data-name="Group 30" transform="translate(-187.586 -291.79)">
    <g id="Group_29" data-name="Group 29">
      <g id="Group_28" data-name="Group 28">
        <path id="Path_43" data-name="Path 43" d="M190.991,291.79h0a.781.781,0,0,0-.557.231.791.791,0,0,0-.235.565v11.94a.8.8,0,0,0,.8.8c1.852.006,4.958.391,7.1,2.632V295.459a.758.758,0,0,0-.109-.4C196.228,292.225,192.848,291.794,190.991,291.79Z" fill="#373f51"/>
        <path id="Path_44" data-name="Path 44" d="M207.229,304.526v-11.94a.8.8,0,0,0-.235-.565.782.782,0,0,0-.556-.231h0c-1.857,0-5.238.435-7,3.266a.767.767,0,0,0-.109.4v12.495c2.143-2.241,5.249-2.626,7.1-2.632A.8.8,0,0,0,207.229,304.526Z" fill="#373f51"/>
        <path id="Path_45" data-name="Path 45" d="M209.043,294.543h-.578v9.983a2.037,2.037,0,0,1-2.03,2.033,8.845,8.845,0,0,0-6,2.048,19.192,19.192,0,0,1,8.431.163.8.8,0,0,0,.974-.776V295.34A.8.8,0,0,0,209.043,294.543Z" fill="#373f51"/>
        <path id="Path_46" data-name="Path 46" d="M188.96,304.526v-9.983h-.578a.8.8,0,0,0-.8.8v12.654a.79.79,0,0,0,.3.622.8.8,0,0,0,.676.154,19.188,19.188,0,0,1,8.431-.164,8.849,8.849,0,0,0-6-2.047A2.037,2.037,0,0,1,188.96,304.526Z" fill="#373f51"/>
      </g>
    </g>
  </g>
</svg>
