<svg xmlns="http://www.w3.org/2000/svg" width="18.982" height="16.683" viewBox="0 0 18.982 16.683">
  <g id="Group_33" data-name="Group 33" transform="translate(-419.687 -292.438)">
    <path id="Path_50" data-name="Path 50" d="M427.51,301.335h3.337v1.112H427.51Z" fill="#373f51"/>
    <path id="Path_51" data-name="Path 51" d="M434.981,302.447h-3.022V303a.556.556,0,0,1-.556.557h-4.449A.556.556,0,0,1,426.4,303v-.556h-3.023a1.815,1.815,0,0,1-1.722-1.241l-1.679-5.04a.147.147,0,0,0-.287.047V307.3a1.816,1.816,0,0,0,1.816,1.816h15.351a1.816,1.816,0,0,0,1.815-1.816V296.213a.147.147,0,0,0-.286-.046l-1.68,5.039A1.814,1.814,0,0,1,434.981,302.447Z" fill="#373f51"/>
    <path id="Path_52" data-name="Path 52" d="M431.125,292.438h-3.893a1.946,1.946,0,0,0-1.946,1.946h0a.279.279,0,0,1-.278.278H421.03a.278.278,0,0,0-.264.366l1.912,5.736a.835.835,0,0,0,.792.571H426.4v-.556a.556.556,0,0,1,.556-.556H431.4a.556.556,0,0,1,.556.556v.556h2.928a.834.834,0,0,0,.791-.57l1.912-5.737a.278.278,0,0,0-.263-.366h-3.978a.279.279,0,0,1-.278-.278h0A1.946,1.946,0,0,0,431.125,292.438Zm-4.727,2.224v-.556a.556.556,0,0,1,.556-.556H431.4a.556.556,0,0,1,.556.556v.556Z" fill="#373f51"/>
  </g>
</svg>
