<svg xmlns="http://www.w3.org/2000/svg" width="20.361" height="16.842" viewBox="0 0 20.361 16.842">
  <g id="Group_120" data-name="Group 120" transform="translate(-391.542 -292.385)">
    <g id="Group_117" data-name="Group 117">
      <path id="Path_94" data-name="Path 94" d="M406.529,292.385a4.439,4.439,0,1,0,4.44,4.439A4.439,4.439,0,0,0,406.529,292.385Zm0,7.85a3.411,3.411,0,1,1,3.411-3.411A3.411,3.411,0,0,1,406.529,300.235Z" fill="#373f51"/>
    </g>
    <g id="Group_118" data-name="Group 118">
      <path id="Path_95" data-name="Path 95" d="M410.822,304.823a13.712,13.712,0,0,1-4.293,1.463c-1.4.22-4.028-.309-4.028-.934,0-.236,2.306.583,3.7.211,1.07-.285.918-1.286.336-1.418s-3.969-1.373-5.417-1.416a25.022,25.022,0,0,0-3.181.37c-.279.045-.454.04-.471.307-.082,1.242-.241,3.781-.328,5.107,0,.028.037.4.348.14a1.611,1.611,0,0,1,1.259-.512c.693.157,6.686,1.255,7.513,1.063a20.871,20.871,0,0,0,5.172-2.876C412.429,305.372,411.655,304.363,410.822,304.823Z" fill="#373f51"/>
      <path id="Path_96" data-name="Path 96" d="M395.816,303.05l-3.14-.154a.563.563,0,0,0-.55.4l-.571,5.183a.343.343,0,0,0,.331.445h3.48a.464.464,0,0,0,.475-.423l.382-4.994A.429.429,0,0,0,395.816,303.05Zm-1.849,5.192a.868.868,0,1,1,.868-.868A.869.869,0,0,1,393.967,308.242Z" fill="#373f51"/>
    </g>
    <g id="Group_119" data-name="Group 119">
      <path id="Path_97" data-name="Path 97" d="M407.028,294.993a1.847,1.847,0,0,1,.475.2,1.556,1.556,0,0,1,.383.327,1.659,1.659,0,0,1,.267.449,1.8,1.8,0,0,1,.125.566h-.716a1.078,1.078,0,0,0-.157-.556.931.931,0,0,0-.377-.338v.919h-.382v-1.027c-.029,0-.055-.006-.082-.007s-.053,0-.081,0h-.061l-.057,0v1.032h-.383v-.938a.858.858,0,0,0-.252.167.943.943,0,0,0-.177.234,1.127,1.127,0,0,0-.108.29,1.566,1.566,0,0,0-.035.333,1.513,1.513,0,0,0,.083.52,1.118,1.118,0,0,0,.237.39,1.033,1.033,0,0,0,.369.247,1.286,1.286,0,0,0,.48.086H407.8v.624h-3.064v-.624h.6a1.486,1.486,0,0,1-.247-.232,1.632,1.632,0,0,1-.2-.3,1.76,1.76,0,0,1-.139-.354,1.459,1.459,0,0,1-.052-.385,1.683,1.683,0,0,1,.091-.553,1.6,1.6,0,0,1,.663-.839,1.778,1.778,0,0,1,.531-.226v-.454h.383v.393l.072,0h.142l.067,0v-.393h.382Z" fill="#373f51"/>
    </g>
  </g>
</svg>
