<svg xmlns="http://www.w3.org/2000/svg" width="20.172" height="18" viewBox="0 0 20.172 18">
  <g id="Group_46" data-name="Group 46" transform="translate(-289.486 -290.79)">
    <g id="Group_45" data-name="Group 45">
      <g id="Group_38" data-name="Group 38">
        <path id="Path_59" data-name="Path 59" d="M308.111,294.151H291.033a1.547,1.547,0,0,0-1.547,1.547v11.543a1.548,1.548,0,0,0,1.547,1.549h17.078a1.548,1.548,0,0,0,1.547-1.549V295.7A1.547,1.547,0,0,0,308.111,294.151Zm-8.539,11.827a4.508,4.508,0,1,1,4.51-4.507A4.508,4.508,0,0,1,299.572,305.978Z" fill="#373f51"/>
      </g>
      <g id="Group_40" data-name="Group 40">
        <g id="Group_39" data-name="Group 39">
          <path id="Path_60" data-name="Path 60" d="M296.551,293.05v-.666c0-.032,0-.064.005-.1.006-.055,0-.042-.006.037,0-.02.008-.042.013-.062.009-.04.082-.228.021-.086a.945.945,0,0,1,.088-.159c.059-.091-.072.087,0,0,.02-.024.041-.044.061-.067l.067-.061-.027.021.049-.034c.035-.022.217-.105.073-.047a1.215,1.215,0,0,1,.178-.053c.11-.022-.119.012-.005,0,.032,0,.064,0,.1-.005h4.822c.033,0,.066,0,.1.005.114.008-.116-.02,0,0,.03.006.06.015.092.024a.805.805,0,0,1,.087.029c-.133-.049-.036-.014-.007,0s.2.135.077.04a1.037,1.037,0,0,1,.132.124c.021.023.082.108,0-.005.018.025.035.05.05.075l.045.081c.05.1-.041-.108,0,0a1.4,1.4,0,0,1,.047.18c-.03-.155,0,.02,0,.061v.665a.492.492,0,0,0,.985,0,6.135,6.135,0,0,0-.035-.987,1.559,1.559,0,0,0-.453-.827,1.621,1.621,0,0,0-.945-.433,3.345,3.345,0,0,0-.436-.012h-4.52a1.61,1.61,0,0,0-1.455.888,3.1,3.1,0,0,0-.166,1.371.492.492,0,1,0,.984,0Z" fill="#373f51"/>
        </g>
      </g>
      <g id="Group_42" data-name="Group 42">
        <g id="Group_41" data-name="Group 41">
          <path id="Path_61" data-name="Path 61" d="M300.064,303.42v-3.887a.492.492,0,0,0-.984,0v3.887a.492.492,0,0,0,.984,0Z" fill="#373f51"/>
        </g>
      </g>
      <g id="Group_44" data-name="Group 44">
        <g id="Group_43" data-name="Group 43">
          <path id="Path_62" data-name="Path 62" d="M297.628,301.969h3.889a.492.492,0,0,0,0-.983h-3.889a.492.492,0,1,0,0,.983Z" fill="#373f51"/>
        </g>
      </g>
    </g>
  </g>
</svg>
