<svg xmlns="http://www.w3.org/2000/svg" width="21.86" height="18" viewBox="0 0 21.86 18">
  <g id="Group_48" data-name="Group 48" transform="translate(-337.918 -290.791)">
    <g id="Group_47" data-name="Group 47">
      <path id="Path_63" data-name="Path 63" d="M346.772,306.71a.814.814,0,0,0-.815-.814H339.8a.814.814,0,0,0-.816.814.793.793,0,0,0,.1.391h-1.171v1.689h9.925V307.1h-1.171A.8.8,0,0,0,346.772,306.71Z" fill="#373f51"/>
      <path id="Path_64" data-name="Path 64" d="M345.726,292.776l5.2,3.3a.891.891,0,0,0,1.155-.316l.25-.393a.889.889,0,0,0-.275-1.228L347,290.93a.89.89,0,0,0-1.23.274l-.249.393A.888.888,0,0,0,345.726,292.776Z" fill="#373f51"/>
      <path id="Path_65" data-name="Path 65" d="M359.775,305.392l0-.081-.005-.074c0-.048-.011-.1-.017-.14a2.3,2.3,0,0,0-.12-.487,1.6,1.6,0,0,0-.438-.658c-.046-.041-.094-.076-.142-.113l-.146-.108c-.1-.074-.194-.144-.292-.214s-.2-.141-.295-.209-.2-.139-.3-.207q-.3-.206-.6-.4l-.3-.2-.3-.194c-.2-.131-.406-.258-.611-.386s-.41-.253-.617-.377l-.62-.371-.625-.365-.628-.36-.631-.354-.634-.35-.637-.345c-.213-.114-.426-.228-.641-.339s-.428-.226-.643-.335l-.2.307-.984-.464,1.1-1.732-5.2-3.3-2.705,4.26,5.2,3.3,1.1-1.733.838.694-.2.307c.192.149.385.294.577.441s.386.29.581.434l.583.43.586.427.589.419.592.417.6.41.6.4q.3.2.6.4t.608.39l.306.192.308.189c.206.125.413.25.621.371.1.061.208.121.313.182s.209.119.316.178.21.117.317.172l.16.085a1.534,1.534,0,0,0,.162.082,1.591,1.591,0,0,0,.783.116,2.276,2.276,0,0,0,.491-.1c.044-.014.088-.027.135-.045l.07-.027.073-.03a2.941,2.941,0,0,0,.314-.156A2.8,2.8,0,0,0,359.775,305.392Z" fill="#373f51"/>
      <path id="Path_66" data-name="Path 66" d="M340.932,300.483l5.056,3.211a.891.891,0,0,0,1.229-.273l.25-.393a.891.891,0,0,0-.205-1.18l-5.2-3.3a.891.891,0,0,0-1.155.317l-.249.393A.89.89,0,0,0,340.932,300.483Z" fill="#373f51"/>
    </g>
  </g>
</svg>
