<?xml version="1.0" encoding="utf-8"?>
<!-- Generator: Adobe Illustrator 16.0.0, SVG Export Plug-In . SVG Version: 6.00 Build 0)  -->
<!DOCTYPE svg PUBLIC "-//W3C//DTD SVG 1.1//EN" "http://www.w3.org/Graphics/SVG/1.1/DTD/svg11.dtd">
<svg version="1.1" id="Layer_1" xmlns="http://www.w3.org/2000/svg" xmlns:xlink="http://www.w3.org/1999/xlink" x="0px" y="0px"
	 width="25px" height="19px" viewBox="0 0 25 19" enable-background="new 0 0 25 19" xml:space="preserve">
<g>
	<g>
		<path fill="#373F51" d="M10.424,16.92c0-0.451-0.365-0.814-0.815-0.814H3.456c-0.45,0-0.815,0.363-0.815,0.814
			c0,0.143,0.036,0.275,0.101,0.391H1.57V19h9.925v-1.689h-1.171C10.388,17.195,10.424,17.062,10.424,16.92z"/>
		<path fill="#373F51" d="M9.377,2.986l5.2,3.302c0.404,0.206,0.906,0.074,1.154-0.316l0.25-0.393
			c0.264-0.415,0.141-0.965-0.275-1.229L10.651,1.14c-0.416-0.264-0.966-0.142-1.23,0.274L9.172,1.807
			C8.924,2.197,9.018,2.708,9.377,2.986z"/>
		<path fill="#373F51" d="M23.427,15.602l-0.004-0.08l-0.006-0.074c-0.004-0.049-0.01-0.096-0.016-0.141
			c-0.025-0.186-0.068-0.344-0.121-0.486c-0.105-0.283-0.254-0.498-0.438-0.658c-0.045-0.041-0.094-0.076-0.143-0.113l-0.145-0.107
			c-0.098-0.074-0.195-0.145-0.293-0.215s-0.195-0.141-0.295-0.209c-0.098-0.07-0.197-0.139-0.297-0.207
			c-0.199-0.137-0.398-0.271-0.6-0.404l-0.303-0.198l-0.305-0.194c-0.203-0.131-0.406-0.258-0.611-0.386
			c-0.205-0.127-0.41-0.253-0.617-0.377l-0.619-0.371l-0.625-0.365l-0.629-0.359l-0.631-0.354l-0.633-0.35L15.46,9.606
			c-0.213-0.114-0.426-0.229-0.641-0.34c-0.213-0.112-0.428-0.226-0.643-0.335l-0.195,0.308l-0.984-0.464l1.1-1.732L8.898,3.741
			l-2.705,4.26l5.199,3.302l1.102-1.732l0.838,0.693l-0.195,0.308c0.191,0.148,0.385,0.294,0.576,0.44
			c0.193,0.146,0.387,0.29,0.58,0.435l0.584,0.43l0.586,0.427l0.59,0.419l0.592,0.417l0.596,0.41l0.6,0.402
			c0.199,0.135,0.402,0.268,0.604,0.398s0.404,0.262,0.609,0.391l0.305,0.191l0.309,0.189c0.205,0.125,0.412,0.25,0.621,0.371
			c0.104,0.061,0.207,0.121,0.312,0.182c0.105,0.059,0.209,0.119,0.316,0.178c0.105,0.057,0.209,0.117,0.316,0.172l0.16,0.086
			c0.053,0.029,0.107,0.059,0.162,0.082c0.225,0.098,0.482,0.141,0.783,0.115c0.15-0.014,0.312-0.041,0.49-0.098
			c0.045-0.014,0.088-0.027,0.137-0.045l0.068-0.027l0.074-0.029c0.096-0.041,0.199-0.092,0.312-0.156
			C23.431,15.822,23.433,15.705,23.427,15.602z"/>
		<path fill="#373F51" d="M4.583,10.693l5.057,3.211c0.415,0.264,0.964,0.141,1.228-0.273l0.25-0.393
			c0.248-0.392,0.154-0.902-0.205-1.181l-5.2-3.303C5.309,8.549,4.807,8.681,4.558,9.072L4.309,9.465
			C4.045,9.88,4.168,10.43,4.583,10.693z"/>
	</g>
</g>
</svg>
