<svg xmlns="http://www.w3.org/2000/svg" width="25" height="13.215" viewBox="0 0 25 13.215">
  <g id="Group_37" data-name="Group 37" transform="translate(-362.875 -296.022)">
    <path id="Path_56" data-name="Path 56" d="M387.875,304.771a7.412,7.412,0,0,0-6.957-.169c-1.813.768-3.517,1.79-5.29,2.654A21.992,21.992,0,0,1,371.679,309c-2.951.768-5.393-.38-7.443-2.483a8.807,8.807,0,0,1-1.361-1.837c.336.25.666.507,1.008.749a6.2,6.2,0,0,0,6.806.509c1.033-.523,2.029-1.128,3.007-1.753a13.67,13.67,0,0,1,8.446-2.352A7.626,7.626,0,0,1,387.875,304.771Z" fill="#373f51"/>
    <path id="Path_57" data-name="Path 57" d="M381.847,301.482c-4.2-.172-7.671,1.777-10.832,4.049a2.194,2.194,0,0,1,1.033-2.925c1.787-1.021,3.585-2.024,5.378-3.035.177-.1.353-.2.618-.355l-1.138-1.03-3.183,1.768c-.213.119-.422.25-.645.347a.942.942,0,0,1-1.24-.461.877.877,0,0,1,.263-1.246c1.494-.876,3-1.732,4.542-2.521a1.2,1.2,0,0,1,1.048.212c1.2,1.012,2.354,2.078,3.5,3.152A2.385,2.385,0,0,1,381.847,301.482Z" fill="#373f51"/>
    <path id="Path_58" data-name="Path 58" d="M383.747,301.12a1.931,1.931,0,1,1,1.908-1.923A1.953,1.953,0,0,1,383.747,301.12Z" fill="#373f51"/>
  </g>
</svg>
