<svg xmlns="http://www.w3.org/2000/svg" width="24.469" height="15.86" viewBox="0 0 24.469 15.86">
  <g id="Group_27" data-name="Group 27" transform="translate(-258.234 -291.79)">
    <path id="Path_40" data-name="Path 40" d="M270.1,291.9a4.65,4.65,0,0,0-2.51,2.3,3.988,3.988,0,0,0-.161,2.14c.037.061,0,.16-.111.2a.554.554,0,0,0-.259.271,3.616,3.616,0,0,0,.47,1.9,4.08,4.08,0,0,1,.444.964,5.028,5.028,0,0,0,.4.978.8.8,0,0,1,.111.815c-.111.346-.247.446-1.088.779-.52.2-1.434.507-2.015.692a4.126,4.126,0,0,0-1.274.557,3.11,3.11,0,0,0-.568,1.954v.754l1.026.4a22.651,22.651,0,0,0,2.373.717,22.879,22.879,0,0,0,7.79,0,19.177,19.177,0,0,0,2.411-.742l1.051-.409-.013-.89c-.037-1.533-.42-1.928-2.386-2.51-2.6-.767-2.942-1.137-2.324-2.411a3.374,3.374,0,0,0,.334-.854,1.015,1.015,0,0,1,.3-.482,2.657,2.657,0,0,0,.556-1.743c-.012-.211-.012-.939,0-1.621a3.016,3.016,0,0,0-.259-1.792,1.829,1.829,0,0,0-.619-.717,1.177,1.177,0,0,1-.469-.4,2.368,2.368,0,0,0-.692-.569A3.668,3.668,0,0,0,270.1,291.9Z" transform="translate(-0.356)" fill="#373f51"/>
    <path id="Path_41" data-name="Path 41" d="M262.1,293.421a2.364,2.364,0,0,0-1.4,1.533,14.436,14.436,0,0,0-.235,1.954c-.111,1.509-.222,1.916-.667,2.262-.247.211-.247.211.271.469a3.907,3.907,0,0,0,1.138.347c.531.063.605.111.605.358,0,.3-.223.409-2.126,1.026-1.138.371-1.46.767-1.46,1.743,0,.656.037.756.347.965a6.52,6.52,0,0,0,2.348.842c1.126.209,1.509.222,1.558.013.025-.075.112-.384.187-.681a3.092,3.092,0,0,1,.592-1.025c.371-.41.619-.533,1.645-.855.668-.209,1.422-.457,1.682-.568.519-.223.445-.334-.383-.544a10.693,10.693,0,0,1-1.138-.4c-.531-.21-.655-.31-.655-.544s.063-.3.346-.3a3.675,3.675,0,0,0,1.756-.557c.124-.147.111-.2-.049-.26-.47-.173-.618-.778-.643-2.459-.013-2.127-.309-2.807-1.273-2.98a2.508,2.508,0,0,1-.692-.247A2.234,2.234,0,0,0,262.1,293.421Z" transform="translate(0 -0.101)" fill="#373f51"/>
    <path id="Path_42" data-name="Path 42" d="M277.97,293.368c-1.188.42-1.547,1.088-1.682,3.165a7.11,7.11,0,0,1-.408,2.261l-.3.742.37.187a3.509,3.509,0,0,0,.977.259c.52.063.606.111.606.346,0,.3-.322.47-1.78.94-.816.258-.841.271-.558.42a13.119,13.119,0,0,0,1.411.494,5.892,5.892,0,0,1,2.114.828,2.958,2.958,0,0,1,.853,1.62c.087.409.124.457.482.457a11.182,11.182,0,0,0,2.893-.729c.779-.4.927-.644.866-1.435-.074-.89-.371-1.2-1.5-1.546-1.594-.507-2.065-.742-2.065-1.05,0-.235.087-.284.594-.346.593-.074,1.508-.421,1.508-.593a.65.65,0,0,0-.2-.247c-.433-.358-.544-.816-.544-2.238a10.615,10.615,0,0,0-.136-1.892c-.174-.593-.841-1.3-1.249-1.3a2.292,2.292,0,0,1-.778-.248A1.653,1.653,0,0,0,277.97,293.368Z" transform="translate(-1.127 -0.097)" fill="#373f51"/>
  </g>
</svg>
