<?xml version="1.0" encoding="utf-8"?>
<!-- Generator: Adobe Illustrator 16.0.0, SVG Export Plug-In . SVG Version: 6.00 Build 0)  -->
<!DOCTYPE svg PUBLIC "-//W3C//DTD SVG 1.1//EN" "http://www.w3.org/Graphics/SVG/1.1/DTD/svg11.dtd">
<svg version="1.1" id="Layer_1" xmlns="http://www.w3.org/2000/svg" xmlns:xlink="http://www.w3.org/1999/xlink" x="0px" y="0px"
	 width="25px" height="19px" viewBox="0 0 25 19" enable-background="new 0 0 25 19" xml:space="preserve">
<g>
	<path fill="#373F51" d="M22.64,11.833c0.371-0.247,0.471-0.748,0.223-1.117L20.04,6.495c-0.373-0.559-0.944-0.85-1.545-0.85h-1.211
		c-0.694,0-1.25,0.42-1.604,0.967c-0.035,0.055,0.176-0.268-2.759,4.102c-0.248,0.37-0.148,0.871,0.222,1.118
		c0.367,0.249,0.869,0.15,1.117-0.221l1.211-1.8l0.002,8.18c0,0.557,0.449,1.009,1.006,1.009s1.01-0.452,1.01-1.009v-4.535h0.807
		v4.535c0,0.557,0.451,1.009,1.009,1.009c0.557,0,1.008-0.452,1.008-1.009c0-8.692-0.002-8.129-0.002-8.194l1.213,1.814
		C21.771,11.98,22.271,12.081,22.64,11.833z"/>
	<path fill="#373F51" d="M17.892,4.864c1.068,0,1.934-0.865,1.934-1.933c0-0.696-0.369-1.306-0.922-1.646
		c0.115-0.082,0.248-0.156,0.404-0.22c0.066-0.026,0.111-0.089,0.115-0.161c0.002-0.07-0.035-0.137-0.1-0.17
		c-0.306-0.158-0.679-0.162-1.029-0.095c0.059-0.111,0.135-0.226,0.229-0.341c0.048-0.055,0.058-0.131,0.025-0.195
		C18.521,0.04,18.454-0.001,18.384,0c-0.707,0.008-1.355,0.724-1.613,1.152c-0.059,0.099-0.105,0.204-0.133,0.311
		c-0.414,0.354-0.678,0.881-0.678,1.469C15.96,3.999,16.825,4.864,17.892,4.864z"/>
	<path fill="#373F51" d="M9.289,6.566C8.94,6.038,8.386,5.646,7.71,5.646H6.5c-0.688,0-1.289,0.383-1.596,0.949
		c-0.037,0.053-2.729,4.064-2.766,4.119c-0.248,0.37-0.15,0.871,0.22,1.118c0.369,0.249,0.87,0.15,1.12-0.221l1.207-1.799v0.022
		l-1.096,4.477c-0.052,0.209-0.004,0.43,0.129,0.6c0.132,0.168,0.335,0.267,0.549,0.267h0.421v2.815C4.687,18.548,5.139,19,5.695,19
		c0.556,0,1.009-0.452,1.009-1.009v-2.815H7.51v2.815C7.51,18.548,7.961,19,8.517,19s1.009-0.452,1.009-1.009v-2.815h0.416
		c0.215,0,0.418-0.099,0.55-0.267c0.133-0.17,0.18-0.392,0.129-0.601L9.524,9.834l0,0V9.806l1.214,1.807
		c0.246,0.369,0.748,0.469,1.117,0.22c0.369-0.247,0.471-0.748,0.221-1.118C9.1,6.278,9.323,6.619,9.289,6.566z"/>
	<path fill="#373F51" d="M3.253,5.455c0.069,0.006,0.138-0.03,0.173-0.092c0.531-0.937,1.362-0.858,1.551-1.204
		c0.024-0.047,0.045-0.097,0.06-0.146C5.094,4.073,5.174,4.11,5.259,4.11c0.033,0,0.065-0.006,0.099-0.018
		c0.057-0.02,0.104-0.055,0.136-0.098c0.347,0.523,0.94,0.869,1.613,0.869c0.676,0,1.27-0.346,1.613-0.869
		c0.035,0.044,0.081,0.079,0.137,0.099c0.031,0.012,0.065,0.018,0.1,0.018c0.085,0,0.164-0.037,0.221-0.098
		c0.015,0.05,0.035,0.1,0.061,0.146c0.187,0.346,1.02,0.268,1.549,1.204c0.037,0.062,0.104,0.098,0.176,0.092
		c0.07-0.006,0.131-0.052,0.156-0.12c0.242-0.663-0.199-1.521-0.51-1.914c-0.266-0.338-0.676-0.522-1.055-0.317
		C9.542,3.112,9.528,3.12,9.517,3.128l0.002-0.009c0.056-0.157-0.027-0.331-0.185-0.386c-0.106-0.037-0.22-0.01-0.3,0.061
		C8.963,1.792,8.128,0.999,7.107,0.999S5.25,1.792,5.18,2.794C5.1,2.724,4.987,2.696,4.879,2.733
		C4.723,2.788,4.64,2.962,4.695,3.119l0.003,0.009C4.685,3.12,4.673,3.112,4.659,3.104C4.281,2.899,3.871,3.083,3.605,3.421
		c-0.31,0.392-0.751,1.251-0.509,1.914C3.119,5.403,3.181,5.449,3.253,5.455z"/>
</g>
</svg>
