<?xml version="1.0" encoding="utf-8"?>
<!-- Generator: Adobe Illustrator 16.0.0, SVG Export Plug-In . SVG Version: 6.00 Build 0)  -->
<!DOCTYPE svg PUBLIC "-//W3C//DTD SVG 1.1//EN" "http://www.w3.org/Graphics/SVG/1.1/DTD/svg11.dtd">
<svg version="1.1" id="Layer_1" xmlns="http://www.w3.org/2000/svg" xmlns:xlink="http://www.w3.org/1999/xlink" x="0px" y="0px"
	 width="10px" height="12.952px" viewBox="0 0 10 12.952" enable-background="new 0 0 10 12.952" xml:space="preserve">
<g>
	<path fill="#373F51" d="M5,0C2.251,0,0,2.203,0,4.92c0,1.079,0.36,2.094,1,2.944l3.778,5.029c0.082,0.115,0.277,0.141,0.387,0.059
		c0.03-0.029,0.03-0.029,0.057-0.059L9,7.864c0.64-0.85,1-1.865,1-2.944C10,2.203,7.749,0,5,0z M4.61,6.842
		C3.557,6.62,2.86,5.598,3.082,4.525C3.307,3.447,4.305,2.744,5.36,2.969c0.777,0.172,1.39,0.765,1.527,1.557
		c0.196,1.073-0.501,2.12-1.527,2.317C5.109,6.899,4.86,6.899,4.61,6.842z"/>
</g>
</svg>
