<svg xmlns="http://www.w3.org/2000/svg" width="32.836" height="34.575" viewBox="0 0 32.836 34.575">
  <g id="men-and-women-toilet" transform="translate(-12.5)">
    <path id="Path_89" data-name="Path 89" d="M15.352,128.949a1.276,1.276,0,0,0,1.426,1.461,1.276,1.276,0,0,0,1.426-1.461V115.8h1.461v13.148a1.276,1.276,0,0,0,1.426,1.461,1.276,1.276,0,0,0,1.426-1.461v-22.4h.7v8.07a1.24,1.24,0,0,0,.522,1.113.923.923,0,0,0,1.078,0,1.215,1.215,0,0,0,.557-1.113v-8.7a2.625,2.625,0,0,0-.939-2.157A4.02,4.02,0,0,0,21.822,103h-5.7a4.5,4.5,0,0,0-2.609.7,2.438,2.438,0,0,0-1.009,2.157V115.1a.941.941,0,0,0,.557.9,1.114,1.114,0,0,0,1.078,0,.949.949,0,0,0,.522-.9v-8.557h.7Z" transform="translate(0 -95.835)" fill="#373f51"/>
    <path id="Path_90" data-name="Path 90" d="M253.339,118.3l-4.174-11.548a.2.2,0,0,1-.07-.139.307.307,0,0,1,.348-.348q.209,0,.278.278l2.852,7.444a1.5,1.5,0,0,0,1.53.765q.417,0,.591-.626a3.994,3.994,0,0,0,.174-.835l-2.922-7.165A3.226,3.226,0,0,0,250.7,103.9a3.963,3.963,0,0,0-2.574-.9h-3.687a4.008,4.008,0,0,0-2.609.939,3.562,3.562,0,0,0-1.357,2.191l-2.713,7.235q-.139.209.07.8t.626.591q1.322,0,1.531-.7l2.783-7.513a.273.273,0,0,1,.278-.209.246.246,0,0,1,.278.278v.07l-4.1,11.618v.9q0,.139.348.487t.487.348H242.7v8.974a1.288,1.288,0,0,0,.452.974,1.453,1.453,0,0,0,1.009.417,1.427,1.427,0,0,0,1.391-1.391V119.7q0-.07.383-.1a3.846,3.846,0,0,1,.73,0q.348.035.348.1v9.252a1.452,1.452,0,0,0,.417,1.009,1.351,1.351,0,0,0,2.017,0,1.452,1.452,0,0,0,.417-1.009v-8.9h2.713q.209,0,.487-.348a1.067,1.067,0,0,0,.278-.487v-.9Z" transform="translate(-209.534 -95.835)" fill="#373f51"/>
    <path id="Path_91" data-name="Path 91" d="M61.5,2.957a2.846,2.846,0,0,0,.87,2.087,2.939,2.939,0,0,0,4.174,0,2.887,2.887,0,0,0,.87-2.122A2.806,2.806,0,0,0,66.544.87a2.939,2.939,0,0,0-4.174,0A2.846,2.846,0,0,0,61.5,2.957Z" transform="translate(-45.591)" fill="#373f51"/>
    <path id="Path_92" data-name="Path 92" d="M317.5,2.957a2.846,2.846,0,0,0,.87,2.087,2.939,2.939,0,0,0,4.174,0,2.846,2.846,0,0,0,.87-2.087,2.846,2.846,0,0,0-.87-2.087,2.939,2.939,0,0,0-4.174,0A2.846,2.846,0,0,0,317.5,2.957Z" transform="translate(-283.782)" fill="#373f51"/>
  </g>
</svg>
