<svg xmlns="http://www.w3.org/2000/svg" xmlns:xlink="http://www.w3.org/1999/xlink" width="56" height="56" viewBox="0 0 56 56"><defs><path id="1xjea" d="M809.115 876.177l-49.456-49.457a2.163 2.163 0 0 0-3.07 0 2.163 2.163 0 0 0 0 3.069l49.457 49.456c.42.42.978.641 1.535.641.557 0 1.114-.21 1.534-.64a2.163 2.163 0 0 0 0-3.07z"/><path id="1xjeb" d="M803.083 871.037h-40.46a2.323 2.323 0 0 1-2.323-2.322v-24.728a2.323 2.323 0 0 1 2.322-2.323h6.747a2.18 2.18 0 0 0 2.175-2.175 2.18 2.18 0 0 0-2.175-2.176h-6.747c-3.678.01-6.673 2.996-6.673 6.674v24.728a6.683 6.683 0 0 0 6.673 6.673h40.471a2.18 2.18 0 0 0 2.176-2.175 2.182 2.182 0 0 0-2.186-2.176z"/><path id="1xjec" d="M803.083 837.324h-7.83l-3.846-5.78a2.156 2.156 0 0 0-1.808-.967h-13.494a2.18 2.18 0 0 0-2.175 2.175 2.18 2.18 0 0 0 2.175 2.176h12.328l3.846 5.78c.4.61 1.083.967 1.808.967h8.996a2.323 2.323 0 0 1 2.322 2.322v20.998a2.18 2.18 0 0 0 2.176 2.175 2.18 2.18 0 0 0 2.175-2.175v-21.008c0-3.678-2.995-6.663-6.673-6.663z"/><path id="1xjed" d="M791.449 858.563a2.165 2.165 0 0 0-3.016.568c-2.123 3.1-6.38 3.898-9.48 1.776-3.1-2.123-3.898-6.38-1.776-9.48a6.641 6.641 0 0 1 1.776-1.776 2.176 2.176 0 0 0 .568-3.016 2.176 2.176 0 0 0-3.016-.567 11.275 11.275 0 0 0-2.911 2.91c-3.479 5.087-2.176 12.044 2.91 15.523a11.12 11.12 0 0 0 6.285 1.944c3.563 0 7.073-1.703 9.227-4.855a2.167 2.167 0 0 0-.567-3.027z"/></defs><g><g transform="translate(-755 -825)"><g><g><g><use fill="#f38d68" xlink:href="#1xjea"/><use fill="#fff" fill-opacity="0" stroke="#707070" stroke-dasharray="3 3" stroke-miterlimit="50" stroke-width=".3" xlink:href="#1xjea"/></g></g></g><g><g><g><use fill="#f38d68" xlink:href="#1xjeb"/><use fill="#fff" fill-opacity="0" stroke="#707070" stroke-dasharray="3 3" stroke-miterlimit="50" stroke-width=".3" xlink:href="#1xjeb"/></g></g></g><g><g><g><use fill="#f38d68" xlink:href="#1xjec"/><use fill="#fff" fill-opacity="0" stroke="#707070" stroke-dasharray="3 3" stroke-miterlimit="50" stroke-width=".3" xlink:href="#1xjec"/></g></g></g><g><g><g><use fill="#f38d68" xlink:href="#1xjed"/><use fill="#fff" fill-opacity="0" stroke="#707070" stroke-dasharray="3 3" stroke-miterlimit="50" stroke-width=".3" xlink:href="#1xjed"/></g></g></g></g></g></svg>