<?xml version="1.0" encoding="utf-8"?>
<!-- Generator: Adobe Illustrator 16.0.0, SVG Export Plug-In . SVG Version: 6.00 Build 0)  -->
<!DOCTYPE svg PUBLIC "-//W3C//DTD SVG 1.1//EN" "http://www.w3.org/Graphics/SVG/1.1/DTD/svg11.dtd">
<svg version="1.1" id="Layer_1" xmlns="http://www.w3.org/2000/svg" xmlns:xlink="http://www.w3.org/1999/xlink" x="0px" y="0px"
	 width="47px" height="24px" viewBox="0 0 47 24" enable-background="new 0 0 47 24" xml:space="preserve">
<g>
	<rect x="1" y="2" fill="#FFFFFF" width="21" height="21"/>
	<path fill="#E2E2E2" d="M23,23H1V1h22V23z M2,22h20V2H2V22z"/>
</g>
<g>
	<rect x="24" y="2" fill="#FFFFFF" width="21" height="21"/>
	<path fill="#E2E2E2" d="M46,23H24V1h22V23z M25,22h20V2H25V22z"/>
</g>
<g>
	<path fill="#F38D68" d="M43,18c0,1.1-0.9,2-2,2H29c-1.1,0-2-0.9-2-2V6c0-1.1,0.9-2,2-2h12c1.1,0,2,0.9,2,2V18z"/>
</g>
</svg>
