<svg xmlns="http://www.w3.org/2000/svg" width="35.289" height="31.932" viewBox="0 0 35.289 31.932">
  <g id="Group_22" data-name="Group 22" transform="translate(-314.005 -289.79)">
    <path id="Path_35" data-name="Path 35" d="M341.352,305.835a1.352,1.352,0,0,0,.373-1.877l-4.743-7.094a3.1,3.1,0,0,0-2.6-1.429H332.35a3.251,3.251,0,0,0-2.694,1.625c-.061.092.292-.449-4.637,6.894a1.355,1.355,0,0,0,2.25,1.509l2.034-3.025,0,13.746a1.693,1.693,0,1,0,3.387,0v-7.622h1.358v7.622a1.692,1.692,0,1,0,3.385,0c0-14.608,0-13.662,0-13.771l2.04,3.049A1.352,1.352,0,0,0,341.352,305.835Z" transform="translate(7.34 3.842)" fill="#373f51"/>
    <path id="Path_36" data-name="Path 36" d="M331.209,297.965a3.247,3.247,0,0,0,1.7-6.013,3.392,3.392,0,0,1,.679-.37.3.3,0,0,0,.193-.269.308.308,0,0,0-.166-.287,2.682,2.682,0,0,0-1.729-.158,3.341,3.341,0,0,1,.387-.575.3.3,0,0,0-.237-.5,3.838,3.838,0,0,0-2.711,1.936,2.021,2.021,0,0,0-.222.523,3.246,3.246,0,0,0,2.106,5.716Z" transform="translate(9.501 0)" fill="#373f51"/>
    <path id="Path_37" data-name="Path 37" d="M326.254,296.983a3.215,3.215,0,0,0-2.654-1.548h-2.034a3.049,3.049,0,0,0-2.682,1.6c-.062.091-4.586,6.83-4.649,6.923a1.355,1.355,0,1,0,2.25,1.509l2.03-3.025v.037L316.674,310a1.174,1.174,0,0,0,1.138,1.455h.708v4.731a1.695,1.695,0,1,0,3.39,0v-4.731h1.355v4.731a1.694,1.694,0,1,0,3.388,0v-4.731h.7A1.174,1.174,0,0,0,328.492,310l-1.844-7.523h0v-.047l2.04,3.035a1.354,1.354,0,1,0,2.249-1.509C325.934,296.5,326.311,297.072,326.254,296.983Z" transform="translate(0 3.842)" fill="#373f51"/>
    <path id="Path_38" data-name="Path 38" d="M315.411,298.277a.309.309,0,0,0,.291-.155c.892-1.575,2.289-1.442,2.605-2.022a1.476,1.476,0,0,0,.1-.247.517.517,0,0,0,.375.163.5.5,0,0,0,.393-.193,3.248,3.248,0,0,0,5.423,0,.511.511,0,0,0,.23.165.479.479,0,0,0,.168.029.507.507,0,0,0,.371-.163,1.341,1.341,0,0,0,.1.247c.314.58,1.714.447,2.6,2.022a.309.309,0,0,0,.558-.045,3.842,3.842,0,0,0-.857-3.22,1.407,1.407,0,0,0-1.773-.531l-.066.04,0-.015a.506.506,0,0,0-.813-.548,3.246,3.246,0,0,0-6.476,0,.518.518,0,0,0-.506-.1.511.511,0,0,0-.311.649l.005.015-.066-.04a1.4,1.4,0,0,0-1.771.531,3.836,3.836,0,0,0-.855,3.22A.3.3,0,0,0,315.411,298.277Z" transform="translate(0.698 0.681)" fill="#373f51"/>
  </g>
</svg>
