<?xml version="1.0" encoding="utf-8"?>
<!-- Generator: Adobe Illustrator 16.0.0, SVG Export Plug-In . SVG Version: 6.00 Build 0)  -->
<!DOCTYPE svg PUBLIC "-//W3C//DTD SVG 1.1//EN" "http://www.w3.org/Graphics/SVG/1.1/DTD/svg11.dtd">
<svg version="1.1" id="Layer_1" xmlns="http://www.w3.org/2000/svg" xmlns:xlink="http://www.w3.org/1999/xlink" x="0px" y="0px"
	 width="36px" height="36px" viewBox="0 0 36 36" enable-background="new 0 0 36 36" xml:space="preserve">
<g>
	<path fill="#F38D68" d="M24.469,25.969c-0.373,0-0.745-0.143-1.036-0.431l-13-12.885c-0.599-0.594-0.622-1.58-0.049-2.202
		c0.571-0.621,1.521-0.645,2.121-0.051l13,12.884c0.599,0.595,0.622,1.58,0.049,2.203C25.26,25.808,24.865,25.969,24.469,25.969z"/>
	<path fill="#F38D68" d="M11.469,25.969c-0.396,0-0.791-0.161-1.085-0.481c-0.572-0.623-0.55-1.608,0.049-2.203l13-12.884
		c0.6-0.594,1.549-0.573,2.121,0.051c0.572,0.622,0.55,1.608-0.049,2.202l-13,12.885C12.214,25.826,11.842,25.969,11.469,25.969z"/>
	<path fill="#373F51" d="M18,36C8.075,36,0,27.925,0,18S8.075,0,18,0s18,8.075,18,18S27.925,36,18,36z M18,1.002
		C8.627,1.002,1.002,8.627,1.002,18c0,9.372,7.625,16.997,16.998,16.997S34.998,27.372,34.998,18
		C34.998,8.627,27.373,1.002,18,1.002z"/>
</g>
</svg>
