<?xml version="1.0" encoding="utf-8"?>
<!-- Generator: Adobe Illustrator 21.0.0, SVG Export Plug-In . SVG Version: 6.00 Build 0)  -->
<svg version="1.1" id="Layer_1" xmlns="http://www.w3.org/2000/svg" xmlns:xlink="http://www.w3.org/1999/xlink" x="0px" y="0px"
	 viewBox="0 0 2091 2091" style="enable-background:new 0 0 2091 2091;" xml:space="preserve">
<style type="text/css">
	.st0{fill:#FFFFFF;}
</style>
<path class="st0" d="M1037.3,1440l116-116l-152-152l-116,116v56h96v96H1037.3z M1477.3,720c-10.7-10.7-21.7-10.3-33,1l-350,350
	c-11.3,11.3-11.7,22.3-1,33s21.7,10.3,33-1l350-350C1487.7,741.7,1488,730.7,1477.3,720z M1557.3,1314v190
	c0,79.3-28.2,147.2-84.5,203.5s-124.2,84.5-203.5,84.5h-832c-79.3,0-147.2-28.2-203.5-84.5s-84.5-124.2-84.5-203.5V672
	c0-79.3,28.2-147.2,84.5-203.5S358,384,437.3,384h832c42,0,81,8.3,117,25c10,4.7,16,12.3,18,23c2,11.3-1,21-9,29l-49,49
	c-9.3,9.3-20,12-32,8c-15.3-4-30.3-6-45-6h-832c-44,0-81.7,15.7-113,47s-47,69-47,113v832c0,44,15.7,81.7,47,113s69,47,113,47h832
	c44,0,81.7-15.7,113-47s47-69,47-113v-126c0-8.7,3-16,9-22l64-64c10-10,21.7-12.3,35-7S1557.3,1300,1557.3,1314z M1461.3,576
	l288,288l-672,672h-288v-288L1461.3,576z M1905.3,708l-92,92l-288-288l92-92c18.7-18.7,41.3-28,68-28s49.3,9.3,68,28l152,152
	c18.7,18.7,28,41.3,28,68S1924,689.3,1905.3,708z"/>
</svg>
