<?xml version="1.0" encoding="utf-8"?>
<!-- Generator: Adobe Illustrator 16.0.0, SVG Export Plug-In . SVG Version: 6.00 Build 0)  -->
<!DOCTYPE svg PUBLIC "-//W3C//DTD SVG 1.1//EN" "http://www.w3.org/Graphics/SVG/1.1/DTD/svg11.dtd">
<svg version="1.1" id="Layer_1" xmlns="http://www.w3.org/2000/svg" xmlns:xlink="http://www.w3.org/1999/xlink" x="0px" y="0px"
	 width="12px" height="9.001px" viewBox="-2.625 0 12 9.001" enable-background="new -2.625 0 12 9.001" xml:space="preserve">
<path fill="#373F51" d="M-2.625,7.689V1.313c0.009-0.025,0.018-0.051,0.023-0.076c0.123-0.707,0.738-1.234,1.456-1.234
	c3.014-0.004,6.027-0.004,9.041,0c0.684,0,1.274,0.479,1.436,1.143c0.014,0.057,0.03,0.111,0.044,0.168v6.375
	C9.367,7.707,9.359,7.722,9.354,7.742C9.243,8.363,8.811,8.843,8.196,8.958C7.907,9.013,7.605,9,7.31,9
	C4.504,9.001,1.696,9.001-1.11,9C-1.8,9-2.38,8.562-2.567,7.912C-2.589,7.839-2.606,7.765-2.625,7.689z M1.458,4.392
	C1.271,4.577,1.094,4.751,0.919,4.929L-0.99,6.833c-0.116,0.113-0.169,0.245-0.12,0.403c0.086,0.285,0.422,0.354,0.647,0.131
	c0.793-0.79,1.585-1.583,2.377-2.377C1.943,4.954,1.97,4.917,1.993,4.88C2.059,4.94,2.103,4.978,2.146,5.015L3.1,5.882
	C3.28,6.046,3.471,6.044,3.652,5.88c0.33-0.299,0.66-0.598,0.99-0.896c0.029-0.029,0.062-0.057,0.101-0.09
	c0.299,0.299,0.59,0.592,0.882,0.885l1.59,1.59c0.107,0.107,0.231,0.158,0.382,0.117c0.292-0.078,0.375-0.418,0.154-0.639
	C7.22,6.312,6.687,5.778,6.152,5.245C5.868,4.962,5.583,4.679,5.293,4.39c0.038-0.035,0.068-0.064,0.101-0.094l1.161-1.055
	l1.188-1.08c0.114-0.104,0.16-0.231,0.122-0.38C7.834,1.647,7.73,1.542,7.598,1.511c-0.15-0.039-0.271,0.016-0.385,0.117
	c-1.246,1.136-2.494,2.27-3.744,3.404C3.439,5.06,3.406,5.087,3.373,5.116L1.587,3.493C0.899,2.87,0.211,2.245-0.477,1.62
	c-0.108-0.099-0.23-0.146-0.375-0.105c-0.133,0.032-0.235,0.137-0.266,0.27c-0.036,0.15,0.012,0.277,0.127,0.381
	c0.492,0.445,0.983,0.893,1.474,1.338L1.458,4.392z"/>
</svg>
