<?xml version="1.0" encoding="utf-8"?>
<!-- Generator: Adobe Illustrator 16.0.0, SVG Export Plug-In . SVG Version: 6.00 Build 0)  -->
<!DOCTYPE svg PUBLIC "-//W3C//DTD SVG 1.1//EN" "http://www.w3.org/Graphics/SVG/1.1/DTD/svg11.dtd">
<svg version="1.1" id="Layer_1" xmlns="http://www.w3.org/2000/svg" xmlns:xlink="http://www.w3.org/1999/xlink" x="0px" y="0px"
	 width="26px" height="26px" viewBox="0 0 26 26" enable-background="new 0 0 26 26" xml:space="preserve">
<path fill="#36609F" d="M13,0C5.822,0,0,5.82,0,13s5.822,13,13,13c7.179,0,13-5.82,13-13S20.179,0,13,0z M15.783,13.006h-1.82
	c0,2.908,0,6.494,0,6.494h-2.7c0,0,0-3.549,0-6.494H9.98v-2.297h1.282V9.224c0-1.062,0.504-2.724,2.725-2.724l1.998,0.007v2.229
	c0,0-1.215,0-1.447,0c-0.237,0-0.575,0.118-0.575,0.626v1.347h2.059L15.783,13.006z"/>
</svg>
