<?xml version="1.0" encoding="utf-8"?>
<!-- Generator: Adobe Illustrator 16.0.0, SVG Export Plug-In . SVG Version: 6.00 Build 0)  -->
<!DOCTYPE svg PUBLIC "-//W3C//DTD SVG 1.1//EN" "http://www.w3.org/Graphics/SVG/1.1/DTD/svg11.dtd">
<svg version="1.1" id="Layer_1" xmlns="http://www.w3.org/2000/svg" xmlns:xlink="http://www.w3.org/1999/xlink" x="0px" y="0px"
	 width="80px" height="25px" viewBox="0 0 80 25" enable-background="new 0 0 80 25" xml:space="preserve">
<path fill="#E8C26B" d="M40,4.554l2.225,4.554l0.463,0.947l1.043,0.153l5.006,0.735l-3.641,3.589l-0.742,0.731l0.176,1.027
	l0.854,5.033l-4.443-2.363L40,18.464l-0.938,0.498l-4.443,2.363l0.854-5.033l0.176-1.028l-0.742-0.73l-3.643-3.589l5.008-0.735
	l1.043-0.153l0.463-0.947L40,4.554 M40,0l-4.02,8.229L27,9.548l6.503,6.41L31.968,25L40,20.729L48.032,25l-1.534-9.043L53,9.548
	L44.02,8.23L40,0L40,0z"/>
<polygon fill="#E8C26B" points="13,0 17.02,8.229 26,9.548 19.498,15.958 21.032,25 13,20.729 4.968,25 6.503,15.958 0,9.548 
	8.98,8.229 "/>
<g>
	<polygon fill="#E8C26B" points="67,0 71.02,8.229 80,9.548 73.498,15.958 75.032,25 67,20.729 58.968,25 60.503,15.958 54,9.548 
		62.98,8.229 	"/>
	<path fill="#FFFFFF" d="M67,2.278l3.121,6.39l0.231,0.474l0.521,0.077l6.994,1.027l-5.072,5l-0.371,0.365l0.087,0.514l1.194,7.037
		l-6.236-3.316L67,19.596l-0.47,0.25l-6.236,3.316l1.195-7.037l0.087-0.514l-0.371-0.365l-5.073-5l6.994-1.027l0.521-0.077
		l0.231-0.474L67,2.278 M67,0l-4.02,8.229L54,9.548l6.503,6.41L58.968,25L67,20.729L75.032,25l-1.534-9.042L80,9.548l-8.98-1.319
		L67,0L67,0z"/>
</g>
</svg>
