<?xml version="1.0" encoding="utf-8"?>
<!-- Generator: Adobe Illustrator 21.1.0, SVG Export Plug-In . SVG Version: 6.00 Build 0)  -->
<svg version="1.1" id="Layer_1" xmlns="http://www.w3.org/2000/svg" xmlns:xlink="http://www.w3.org/1999/xlink" x="0px" y="0px"
	 viewBox="0 0 466 200" style="enable-background:new 0 0 466 200;" xml:space="preserve">
<style type="text/css">
	.st0{fill:#5E22D2;}
	.st1{fill:#302E33;}
	.st2{fill:#FFFFFF;}
</style>
<g>
	<path class="st1" d="M193.6,102V142H210V102c0-4.1,2.9-7.3,7.4-7.4c2.5,0,6.4-0.1,6.4-0.1V78.3c0,0-4.8-0.1-6.4-0.1
		C204.2,77.9,193.6,88.8,193.6,102z"/>
	<g>
		<polygon class="st1" points="314.7,102.7 314.7,102.7 314.7,102.7 		"/>
		<path class="st1" d="M358.4,97.3c-1.3-3.9-3.3-7.3-5.9-10.2c-2.6-2.9-5.8-5.1-9.7-6.8c-3.8-1.6-8.2-2.4-13.2-2.4
			c-4.7,0-9,0.9-12.9,2.6c-3.9,1.8-7.3,4.1-10.1,7.1c-2.8,3-5.1,6.4-6.6,10.4c-1.6,4-2.4,8.2-2.4,12.6c0,4.8,0.8,9.1,2.4,13.1
			c1.6,4,3.9,7.4,6.8,10.4c2.9,2.9,6.4,5.2,10.4,6.8c4,1.6,8.3,2.4,13,2.4c6.9,0,12.8-1.5,17.6-4.6c3.5-2.3,6.5-5.1,9-8.3l-12.1-9.1
			c-1.3,1.9-2.9,3.6-4.9,5c-2.5,1.7-5.6,2.6-9.3,2.6c-0.2,0-0.5,0-0.7,0c0,0,0,0,0,0c0,0-1.5,0-3.5-0.4c0,0,0,0,0,0
			c-0.3-0.1-0.6-0.1-0.9-0.2c-0.1,0-0.3-0.1-0.4-0.1c-1.8-0.5-3.5-1.4-5.1-2.6c-1.5-1.2-2.8-2.7-3.9-4.5c-1-1.8-1.7-4-2.1-6.5h0.1
			l0,0l0,0h31.7h14.5c0-0.5,0-1,0.1-1.4c0-0.4,0-0.9,0.1-1.4c0-0.4,0-0.9,0-1.5C360.4,105.5,359.7,101.3,358.4,97.3z M314.7,102.7
			C314.7,102.7,314.7,102.7,314.7,102.7C314.7,102.7,314.7,102.7,314.7,102.7L314.7,102.7c1.3-4.1,3.7-7.4,7.2-9.4
			c0.3-0.2,0.6-0.3,0.9-0.5c0,0,0,0,0,0c2.1-1,4.4-1.5,6.9-1.5c2.5,0,4.7,0.4,6.5,1.1c1.8,0.8,3.3,1.7,4.5,2.9
			c1.2,1.2,2.1,2.4,2.8,3.8c0.4,0.9,0.7,1.7,0.9,2.5c0.1,0.4,0.2,0.8,0.2,1.2H314.7z"/>
	</g>
	<path class="st1" d="M89.6,55.9C76.6,55.9,66,66.5,66,79.5V142h17.7v-33.9h21.6V91.9H83.7V79.7c0-4.2,3.4-7.6,7.6-7.6h20V55.9H89.6
		z"/>
	<path class="st1" d="M263.3,91.1c-4.9-1.4-12.3-4.1-12.1-10.3c0.4-6.3,5.3-8.6,10.2-8.5c3.9,0,7.9,1.7,11.3,7.2l13.6-8.8
		c-6.4-9.6-15.1-14.3-24.8-14.3c-12.9,0-26.7,7.8-27,24.6c-0.2,16.9,16.1,22.8,24.7,24.9c5.9,1.5,13.5,4.7,13,12.7
		c-0.2,5.5-4.8,9-11.4,8.9c-4.8,0-11.1-2-15.1-10.6l-13.6,8.8c8.2,15.3,20.1,17.8,29.4,17.8c13.4,0,26.5-7.7,27.2-24.1
		C289.5,100.6,276.2,94.4,263.3,91.1z"/>
	<path class="st1" d="M390.4,119.1l0-27h9.1V78.7v0h-9.1l0-16.3H374l0,16.3h-6v13.5h6l0,27.3c-0.6,16.7,12.5,22.7,27.7,20.1v-14.3
		C394.5,126.3,390.4,123.2,390.4,119.1z"/>
	<g>
		<path class="st1" d="M149.7,128.1c-9.6,0-17.4-7.8-17.4-17.4c0-9.6,7.8-17.4,17.4-17.4c3.2,0,6.1,0.8,8.7,2.3l7.6-13.2
			c-4.8-2.8-10.3-4.4-16.3-4.4c-18,0-32.6,14.6-32.6,32.6s14.6,32.6,32.6,32.6c9,0,17.2-3.7,23.1-9.6L162.1,123
			C158.9,126.1,154.6,128.1,149.7,128.1z"/>
		<path class="st1" d="M167.2,110.6c0,3.2-0.9,6.2-2.3,8.7L178,127c2.8-4.8,4.4-10.4,4.4-16.3c0-9-3.7-17.2-9.6-23.1l-10.7,10.7
			C165.2,101.5,167.2,105.8,167.2,110.6z"/>
	</g>
</g>
</svg>
