<?xml version="1.0" encoding="utf-8"?>
<!-- Generator: Adobe Illustrator 16.0.0, SVG Export Plug-In . SVG Version: 6.00 Build 0)  -->
<!DOCTYPE svg PUBLIC "-//W3C//DTD SVG 1.1//EN" "http://www.w3.org/Graphics/SVG/1.1/DTD/svg11.dtd">
<svg version="1.1" id="Layer_1" xmlns="http://www.w3.org/2000/svg" xmlns:xlink="http://www.w3.org/1999/xlink" x="0px" y="0px"
	 width="40.998px" height="17px" viewBox="0 0 40.998 17" enable-background="new 0 0 40.998 17" xml:space="preserve">
<g transform="translate(0,-952.36218)">
	<path fill="#F38D68" d="M5.333,952.362c-1.365,0-2.736,0.51-3.775,1.538c-2.078,2.051-2.076,5.377,0,7.431l7.873,7.801
		c0.305,0.304,0.807,0.309,1.117,0.01c0.004-0.002,0.008-0.006,0.01-0.01c2.631-2.595,5.254-5.188,7.883-7.784
		c2.078-2.052,2.078-5.388,0-7.439c-2.078-2.053-5.465-2.053-7.545,0l-0.896,0.877L9.103,953.9
		C8.062,952.872,6.702,952.362,5.333,952.362L5.333,952.362z"/>
</g>
<g transform="translate(0,-952.36218)">
	<path fill="#F38D68" d="M26.332,954.319c0.888,0,1.723,0.34,2.349,0.958l0.896,0.886l1.414,1.397l1.421-1.391l0.902-0.883
		c0.628-0.619,1.464-0.96,2.354-0.96s1.724,0.34,2.351,0.959c1.309,1.292,1.308,3.393,0,4.684l-2.38,2.351
		c-1.548,1.529-3.095,3.057-4.644,4.586l-7.017-6.953c-1.306-1.291-1.306-3.388-0.001-4.676
		C24.603,954.659,25.439,954.319,26.332,954.319 M26.332,952.362c-1.365,0-2.736,0.511-3.775,1.538c-2.078,2.051-2.076,5.377,0,7.43
		l7.873,7.802c0.154,0.153,0.359,0.231,0.564,0.231c0.199,0,0.399-0.074,0.553-0.222c0.004-0.003,0.008-0.006,0.01-0.01
		c2.631-2.595,5.254-5.188,7.883-7.784c2.078-2.052,2.078-5.387,0-7.439c-1.039-1.026-2.405-1.539-3.771-1.539
		s-2.733,0.513-3.773,1.539l-0.896,0.877l-0.896-0.886C29.061,952.873,27.701,952.362,26.332,952.362L26.332,952.362z"/>
</g>
</svg>
