<?xml version="1.0" encoding="utf-8"?>
<!-- Generator: Adobe Illustrator 16.0.0, SVG Export Plug-In . SVG Version: 6.00 Build 0)  -->
<!DOCTYPE svg PUBLIC "-//W3C//DTD SVG 1.1//EN" "http://www.w3.org/Graphics/SVG/1.1/DTD/svg11.dtd">
<svg version="1.1" id="Layer_1" xmlns="http://www.w3.org/2000/svg" xmlns:xlink="http://www.w3.org/1999/xlink" x="0px" y="0px"
	 width="73px" height="14px" viewBox="-6.5 2 73 14" enable-background="new -6.5 2 73 14" xml:space="preserve">
<g>
	<g>
		<g>
			<path fill="#686868" d="M-5.342,15.528c-0.496,0-0.84-0.055-1.158-0.109v-1.554c0.223,0.084,0.523,0.14,0.855,0.14
				c0.646,0,1.02-0.279,1.02-1.291V3.306h1.789v9.479C-2.836,14.325-3.457,15.528-5.342,15.528z"/>
			<path fill="#686868" d="M3.784,12.672c0-0.315,0.014-0.843,0.083-1.23l-0.028-0.015c-0.399,0.82-1.197,1.386-2.312,1.386
				c-1.555,0-2.051-0.998-2.051-2.204V7.134c-0.333-0.057-0.787-0.113-1.186-0.14v-1.11c0.908-0.11,1.996-0.151,2.945-0.124v4.423
				c0,0.718,0.194,1.149,0.842,1.149c0.895,0,1.596-1.026,1.596-2.231V5.773h1.75v5.531c0.329,0.055,0.797,0.109,1.197,0.137v1.106
				C5.753,12.659,4.692,12.7,3.784,12.672z"/>
			<path fill="#686868" d="M16.407,12.659V8.297c0-0.738-0.164-1.192-0.812-1.192c-0.771,0-1.571,0.914-1.571,2.259v3.296h-1.732
				V8.297c0-0.683-0.138-1.192-0.813-1.192c-0.812,0-1.57,0.971-1.57,2.259v3.296H8.162V7.134c-0.332-0.057-0.8-0.113-1.199-0.14
				v-1.11c0.867-0.11,1.94-0.151,2.851-0.124c0,0.335-0.027,0.844-0.082,1.247h0.014c0.412-0.844,1.237-1.387,2.257-1.387
				c1.212,0,1.721,0.721,1.886,1.387c0.318-0.679,1.073-1.387,2.229-1.387c1.322,0,2.054,0.735,2.054,2.302v4.737H16.407z"/>
			<path fill="#686868" d="M19.323,6.994v-1.11c0.867-0.11,1.913-0.151,2.823-0.124c0,0.347-0.014,0.802-0.068,1.165h0.027
				c0.386-0.804,1.114-1.291,2.146-1.291c1.624,0,2.506,1.179,2.506,3.215c0,2.399-1.237,3.908-3.606,3.908
				c-0.331,0-0.592-0.014-0.883-0.057V16h-1.746V7.134C20.19,7.077,19.723,7.021,19.323,6.994z M23.742,7.091
				c-0.922,0-1.474,1.082-1.474,2.258v1.914c0.277,0.082,0.565,0.124,0.924,0.124c1.005,0,1.721-0.64,1.721-2.342
				C24.913,7.755,24.543,7.091,23.742,7.091z"/>
			<path fill="#686868" d="M29.937,12.812c-0.659,0-1.321-0.069-1.899-0.223l0.109-1.675c0.523,0.18,1.267,0.333,1.942,0.333
				c0.907,0,1.612-0.376,1.612-1.233c0-1.787-3.897-0.97-3.897-4.047c0-1.663,1.308-2.812,3.538-2.812
				c0.522,0,1.127,0.067,1.679,0.164l-0.097,1.581c-0.522-0.154-1.1-0.25-1.664-0.25c-1.033,0-1.556,0.473-1.556,1.137
				c0,1.675,3.909,1.053,3.909,3.977C33.613,11.523,32.223,12.812,29.937,12.812z"/>
			<path fill="#686868" d="M37.426,12.8c-1.515,0-1.982-0.553-1.982-2.164V7.147h-1.186V5.773h1.172v-2.12l1.762-0.47v2.59h1.665
				v1.374h-1.665v3.021c0,0.885,0.206,1.136,0.812,1.136c0.288,0,0.604-0.042,0.853-0.112v1.426
				C38.417,12.729,37.907,12.8,37.426,12.8z"/>
			<path fill="#686868" d="M43.95,12.672c0-0.397,0.014-0.815,0.067-1.176l-0.012-0.015c-0.331,0.779-1.171,1.318-2.19,1.318
				c-1.237,0-1.955-0.705-1.955-1.815c0-1.648,1.626-2.523,3.951-2.523V8.089c0-0.722-0.344-1.095-1.335-1.095
				c-0.62,0-1.444,0.209-2.024,0.537l-0.151-1.479c0.689-0.25,1.569-0.432,2.45-0.432c2.203,0,2.823,0.886,2.823,2.398v3.286
				c0.33,0.055,0.798,0.109,1.197,0.137v1.106C45.904,12.659,44.844,12.7,43.95,12.672z M43.812,9.611
				c-1.858,0-2.271,0.542-2.271,1.095c0,0.445,0.3,0.735,0.811,0.735c0.868,0,1.46-0.833,1.46-1.665V9.611z"/>
			<path fill="#686868" d="M49.727,7.161h0.027c0.332-0.875,0.991-1.639,2.176-1.541l-0.082,1.747
				c-1.266-0.263-1.899,0.567-1.899,2.479v2.812h-1.749V7.134c-0.329-0.057-0.798-0.113-1.196-0.14v-1.11
				c0.867-0.11,1.928-0.151,2.849-0.124C49.852,6.121,49.81,6.673,49.727,7.161z"/>
			<path fill="#686868" d="M55.709,12.8c-1.515,0-1.983-0.553-1.983-2.164V7.147h-1.185V5.773h1.172v-2.12l1.761-0.47v2.59h1.665
				v1.374h-1.665v3.021c0,0.885,0.207,1.136,0.812,1.136c0.288,0,0.604-0.042,0.853-0.112v1.426
				C56.699,12.729,56.19,12.8,55.709,12.8z"/>
		</g>
	</g>
	<path fill="#686868" d="M62.256,3.13c-0.406-0.156-0.87-0.256-1.345-0.256c-0.996,0-1.715,0.637-1.715,1.772
		c0,1.08,0.584,1.716,1.612,1.716c0.238,0,0.449-0.032,0.645-0.089V4.497h0.973V6.93c-0.502,0.202-1.123,0.313-1.73,0.313
		c-1.604,0-2.557-0.949-2.557-2.502C58.139,3.14,59.218,2,60.973,2c0.502,0,0.998,0.09,1.433,0.219L62.256,3.13z"/>
	<path fill="#686868" d="M66.471,5.45H64.16c-0.008,0.699,0.337,1.042,1.027,1.042c0.369,0,0.764-0.083,1.089-0.233l0.088,0.743
		c-0.397,0.159-0.869,0.241-1.334,0.241c-1.186,0-1.844-0.596-1.844-1.914c0-1.148,0.63-1.995,1.745-1.995
		c1.087,0,1.568,0.75,1.568,1.678C66.5,5.138,66.493,5.289,66.471,5.45z M64.903,4.044c-0.398,0-0.676,0.295-0.727,0.749h1.371
		C65.563,4.323,65.308,4.044,64.903,4.044z"/>
</g>
</svg>
