<?xml version="1.0" encoding="utf-8"?>
<!-- Generator: Adobe Illustrator 16.0.0, SVG Export Plug-In . SVG Version: 6.00 Build 0)  -->
<!DOCTYPE svg PUBLIC "-//W3C//DTD SVG 1.1//EN" "http://www.w3.org/Graphics/SVG/1.1/DTD/svg11.dtd">
<svg version="1.1" id="Layer_1" xmlns="http://www.w3.org/2000/svg" xmlns:xlink="http://www.w3.org/1999/xlink" x="0px" y="0px"
	 width="89px" height="34px" viewBox="-6.5 -10.609 89 34" enable-background="new -6.5 -10.609 89 34" xml:space="preserve">
<g opacity="0.7">
	<path fill="#231F20" d="M15.553,0.215l5.5,2.732l4.42-4.953l1.225,1.221L21.371,5.1l-6.137-3.122l-1.312,6.838l7.02,3.637
		c0.23,0.121,0.272,0.148,0.41,0.271c0.281,0.252,0.316,0.394,0.275,0.804c-0.022,0.218-0.018,0.27,0.032,0.527l1.394,7.055
		l3.141-0.807l0.426,1.752l-4.913,1.198l-1.88-9.291l-6.211-3.335c0,0-0.354,2.368-0.691,3.981c-0.644,3.097-2.026,5.604-4.48,7.321
		c-1.435,1.004-2.538,1.293-4.221,1.414c-3.821,0.279-6.544-0.634-8.857-3.718c-2.162-2.884-2.55-7.396-0.606-10.596
		c0.289-0.478,1.904-2.314,2.382-2.711c2.576-2.139,6.42-2.737,9.891-1.253c1.132,0.483,3.447,2.241,3.511,2.802
		c0.064,0.554-0.445,2.409-0.445,2.409S9.576,9.485,9.17,8.946C5.977,4.724-0.193,5.339-3.1,9.108
		c-2.658,3.443-2.029,8.373,1.453,11.04c4.298,3.296,9.897,1.346,11.989-3.275c0.277-0.612,0.455-1.203,0.645-1.942
		c0.658-2.554,2.645-13.737,2.645-13.737L8.318-1.478L4.124,3.125c0,0-0.597-0.313-1.009-0.688c-0.19-0.175-0.342-0.362-0.342-0.362
		l4.993-5.583h0.396l5.755,2.879l0.744-3.575c0,0-0.643-0.338-1.01-0.598c-0.896-0.635-1.285-2.283-1.089-3.129
		c0.519-2.247,2.997-3.484,5.087-2.088c1.892,1.266,2.07,4.322-0.154,5.49c-0.553,0.291-1.086,0.375-1.249,0.643
		C16.016-3.507,15.553,0.215,15.553,0.215"/>
	<path fill="#231F20" d="M47.543-9.72c-0.076,0-0.191-0.006-0.349-0.017c-0.152-0.008-0.27-0.012-0.349-0.011h-0.109
		c0.004,0.111,0.019,0.292,0.043,0.541c0.021,0.234,0.032,0.415,0.032,0.543c0,0.028,0.005,0.072,0.011,0.131
		c0.008,0.055,0.012,0.097,0.012,0.127c0,0.054-0.012,0.101-0.034,0.141c-0.028,0.053-0.072,0.079-0.132,0.079
		c-0.041,0-0.079-0.011-0.111-0.034c-0.031-0.021-0.047-0.051-0.047-0.086c0-0.012,0.002-0.03,0.006-0.055
		c0.005-0.023,0.007-0.039,0.007-0.054c0-0.04-0.003-0.1-0.009-0.177c-0.006-0.08-0.011-0.139-0.011-0.18
		c0-0.115-0.011-0.278-0.034-0.485c-0.025-0.226-0.039-0.388-0.042-0.486l-0.14,0.001c-0.223,0-0.397-0.013-0.524-0.037
		C45.68-9.794,45.639-9.836,45.639-9.9c0-0.031,0.014-0.061,0.039-0.086c0.03-0.028,0.07-0.039,0.119-0.037
		c0.035,0.001,0.117,0.009,0.242,0.021c0.104,0.009,0.186,0.014,0.248,0.014s0.156,0,0.279-0.001
		c0.124-0.004,0.218-0.004,0.279-0.004c0.077,0,0.193,0.005,0.348,0.012c0.155,0.009,0.271,0.013,0.35,0.013
		c0.044,0,0.08,0.013,0.11,0.037c0.029,0.023,0.044,0.053,0.044,0.09c0,0.033-0.015,0.062-0.044,0.087
		C47.623-9.733,47.587-9.72,47.543-9.72"/>
	<path fill="#231F20" d="M49.081-8.119c-0.071,0-0.12-0.031-0.143-0.093c-0.022-0.065-0.046-0.16-0.063-0.28
		c-0.019-0.117-0.027-0.213-0.027-0.287c0-0.021,0-0.053,0.004-0.096c0.002-0.043,0.003-0.073,0.003-0.096
		c0-0.151-0.049-0.226-0.144-0.226c-0.129,0-0.244,0.045-0.346,0.137c-0.053,0.048-0.125,0.138-0.215,0.272
		c0,0.307-0.017,0.488-0.049,0.545c-0.029,0.049-0.072,0.074-0.134,0.074c-0.042,0-0.079-0.012-0.11-0.032
		c-0.031-0.022-0.047-0.051-0.047-0.083c0-0.012,0.005-0.029,0.014-0.053c0.009-0.021,0.015-0.079,0.018-0.178l0.004-0.179
		l0.006-0.888c0.006-0.1,0.01-0.168,0.01-0.201c0-0.041-0.006-0.079-0.015-0.117c-0.01-0.036-0.015-0.074-0.015-0.113
		c0-0.034,0.015-0.062,0.044-0.086c0.03-0.021,0.065-0.031,0.109-0.031c0.083,0,0.132,0.035,0.146,0.106
		c0.017,0.078,0.024,0.148,0.024,0.211c0,0.086-0.004,0.172-0.012,0.265c-0.006,0.088-0.008,0.175-0.008,0.265l0.002,0.106
		c0.085-0.09,0.174-0.153,0.27-0.2c0.096-0.042,0.195-0.064,0.303-0.064c0.17,0,0.285,0.042,0.349,0.129
		c0.046,0.062,0.071,0.166,0.077,0.31l0.012,0.231l0.031,0.25c0.015,0.096,0.031,0.179,0.051,0.25
		c0.005,0.015,0.006,0.025,0.006,0.036c0,0.034-0.014,0.059-0.045,0.082C49.16-8.13,49.123-8.119,49.081-8.119"/>
	<path fill-rule="evenodd" clip-rule="evenodd" fill="#231F20" d="M50.323-8.139c-0.229,0-0.417-0.047-0.56-0.138
		c-0.156-0.1-0.233-0.24-0.233-0.421c0-0.21,0.063-0.386,0.193-0.527c0.14-0.155,0.325-0.231,0.559-0.231
		c0.17,0,0.308,0.021,0.415,0.067c0.131,0.055,0.197,0.142,0.197,0.255c0,0.081-0.059,0.154-0.174,0.222
		c-0.051,0.027-0.158,0.073-0.324,0.134l-0.584,0.22c0.059,0.067,0.129,0.116,0.214,0.149c0.086,0.035,0.185,0.053,0.297,0.053
		c0.071,0,0.153-0.011,0.249-0.031c0.119-0.027,0.197-0.062,0.232-0.104c0.033-0.045,0.07-0.065,0.111-0.065
		c0.035,0,0.068,0.011,0.096,0.032c0.027,0.02,0.041,0.045,0.041,0.073c0,0.091-0.092,0.166-0.273,0.232
		C50.625-8.168,50.472-8.139,50.323-8.139 M50.282-9.239c-0.124,0-0.228,0.037-0.311,0.116c-0.081,0.074-0.144,0.189-0.185,0.343
		l0.469-0.177c0.186-0.071,0.317-0.134,0.396-0.186C50.562-9.207,50.44-9.239,50.282-9.239"/>
	<path fill-rule="evenodd" clip-rule="evenodd" fill="#231F20" d="M45.786,11.099c-0.167,0.011-0.466,0.02-0.895,0.02
		c-0.103,0-0.155-0.036-0.155-0.108s0.053-0.109,0.155-0.109c0.098,0,0.243-0.002,0.438-0.01c0.193-0.008,0.34-0.01,0.438-0.01
		c0.109,0,0.164,0.037,0.164,0.109C45.932,11.055,45.883,11.09,45.786,11.099"/>
	<path fill-rule="evenodd" clip-rule="evenodd" fill="#231F20" d="M47.605,9.801c-0.298,0-0.465,0.156-0.5,0.469L47.1,10.354
		c0.209-0.011,0.344-0.016,0.406-0.016c0.195,0,0.293,0.046,0.293,0.139c0,0.067-0.047,0.107-0.143,0.122
		c-0.043,0.004-0.091,0.007-0.147,0.005c-0.057-0.001-0.196,0.005-0.427,0.021l-0.014,0.315c0,0.06,0.003,0.146,0.007,0.261
		c0.005,0.114,0.007,0.201,0.007,0.259c0,0.176-0.013,0.313-0.04,0.411c-0.021,0.076-0.077,0.112-0.171,0.112
		c-0.051,0-0.094-0.012-0.131-0.036c-0.033-0.024-0.054-0.055-0.054-0.094c0-0.007,0.003-0.016,0.005-0.027
		c0.025-0.12,0.039-0.252,0.039-0.395l-0.006-0.383v-0.404c-0.154,0.011-0.252,0.016-0.292,0.016c-0.124,0-0.187-0.047-0.187-0.136
		c0-0.092,0.107-0.141,0.324-0.146l0.178-0.004c0.002-0.052,0.012-0.122,0.026-0.211c0.032-0.208,0.101-0.359,0.206-0.457
		c0.129-0.119,0.33-0.178,0.602-0.178c0.176,0,0.264,0.045,0.264,0.136C47.846,9.755,47.766,9.801,47.605,9.801"/>
	<path fill-rule="evenodd" clip-rule="evenodd" fill="#231F20" d="M48.98,11.844c-0.207,0-0.385-0.057-0.534-0.174
		c-0.165-0.127-0.253-0.3-0.262-0.516c-0.008-0.212,0.063-0.396,0.21-0.556c0.173-0.19,0.412-0.285,0.721-0.285
		c0.246,0,0.434,0.087,0.561,0.257c0.1,0.137,0.149,0.304,0.146,0.495c-0.004,0.207-0.076,0.382-0.215,0.531
		C49.449,11.761,49.24,11.844,48.98,11.844 M49.091,10.599c-0.18-0.002-0.321,0.063-0.423,0.195c-0.08,0.104-0.12,0.225-0.12,0.36
		c0,0.133,0.049,0.24,0.147,0.314c0.08,0.062,0.176,0.094,0.285,0.094c0.129,0,0.238-0.035,0.331-0.106
		c0.104-0.079,0.161-0.184,0.166-0.317C49.496,10.778,49.366,10.599,49.091,10.599"/>
	<path fill-rule="evenodd" clip-rule="evenodd" fill="#231F20" d="M51.715,10.729c-0.008,0.117-0.069,0.175-0.185,0.175
		c-0.105,0-0.159-0.045-0.159-0.138c0-0.019-0.001-0.052-0.004-0.098l-0.006-0.118c-0.195,0.019-0.352,0.06-0.468,0.126
		c-0.11,0.06-0.202,0.152-0.273,0.272l0.003,0.766c0,0.093-0.061,0.14-0.183,0.14c-0.108,0-0.162-0.047-0.162-0.14v-0.98
		c0-0.03,0-0.075,0.004-0.138c0.003-0.062,0.005-0.106,0.005-0.138c0-0.096,0.055-0.142,0.162-0.142c0.121,0,0.183,0.075,0.184,0.23
		c0.236-0.172,0.499-0.257,0.787-0.257c0.1,0,0.174,0.027,0.223,0.085c0.051,0.058,0.074,0.142,0.074,0.257
		C51.717,10.681,51.717,10.712,51.715,10.729"/>
	<path fill-rule="evenodd" clip-rule="evenodd" fill="#231F20" d="M53.094,11.099c-0.167,0.011-0.465,0.02-0.895,0.02
		c-0.104,0-0.154-0.036-0.154-0.108s0.051-0.109,0.154-0.109c0.098,0,0.244-0.002,0.438-0.01c0.195-0.008,0.342-0.01,0.438-0.01
		c0.109,0,0.166,0.037,0.166,0.109C53.24,11.055,53.191,11.09,53.094,11.099"/>
	<polygon fill-rule="evenodd" clip-rule="evenodd" fill="#231F20" points="11.197,-9.792 -6.492,-9.792 -6.492,-8.067 9.631,-8.067 
			"/>
	<polygon fill-rule="evenodd" clip-rule="evenodd" fill="#231F20" points="7.111,-5.23 -6.492,-5.23 -6.492,-3.509 5.552,-3.509 	
		"/>
	<polygon fill-rule="evenodd" clip-rule="evenodd" fill="#231F20" points="2.833,-0.555 -6.49,-0.555 -6.49,1.169 1.245,1.169 	"/>
	<path fill-rule="evenodd" clip-rule="evenodd" fill="#231F20" d="M38.664-0.688c-0.169,0-0.312-0.067-0.422-0.202
		c-0.095-0.114-0.181-0.304-0.256-0.574l-0.171-0.615c-0.131-0.381-0.335-1.225-0.616-2.528l-0.949,2.16l-0.281,0.681
		c-0.113,0.27-0.23,0.49-0.355,0.662c-0.131,0.182-0.312,0.272-0.535,0.272c-0.188,0-0.334-0.077-0.441-0.229
		c-0.069-0.1-0.133-0.229-0.191-0.384L34.31-1.843c-0.32-0.842-0.601-1.746-0.845-2.71l-0.171,0.644l-0.612,1.892
		c-0.025,0.221-0.104,0.55-0.237,0.986c-0.094,0.186-0.251,0.278-0.47,0.278c-0.154,0-0.279-0.041-0.37-0.124
		c-0.08-0.073-0.118-0.162-0.118-0.267c0-0.398,0.109-0.889,0.328-1.47l0.521-1.443l0.276-1.129
		c0.138-0.528,0.285-0.872,0.439-1.035c0.128-0.139,0.283-0.208,0.471-0.208c0.205,0,0.358,0.089,0.461,0.265
		c0.123,0.212,0.257,0.646,0.398,1.301c0.168,0.787,0.428,1.637,0.783,2.551c0.468-0.92,0.872-1.877,1.215-2.873l0.143-0.521
		c0.057-0.212,0.13-0.38,0.222-0.51c0.124-0.178,0.292-0.266,0.508-0.266c0.272,0,0.479,0.197,0.622,0.594
		c0.05,0.136,0.111,0.419,0.185,0.847c0.187,1.079,0.419,2.003,0.698,2.767l0.232,0.617c0.119,0.328,0.179,0.532,0.179,0.608
		c0,0.104-0.052,0.188-0.153,0.259C38.91-0.724,38.795-0.688,38.664-0.688"/>
	<path fill-rule="evenodd" clip-rule="evenodd" fill="#231F20" d="M42.338-0.761c-0.649,0-1.189-0.148-1.623-0.443
		c-0.456-0.311-0.684-0.72-0.684-1.229c0-0.484,0.214-0.984,0.641-1.501c0.475-0.573,1.008-0.859,1.604-0.859
		c0.311,0,0.656,0.054,1.039,0.165c0.484,0.139,0.726,0.311,0.726,0.516c0,0.089-0.039,0.171-0.119,0.242
		c-0.079,0.069-0.176,0.105-0.293,0.105c-0.092,0-0.173-0.022-0.24-0.064c-0.067-0.041-0.134-0.081-0.197-0.123
		c-0.187-0.111-0.491-0.167-0.915-0.167c-0.322,0-0.643,0.216-0.959,0.65c-0.287,0.398-0.432,0.743-0.432,1.036
		c0,0.316,0.143,0.563,0.428,0.746c0.266,0.169,0.607,0.254,1.025,0.254c0.189,0,0.393-0.038,0.607-0.113l0.55-0.224
		c0.095-0.039,0.163-0.058,0.203-0.058c0.118,0,0.219,0.037,0.305,0.106c0.085,0.069,0.127,0.15,0.127,0.24
		c0,0.176-0.243,0.343-0.729,0.506C42.973-0.832,42.618-0.761,42.338-0.761"/>
	<path fill-rule="evenodd" clip-rule="evenodd" fill="#231F20" d="M49.387-1.132c-0.356,0.126-0.918,0.238-1.684,0.34
		c-0.705,0.092-1.281,0.14-1.728,0.14c-0.318,0-0.548-0.037-0.688-0.11c-0.189-0.101-0.284-0.283-0.284-0.554l0.095-1.185
		c0.081-1.096,0.122-2.307,0.122-3.642c0-0.103,0.047-0.189,0.136-0.261c0.091-0.073,0.202-0.107,0.335-0.107
		c0.137,0,0.249,0.034,0.34,0.107c0.09,0.071,0.135,0.158,0.135,0.261c0,1.351-0.043,2.577-0.128,3.684l-0.062,0.547
		c-0.024,0.196-0.034,0.371-0.028,0.524c0.826,0.007,1.869-0.14,3.132-0.44c0.054-0.013,0.104-0.018,0.151-0.018
		c0.137,0,0.25,0.04,0.341,0.121c0.08,0.073,0.12,0.16,0.12,0.255C49.691-1.317,49.59-1.204,49.387-1.132"/>
	<path fill-rule="evenodd" clip-rule="evenodd" fill="#231F20" d="M54.24-0.75c-0.061,0-0.17-0.052-0.328-0.158
		c-0.141-0.097-0.248-0.184-0.316-0.261c-0.305,0.124-0.572,0.219-0.801,0.283c-0.232,0.062-0.426,0.094-0.58,0.094
		c-0.741,0-1.281-0.158-1.619-0.475c-0.318-0.296-0.479-0.749-0.479-1.36c0-0.578,0.264-1.072,0.79-1.482
		c0.527-0.412,1.155-0.618,1.888-0.618c0.274,0,0.582,0.054,0.924,0.162c0.431,0.134,0.645,0.296,0.645,0.483
		c0,0.064-0.03,0.121-0.095,0.173c-0.031,0.089-0.056,0.238-0.073,0.446c-0.018,0.209-0.027,0.477-0.03,0.801
		c-0.005,0.295,0.022,0.53,0.08,0.703c0.03,0.104,0.132,0.313,0.3,0.629c0.022,0.043,0.057,0.106,0.109,0.189l0.027,0.062
		c0,0.096-0.045,0.174-0.133,0.237C54.461-0.781,54.357-0.75,54.24-0.75 M53.254-3.24c0-0.103,0.008-0.215,0.025-0.335
		c0.018-0.121,0.044-0.249,0.078-0.386c-0.116-0.044-0.217-0.078-0.301-0.1c-0.083-0.021-0.15-0.032-0.201-0.032
		c-0.49,0-0.914,0.152-1.271,0.453c-0.354,0.304-0.533,0.651-0.533,1.044s0.093,0.687,0.276,0.884
		c0.183,0.196,0.458,0.294,0.824,0.294c0.304,0,0.562-0.045,0.773-0.126c0.113-0.045,0.273-0.138,0.48-0.273
		C53.304-2.45,53.254-2.924,53.254-3.24"/>
	<path fill-rule="evenodd" clip-rule="evenodd" fill="#231F20" d="M56.413-5.522c-0.151,0-0.283-0.04-0.394-0.122
		c-0.111-0.081-0.166-0.179-0.166-0.293c0-0.115,0.055-0.215,0.166-0.294c0.11-0.082,0.242-0.123,0.394-0.123
		c0.152,0,0.282,0.041,0.392,0.123c0.109,0.079,0.163,0.179,0.163,0.294c0,0.114-0.054,0.212-0.163,0.293
		C56.695-5.562,56.565-5.522,56.413-5.522 M56.627-2.613c0,0.145,0.006,0.358,0.018,0.645c0.01,0.286,0.016,0.499,0.016,0.644
		c0,0.105-0.043,0.189-0.128,0.256c-0.086,0.068-0.198,0.101-0.337,0.101c-0.137,0-0.248-0.032-0.335-0.101
		c-0.087-0.066-0.13-0.15-0.13-0.256c0-0.145-0.006-0.357-0.018-0.644c-0.011-0.286-0.017-0.5-0.017-0.645
		c0-0.224,0.016-0.503,0.048-0.842c0.031-0.334,0.047-0.612,0.047-0.839c0-0.106,0.044-0.194,0.133-0.261
		c0.086-0.067,0.197-0.1,0.333-0.1s0.247,0.032,0.335,0.1c0.086,0.066,0.13,0.154,0.13,0.261c0,0.227-0.016,0.505-0.048,0.839
		C56.643-3.116,56.627-2.837,56.627-2.613"/>
	<path fill-rule="evenodd" clip-rule="evenodd" fill="#231F20" d="M61.869-0.73c-0.273,0-0.425-0.114-0.461-0.339l-0.132-0.783
		c-0.044-0.279-0.067-0.542-0.067-0.784c0-0.067,0.006-0.181,0.018-0.341c0.012-0.161,0.016-0.273,0.016-0.34
		c0-0.517-0.125-0.775-0.379-0.775c-0.354,0-0.693,0.158-1.015,0.476c-0.292,0.291-0.519,0.656-0.684,1.098
		c-0.007,0.094-0.021,0.211-0.043,0.35c-0.019,0.121-0.028,0.236-0.028,0.35c0,0.071,0.01,0.178,0.028,0.321
		c0.021,0.145,0.028,0.251,0.028,0.323c0,0.106-0.043,0.194-0.131,0.261c-0.086,0.069-0.198,0.101-0.333,0.101
		c-0.141,0-0.253-0.031-0.338-0.101c-0.085-0.066-0.128-0.154-0.128-0.261c0-0.072-0.01-0.179-0.031-0.323
		c-0.02-0.144-0.029-0.25-0.029-0.321c0-0.246,0.021-0.588,0.068-1.021c0.045-0.438,0.068-0.78,0.068-1.025
		c0-0.075-0.006-0.189-0.018-0.339c-0.011-0.152-0.016-0.264-0.016-0.343c0-0.103,0.045-0.185,0.135-0.252
		c0.09-0.065,0.201-0.097,0.334-0.097c0.292,0,0.451,0.154,0.479,0.465l0.015,0.42c0.531-0.536,1.077-0.804,1.637-0.804
		c0.506,0,0.859,0.168,1.058,0.506c0.137,0.224,0.211,0.555,0.224,0.995v0.362l-0.006,0.334c0,0.199,0.034,0.453,0.102,0.768
		c0.068,0.314,0.104,0.568,0.104,0.765c0,0.105-0.045,0.19-0.135,0.258C62.119-0.766,62.006-0.73,61.869-0.73"/>
	<path fill-rule="evenodd" clip-rule="evenodd" fill="#231F20" d="M36.886,7.716c-0.292,0-0.544-0.28-0.76-0.845
		c-0.083-0.216-0.185-0.591-0.309-1.129c-0.322,0.033-0.745,0.093-1.267,0.181l-1.262,0.194c-0.158,0.313-0.428,0.772-0.812,1.374
		c-0.1,0.134-0.237,0.2-0.412,0.2c-0.127,0-0.24-0.033-0.339-0.104c-0.101-0.069-0.149-0.155-0.149-0.258
		c0-0.112,0.238-0.55,0.716-1.308c-0.053-0.062-0.081-0.133-0.081-0.216c0-0.192,0.156-0.316,0.465-0.372
		c0.361-0.51,0.817-1.098,1.367-1.762c0.75-0.907,1.217-1.358,1.4-1.358c0.25,0,0.42,0.131,0.512,0.395l0.299,1.203L36.961,6.4
		l0.27,0.567c0.094,0.193,0.139,0.323,0.139,0.387c0,0.104-0.049,0.189-0.147,0.258C37.123,7.683,37.011,7.716,36.886,7.716
		 M35.211,3.623l-1.357,1.649c0.383-0.074,0.963-0.163,1.741-0.27L35.211,3.623z"/>
	<path fill-rule="evenodd" clip-rule="evenodd" fill="#231F20" d="M41.924,4.85c-0.175,0-0.295-0.044-0.365-0.132
		c-0.049-0.062-0.09-0.191-0.124-0.387c-0.236,0.045-0.603,0.128-1.096,0.251c-0.509,0.151-0.765,0.342-0.769,0.565
		c0.096,0.024,0.188,0.045,0.28,0.057c0.728,0.1,1.269,0.233,1.622,0.407c0.516,0.248,0.773,0.612,0.773,1.088
		c0,0.389-0.223,0.682-0.669,0.883c-0.37,0.161-0.839,0.242-1.403,0.242c-0.415,0-0.812-0.052-1.186-0.159
		c-0.488-0.134-0.732-0.318-0.732-0.558c0-0.096,0.051-0.18,0.149-0.25c0.101-0.074,0.214-0.108,0.34-0.108
		c0.098,0,0.225,0.059,0.379,0.172c0.076,0.056,0.247,0.102,0.513,0.137c0.212,0.029,0.391,0.043,0.537,0.043
		c0.266,0,0.5-0.023,0.701-0.072c0.294-0.069,0.441-0.179,0.441-0.329c0-0.324-0.301-0.544-0.902-0.661l-0.492-0.08
		c-0.422-0.069-0.719-0.152-0.896-0.245c-0.257-0.133-0.385-0.334-0.385-0.604c0-0.501,0.312-0.856,0.935-1.068
		c0.19-0.064,0.493-0.142,0.911-0.231c0.418-0.088,0.716-0.164,0.896-0.228c0.13-0.043,0.271-0.063,0.422-0.063
		c0.137,0,0.248,0.032,0.335,0.102c0.087,0.063,0.131,0.152,0.131,0.259c0,0.068,0.019,0.173,0.059,0.308
		c0.04,0.131,0.06,0.233,0.06,0.303c0,0.108-0.044,0.194-0.13,0.262C42.171,4.816,42.059,4.85,41.924,4.85"/>
	<path fill-rule="evenodd" clip-rule="evenodd" fill="#231F20" d="M46.652,4.85c-0.173,0-0.295-0.044-0.365-0.132
		c-0.047-0.062-0.088-0.191-0.122-0.387c-0.237,0.045-0.603,0.128-1.097,0.251c-0.508,0.151-0.766,0.342-0.769,0.565
		c0.095,0.024,0.188,0.045,0.28,0.057c0.727,0.1,1.269,0.233,1.622,0.407c0.517,0.248,0.774,0.612,0.774,1.088
		c0,0.389-0.223,0.682-0.67,0.883c-0.369,0.161-0.838,0.242-1.404,0.242c-0.414,0-0.809-0.052-1.186-0.159
		c-0.486-0.134-0.73-0.318-0.73-0.558c0-0.096,0.049-0.18,0.148-0.25c0.1-0.074,0.213-0.108,0.34-0.108
		c0.098,0,0.225,0.059,0.379,0.172c0.076,0.056,0.247,0.102,0.514,0.137c0.212,0.029,0.39,0.043,0.535,0.043
		c0.267,0,0.502-0.023,0.703-0.072c0.294-0.069,0.441-0.179,0.441-0.329c0-0.324-0.301-0.544-0.902-0.661l-0.493-0.08
		c-0.421-0.069-0.72-0.152-0.897-0.245C43.498,5.58,43.37,5.379,43.37,5.108c0-0.501,0.312-0.856,0.933-1.068
		c0.193-0.064,0.495-0.142,0.913-0.231c0.417-0.088,0.717-0.164,0.897-0.228c0.129-0.043,0.271-0.063,0.422-0.063
		c0.136,0,0.246,0.032,0.334,0.102C46.957,3.683,47,3.771,47,3.878c0,0.068,0.02,0.173,0.06,0.308
		c0.038,0.131,0.06,0.233,0.06,0.303c0,0.108-0.044,0.194-0.131,0.262C46.9,4.816,46.79,4.85,46.652,4.85"/>
	<path fill-rule="evenodd" clip-rule="evenodd" fill="#231F20" d="M49.96,7.819c-0.532,0-0.988-0.147-1.372-0.442
		c-0.426-0.329-0.65-0.773-0.673-1.33c-0.019-0.54,0.161-1.016,0.542-1.426c0.441-0.485,1.059-0.728,1.85-0.728
		c0.631,0,1.111,0.218,1.438,0.656c0.259,0.353,0.384,0.779,0.375,1.274c-0.01,0.531-0.193,0.984-0.551,1.358
		C51.164,7.608,50.627,7.819,49.96,7.819 M50.244,4.621c-0.465-0.003-0.826,0.164-1.085,0.501c-0.207,0.27-0.31,0.578-0.31,0.925
		c0,0.346,0.125,0.615,0.376,0.811c0.208,0.159,0.453,0.239,0.734,0.239c0.329,0,0.612-0.091,0.849-0.272
		c0.27-0.201,0.411-0.47,0.428-0.812C51.281,5.087,50.949,4.623,50.244,4.621"/>
	<path fill-rule="evenodd" clip-rule="evenodd" fill="#231F20" d="M55.434,7.834c-0.646,0-1.188-0.147-1.621-0.442
		c-0.456-0.312-0.684-0.72-0.684-1.229c0-0.486,0.214-0.986,0.641-1.502c0.475-0.573,1.009-0.859,1.604-0.859
		c0.309,0,0.656,0.054,1.039,0.165c0.484,0.14,0.727,0.311,0.727,0.514c0,0.091-0.041,0.173-0.119,0.244
		c-0.08,0.069-0.178,0.104-0.294,0.104c-0.093,0-0.171-0.021-0.239-0.062c-0.069-0.043-0.135-0.084-0.197-0.125
		c-0.187-0.111-0.493-0.168-0.916-0.168c-0.322,0-0.643,0.218-0.958,0.653c-0.288,0.398-0.433,0.743-0.433,1.035
		c0,0.315,0.143,0.562,0.428,0.746c0.268,0.169,0.607,0.253,1.023,0.253c0.191,0,0.395-0.038,0.608-0.113l0.55-0.225
		c0.096-0.038,0.164-0.056,0.205-0.056c0.116,0,0.219,0.034,0.305,0.105c0.084,0.07,0.127,0.151,0.127,0.243
		c0,0.175-0.244,0.343-0.73,0.505C56.071,7.764,55.715,7.834,55.434,7.834"/>
	<path fill-rule="evenodd" clip-rule="evenodd" fill="#231F20" d="M59.188,3.073c-0.152,0-0.283-0.041-0.393-0.123
		c-0.111-0.08-0.167-0.178-0.167-0.293s0.056-0.213,0.167-0.294c0.109-0.082,0.24-0.12,0.393-0.12s0.281,0.038,0.392,0.12
		c0.109,0.081,0.163,0.179,0.163,0.294S59.688,2.87,59.579,2.95C59.469,3.032,59.34,3.073,59.188,3.073 M59.402,5.982
		c0,0.143,0.004,0.357,0.016,0.643c0.011,0.287,0.017,0.499,0.017,0.645c0,0.104-0.043,0.19-0.128,0.257
		c-0.085,0.067-0.198,0.1-0.338,0.1c-0.136,0-0.246-0.032-0.334-0.1c-0.088-0.066-0.131-0.152-0.131-0.257
		c0-0.146-0.006-0.357-0.016-0.645c-0.012-0.285-0.018-0.5-0.018-0.643c0-0.224,0.016-0.503,0.049-0.841
		c0.031-0.336,0.047-0.615,0.047-0.841c0-0.105,0.044-0.195,0.131-0.261c0.087-0.066,0.197-0.101,0.334-0.101
		s0.248,0.034,0.334,0.101c0.088,0.065,0.131,0.155,0.131,0.261c0,0.226-0.016,0.505-0.047,0.841
		C59.417,5.479,59.402,5.759,59.402,5.982"/>
	<path fill-rule="evenodd" clip-rule="evenodd" fill="#231F20" d="M64.71,7.846c-0.06,0-0.169-0.053-0.327-0.157
		c-0.143-0.099-0.248-0.185-0.318-0.262c-0.303,0.123-0.57,0.219-0.801,0.281c-0.231,0.063-0.425,0.096-0.578,0.096
		c-0.742,0-1.281-0.158-1.619-0.475c-0.319-0.297-0.479-0.75-0.479-1.361c0-0.579,0.263-1.07,0.789-1.482
		c0.527-0.412,1.155-0.618,1.887-0.618c0.273,0,0.583,0.054,0.925,0.164c0.431,0.132,0.645,0.293,0.645,0.482
		c0,0.063-0.03,0.12-0.095,0.171c-0.031,0.091-0.057,0.239-0.074,0.447c-0.017,0.209-0.027,0.476-0.029,0.8
		c-0.004,0.297,0.022,0.529,0.08,0.702c0.031,0.104,0.131,0.317,0.299,0.631c0.021,0.043,0.059,0.107,0.109,0.19l0.027,0.061
		c0,0.097-0.043,0.174-0.131,0.237C64.93,7.814,64.828,7.846,64.71,7.846 M63.723,5.355c0-0.104,0.01-0.216,0.027-0.335
		c0.017-0.122,0.043-0.25,0.077-0.387c-0.116-0.044-0.217-0.076-0.302-0.1c-0.083-0.021-0.149-0.031-0.201-0.031
		c-0.489,0-0.913,0.15-1.27,0.453c-0.355,0.302-0.532,0.649-0.532,1.043c0,0.393,0.091,0.687,0.274,0.884
		c0.183,0.196,0.458,0.293,0.826,0.293c0.303,0,0.562-0.044,0.773-0.126c0.113-0.046,0.273-0.135,0.479-0.271
		C63.773,6.145,63.723,5.67,63.723,5.355"/>
	<path fill-rule="evenodd" clip-rule="evenodd" fill="#231F20" d="M69.15,4.556c-0.066,0-0.145-0.001-0.234-0.006
		c-0.091-0.006-0.168-0.009-0.235-0.009c-0.073,0-0.288,0.019-0.646,0.055l0.091,2.119l0.005,0.156l0.004,0.183
		c0.013,0.523-0.152,0.785-0.498,0.785c-0.127,0-0.236-0.03-0.328-0.094c-0.094-0.062-0.141-0.14-0.141-0.233
		c0-0.09,0.005-0.227,0.014-0.408c0.01-0.181,0.014-0.318,0.014-0.408L67.1,4.603c-0.229-0.007-0.582-0.027-1.053-0.062
		c-0.281-0.027-0.423-0.146-0.423-0.354c0-0.105,0.044-0.192,0.13-0.262c0.084-0.068,0.195-0.103,0.327-0.103l0.996,0.059
		c0-0.12-0.008-0.284-0.021-0.489c-0.014-0.203-0.021-0.351-0.021-0.442c0-0.101,0.045-0.182,0.138-0.248
		c0.09-0.065,0.203-0.098,0.335-0.098c0.285,0,0.451,0.174,0.499,0.525c0.011,0.088,0.015,0.195,0.015,0.319l-0.01,0.208
		l-0.005,0.221c0.394-0.037,0.616-0.055,0.674-0.055c0.329,0,0.544,0.011,0.646,0.034c0.193,0.047,0.289,0.16,0.289,0.338
		c0,0.104-0.043,0.19-0.131,0.259C69.398,4.523,69.286,4.556,69.15,4.556"/>
	<path fill-rule="evenodd" clip-rule="evenodd" fill="#231F20" d="M71.461,3.073c-0.152,0-0.283-0.041-0.395-0.123
		c-0.11-0.08-0.165-0.178-0.165-0.293s0.055-0.213,0.165-0.294c0.111-0.082,0.242-0.12,0.395-0.12s0.281,0.038,0.391,0.12
		c0.11,0.081,0.164,0.179,0.164,0.294S71.962,2.87,71.852,2.95C71.742,3.032,71.613,3.073,71.461,3.073 M71.674,5.982
		c0,0.143,0.006,0.357,0.018,0.643c0.012,0.287,0.017,0.499,0.017,0.645c0,0.104-0.043,0.19-0.129,0.257
		c-0.085,0.067-0.198,0.1-0.337,0.1c-0.135,0-0.247-0.032-0.334-0.1C70.82,7.46,70.776,7.374,70.776,7.27
		c0-0.146-0.005-0.357-0.016-0.645c-0.011-0.285-0.017-0.5-0.017-0.643c0-0.224,0.016-0.503,0.047-0.841
		c0.032-0.336,0.048-0.615,0.048-0.841c0-0.105,0.044-0.195,0.132-0.261c0.086-0.066,0.197-0.101,0.334-0.101
		c0.135,0,0.247,0.034,0.334,0.101c0.087,0.065,0.131,0.155,0.131,0.261c0,0.226-0.016,0.505-0.048,0.841
		C71.689,5.479,71.674,5.759,71.674,5.982"/>
	<path fill-rule="evenodd" clip-rule="evenodd" fill="#231F20" d="M75.057,7.819c-0.531,0-0.988-0.147-1.371-0.442
		c-0.426-0.329-0.652-0.773-0.674-1.33c-0.02-0.54,0.161-1.016,0.541-1.426c0.442-0.485,1.06-0.728,1.85-0.728
		c0.633,0,1.112,0.218,1.438,0.656c0.261,0.353,0.385,0.779,0.376,1.274c-0.011,0.531-0.193,0.984-0.551,1.358
		C76.26,7.608,75.724,7.819,75.057,7.819 M75.342,4.621c-0.465-0.003-0.828,0.164-1.088,0.501c-0.205,0.27-0.308,0.578-0.308,0.925
		c0,0.346,0.126,0.615,0.376,0.811c0.207,0.159,0.453,0.239,0.734,0.239c0.328,0,0.613-0.091,0.849-0.272
		c0.271-0.201,0.412-0.47,0.427-0.812C76.377,5.087,76.047,4.623,75.342,4.621"/>
	<path fill-rule="evenodd" clip-rule="evenodd" fill="#231F20" d="M82.025,7.863c-0.271,0-0.425-0.112-0.46-0.338l-0.134-0.783
		C81.39,6.463,81.365,6.2,81.365,5.958c0-0.068,0.007-0.181,0.018-0.342c0.012-0.159,0.017-0.272,0.017-0.339
		c0-0.517-0.126-0.774-0.38-0.774c-0.354,0-0.693,0.159-1.015,0.475c-0.291,0.291-0.519,0.656-0.684,1.099
		c-0.007,0.092-0.021,0.209-0.044,0.35c-0.019,0.121-0.027,0.236-0.027,0.349c0,0.073,0.009,0.179,0.027,0.322
		c0.021,0.145,0.029,0.251,0.029,0.322c0,0.106-0.043,0.196-0.131,0.262c-0.085,0.068-0.197,0.101-0.334,0.101
		c-0.139,0-0.252-0.032-0.337-0.101c-0.085-0.065-0.128-0.155-0.128-0.262c0-0.071-0.01-0.178-0.029-0.322
		c-0.021-0.144-0.032-0.249-0.032-0.322c0-0.245,0.023-0.587,0.068-1.022c0.046-0.437,0.069-0.779,0.069-1.023
		c0-0.076-0.006-0.189-0.016-0.34c-0.011-0.15-0.018-0.264-0.018-0.342c0-0.104,0.045-0.186,0.137-0.253
		c0.088-0.064,0.2-0.097,0.334-0.097c0.29,0,0.45,0.155,0.479,0.465l0.014,0.42c0.531-0.535,1.078-0.805,1.637-0.805
		c0.507,0,0.857,0.169,1.058,0.507c0.137,0.225,0.212,0.557,0.224,0.997v0.361l-0.004,0.334c0,0.197,0.033,0.452,0.101,0.769
		C82.467,7.058,82.5,7.312,82.5,7.509c0,0.106-0.045,0.189-0.135,0.256C82.275,7.829,82.161,7.863,82.025,7.863"/>
	<path fill-rule="evenodd" clip-rule="evenodd" fill="#231F20" d="M36.48,15.553c-0.202,0-0.354-0.091-0.455-0.27
		c-0.087-0.152-0.17-0.247-0.246-0.279c-0.067-0.026-0.23-0.039-0.494-0.039c-0.459,0-0.967,0.266-1.527,0.795
		c-0.76,0.713-1.139,1.387-1.139,2.023c0,0.308,0.133,0.576,0.394,0.797c0.268,0.23,0.594,0.346,0.973,0.346
		c0.326,0,0.653-0.065,0.981-0.192c0.184-0.071,0.467-0.212,0.846-0.423c0.182-0.1,0.316-0.15,0.408-0.15
		c0.136,0,0.249,0.04,0.342,0.116c0.092,0.077,0.137,0.167,0.137,0.262c0,0.105-0.06,0.201-0.181,0.28
		c-0.835,0.561-1.679,0.841-2.533,0.841c-0.654,0-1.208-0.19-1.661-0.569c-0.437-0.368-0.654-0.805-0.654-1.307
		c0-0.809,0.449-1.639,1.347-2.488c0.752-0.709,1.507-1.064,2.269-1.064c0.154,0,0.295,0.004,0.419,0.016
		c0.122,0.012,0.231,0.027,0.327,0.052c0.109-0.122,0.253-0.182,0.431-0.182c0.219,0,0.356,0.108,0.413,0.327
		c0.052,0.192,0.076,0.428,0.076,0.711c0,0.099-0.033,0.184-0.104,0.259C36.762,15.507,36.64,15.553,36.48,15.553"/>
	<path fill-rule="evenodd" clip-rule="evenodd" fill="#231F20" d="M41.729,19.796c-0.225,0-0.371-0.092-0.441-0.274
		c-0.072-0.195-0.139-0.474-0.199-0.834c-0.057-0.347-0.086-0.631-0.086-0.853c0-0.062,0.006-0.157,0.014-0.283
		c0.006-0.128,0.011-0.22,0.011-0.282c0-0.449-0.148-0.674-0.446-0.674c-0.401,0-0.76,0.137-1.076,0.411
		c-0.162,0.142-0.383,0.41-0.664,0.808c0,0.91-0.051,1.448-0.152,1.614c-0.089,0.148-0.226,0.224-0.412,0.224
		c-0.131,0-0.244-0.034-0.342-0.102c-0.1-0.067-0.147-0.147-0.147-0.242c0-0.033,0.015-0.089,0.043-0.159
		c0.025-0.06,0.042-0.233,0.053-0.524l0.013-0.528l0.015-2.635c0.022-0.295,0.034-0.495,0.034-0.598
		c0-0.121-0.016-0.237-0.046-0.347c-0.03-0.107-0.045-0.222-0.045-0.338c0-0.1,0.045-0.184,0.138-0.249
		c0.092-0.065,0.203-0.1,0.338-0.1c0.259,0,0.411,0.105,0.455,0.315c0.049,0.232,0.075,0.442,0.075,0.63
		c0,0.249-0.012,0.511-0.033,0.782c-0.019,0.261-0.026,0.523-0.024,0.785l0.006,0.314c0.258-0.263,0.537-0.459,0.832-0.587
		c0.296-0.132,0.61-0.195,0.941-0.195c0.526,0,0.886,0.128,1.082,0.385c0.139,0.183,0.219,0.488,0.237,0.919l0.038,0.684
		l0.096,0.744c0.044,0.279,0.098,0.528,0.16,0.738c0.014,0.043,0.02,0.079,0.02,0.105c0,0.098-0.049,0.179-0.143,0.244
		C41.976,19.763,41.861,19.796,41.729,19.796"/>
	<path fill-rule="evenodd" clip-rule="evenodd" fill="#231F20" d="M44.275,15.036c-0.15,0-0.282-0.04-0.393-0.121
		c-0.111-0.082-0.166-0.182-0.166-0.294c0-0.113,0.055-0.213,0.166-0.294c0.11-0.081,0.242-0.123,0.393-0.123
		c0.152,0,0.283,0.042,0.391,0.123c0.11,0.081,0.164,0.181,0.164,0.294c0,0.112-0.054,0.212-0.164,0.294
		C44.559,14.996,44.428,15.036,44.275,15.036 M44.489,17.945c0,0.144,0.007,0.359,0.018,0.644c0.011,0.286,0.017,0.501,0.017,0.643
		c0,0.104-0.043,0.193-0.129,0.26s-0.197,0.101-0.336,0.101c-0.138,0-0.248-0.034-0.336-0.101c-0.086-0.066-0.131-0.155-0.131-0.26
		c0-0.142-0.004-0.356-0.016-0.643c-0.012-0.284-0.017-0.5-0.017-0.644c0-0.224,0.017-0.506,0.048-0.839
		c0.03-0.337,0.047-0.615,0.047-0.842c0-0.107,0.044-0.193,0.131-0.261c0.086-0.066,0.199-0.102,0.334-0.102
		c0.137,0,0.248,0.035,0.336,0.102c0.086,0.067,0.128,0.153,0.128,0.261c0,0.227-0.015,0.505-0.046,0.842
		C44.505,17.439,44.489,17.722,44.489,17.945"/>
	<path fill-rule="evenodd" clip-rule="evenodd" fill="#231F20" d="M47.299,16.756l-0.072,1.782c0,0.187-0.013,0.465-0.038,0.83
		c-0.031,0.239-0.187,0.358-0.466,0.358c-0.31,0-0.465-0.121-0.465-0.365c0-0.289,0.018-0.723,0.053-1.301
		c0.035-0.581,0.053-1.016,0.053-1.305c0-0.376,0.008-0.809,0.023-1.295c0.016-0.485,0.024-0.917,0.024-1.297
		c0-0.237,0.154-0.357,0.464-0.357c0.313,0,0.471,0.12,0.471,0.357c0,0.38-0.008,0.812-0.024,1.297
		C47.306,15.947,47.299,16.38,47.299,16.756"/>
	<path fill-rule="evenodd" clip-rule="evenodd" fill="#231F20" d="M53.124,16.409c-0.038,0.35-0.058,0.703-0.058,1.054
		c0,0.794,0.049,1.396,0.147,1.803c0.007,0.032,0.01,0.061,0.01,0.08c0,0.098-0.044,0.174-0.134,0.237
		c-0.088,0.062-0.19,0.094-0.309,0.094c-0.195,0-0.339-0.108-0.431-0.323c-0.228,0.126-0.464,0.224-0.71,0.287
		c-0.244,0.065-0.5,0.096-0.766,0.096c-0.655,0-1.197-0.163-1.628-0.493c-0.442-0.336-0.663-0.77-0.663-1.298
		c0-0.638,0.222-1.148,0.67-1.532c0.448-0.386,1.029-0.579,1.744-0.579c0.368,0,0.65,0.044,0.85,0.13l0.446,0.248
		c0.044-1.007,0.097-1.685,0.155-2.032c0.042-0.213,0.186-0.318,0.432-0.318c0.289,0,0.433,0.115,0.433,0.348
		C53.313,14.541,53.25,15.273,53.124,16.409 M51.018,16.503c-0.532,0-0.93,0.116-1.195,0.354s-0.399,0.597-0.399,1.075
		c0,0.309,0.145,0.572,0.435,0.795c0.289,0.222,0.628,0.333,1.018,0.333c0.266,0,0.491-0.037,0.674-0.111
		c0.106-0.042,0.283-0.142,0.526-0.298c0.048-0.031,0.095-0.067,0.138-0.111l-0.014-0.619l0.004-0.415l0.01-0.424
		c-0.121-0.193-0.281-0.338-0.479-0.436C51.535,16.551,51.296,16.503,51.018,16.503"/>
	<path fill-rule="evenodd" clip-rule="evenodd" fill="#231F20" d="M58.152,16.925c-0.021,0.298-0.18,0.448-0.475,0.448
		c-0.271,0-0.407-0.12-0.407-0.354c0-0.047-0.005-0.131-0.015-0.251l-0.015-0.303c-0.5,0.045-0.899,0.153-1.2,0.32
		c-0.281,0.156-0.516,0.389-0.701,0.702l0.008,1.964c0,0.241-0.156,0.362-0.469,0.362c-0.277,0-0.418-0.121-0.418-0.362v-2.516
		c0-0.079,0.004-0.197,0.012-0.354c0.008-0.158,0.012-0.277,0.012-0.357c0-0.239,0.14-0.361,0.418-0.361
		c0.311,0,0.467,0.2,0.471,0.595c0.605-0.44,1.281-0.662,2.021-0.662c0.256,0,0.448,0.075,0.573,0.218
		c0.127,0.146,0.191,0.366,0.191,0.659C58.158,16.797,58.154,16.881,58.152,16.925"/>
	<path fill-rule="evenodd" clip-rule="evenodd" fill="#231F20" d="M61.346,19.736c-0.715,0-1.294-0.133-1.737-0.404
		c-0.483-0.299-0.726-0.715-0.726-1.254c0-0.621,0.199-1.141,0.598-1.562c0.434-0.46,1.014-0.688,1.736-0.688
		c0.526,0,0.954,0.066,1.286,0.201c0.409,0.165,0.612,0.418,0.612,0.76c0,0.237-0.179,0.454-0.536,0.65
		c-0.158,0.087-0.493,0.22-1.005,0.402l-1.813,0.647c0.178,0.198,0.397,0.349,0.662,0.449c0.265,0.1,0.571,0.151,0.923,0.151
		c0.218,0,0.474-0.031,0.768-0.095c0.375-0.078,0.615-0.182,0.722-0.311c0.107-0.126,0.222-0.192,0.347-0.192
		c0.111,0,0.211,0.033,0.297,0.097c0.087,0.062,0.13,0.136,0.13,0.222c0,0.266-0.283,0.493-0.85,0.684
		C62.275,19.657,61.805,19.736,61.346,19.736 M61.217,16.473c-0.385,0-0.706,0.113-0.963,0.339c-0.256,0.226-0.447,0.565-0.574,1.02
		l1.457-0.523c0.572-0.21,0.98-0.393,1.225-0.549C62.089,16.569,61.708,16.473,61.217,16.473"/>
	<path fill-rule="evenodd" clip-rule="evenodd" fill="#231F20" d="M68.092,19.828c-0.272,0-0.426-0.114-0.461-0.337l-0.133-0.785
		c-0.043-0.28-0.066-0.542-0.066-0.785c0-0.068,0.006-0.181,0.018-0.341c0.011-0.161,0.015-0.273,0.015-0.341
		c0-0.517-0.125-0.774-0.378-0.774c-0.354,0-0.693,0.158-1.016,0.478c-0.29,0.288-0.519,0.655-0.684,1.096
		c-0.006,0.094-0.021,0.211-0.043,0.352c-0.018,0.12-0.027,0.235-0.027,0.349c0,0.072,0.01,0.179,0.027,0.322
		c0.02,0.144,0.027,0.251,0.027,0.322c0,0.108-0.041,0.194-0.129,0.262c-0.086,0.066-0.199,0.1-0.335,0.1
		c-0.139,0-0.251-0.033-0.337-0.1c-0.084-0.067-0.128-0.153-0.128-0.262c0-0.071-0.011-0.179-0.03-0.322
		c-0.021-0.144-0.029-0.25-0.029-0.322c0-0.246,0.021-0.588,0.066-1.024c0.046-0.435,0.07-0.775,0.07-1.022
		c0-0.076-0.007-0.191-0.018-0.341s-0.016-0.262-0.016-0.339c0-0.104,0.045-0.189,0.135-0.253c0.089-0.066,0.203-0.099,0.334-0.099
		c0.292,0,0.45,0.155,0.479,0.464l0.015,0.42c0.531-0.534,1.076-0.802,1.637-0.802c0.506,0,0.857,0.169,1.057,0.506
		c0.137,0.225,0.211,0.556,0.223,0.995v0.36l-0.004,0.334c0,0.199,0.035,0.455,0.102,0.769c0.068,0.315,0.104,0.57,0.104,0.768
		c0,0.104-0.045,0.19-0.137,0.255C68.34,19.796,68.227,19.828,68.092,19.828"/>
</g>
</svg>
