<svg xmlns="http://www.w3.org/2000/svg" xmlns:xlink="http://www.w3.org/1999/xlink" width="13" height="23" viewBox="0 0 13 23"><defs><path id="62lga" d="M394.65 664.502h-10.408v-14.704h10.407zm-5.204 3.625a1.058 1.058 0 1 1 0-2.115 1.058 1.058 0 0 1 0 2.115zm-2.364-20.12h4.728c.12 0 .216.178.216.399 0 .22-.097.4-.216.4h-4.728c-.12 0-.216-.18-.216-.4 0-.22.096-.399.216-.399zm7.152-1.007h-9.578c-.916 0-1.656.743-1.656 1.658v19.449c0 .914.74 1.656 1.656 1.656h9.578c.915 0 1.656-.742 1.656-1.656v-19.449c0-.915-.741-1.658-1.656-1.658z"/></defs><g><g transform="translate(-383 -647)"><use fill="#373f51" xlink:href="#62lga"/></g></g></svg>