<?xml version="1.0" encoding="utf-8"?>
<!-- Generator: Adobe Illustrator 16.0.0, SVG Export Plug-In . SVG Version: 6.00 Build 0)  -->
<!DOCTYPE svg PUBLIC "-//W3C//DTD SVG 1.1//EN" "http://www.w3.org/Graphics/SVG/1.1/DTD/svg11.dtd">
<svg version="1.1" id="Layer_1" xmlns="http://www.w3.org/2000/svg" xmlns:xlink="http://www.w3.org/1999/xlink" x="0px" y="0px"
	 width="12px" height="10px" viewBox="0 0 12 10" enable-background="new 0 0 12 10" xml:space="preserve">
<path fill="#373F51" d="M6,8.231c0.853,0,1.5-0.67,1.5-1.547c0-0.879-0.647-1.549-1.5-1.549s-1.5,0.67-1.5,1.549
	C4.5,7.575,5.147,8.231,6,8.231z M0.852,9.778c-0.432-8.404,10.717-8.404,10.284,0c0,0.223,0,0.223-0.216,0.223H1.067
	C0.852,10,0.852,10,0.852,9.778z M12,2.487c-2.783-3.316-9.217-3.316-12,0l1.067,1.546l1.932-1.1
	C3.432,2.71,3.432,1.832,3.432,1.832C4.5,1.163,7.5,1.163,8.58,1.832c0,0,0,0.878,0.432,1.102l1.932,1.1L12,2.487z"/>
</svg>
