<?xml version="1.0" encoding="utf-8"?>
<!-- Generator: Adobe Illustrator 16.0.0, SVG Export Plug-In . SVG Version: 6.00 Build 0)  -->
<!DOCTYPE svg PUBLIC "-//W3C//DTD SVG 1.1//EN" "http://www.w3.org/Graphics/SVG/1.1/DTD/svg11.dtd">
<svg version="1.1" id="Layer_1" xmlns="http://www.w3.org/2000/svg" xmlns:xlink="http://www.w3.org/1999/xlink" x="0px" y="0px"
	 width="28px" height="36px" viewBox="0 0 28 36" enable-background="new 0 0 28 36" xml:space="preserve">
<g>
	<path fill="#f38d68" d="M14,0.5C6.569,0.5,0.5,6.434,0.5,13.747c0,2.908,0.976,5.641,2.695,7.92l10.203,13.547
		c0.226,0.311,0.75,0.377,1.048,0.156c0.082-0.079,0.082-0.079,0.156-0.156l10.203-13.547c1.719-2.279,2.695-5.012,2.695-7.92
		C27.5,6.434,21.431,0.5,14,0.5z M12.947,18.919c-2.847-0.6-4.72-3.348-4.123-6.24c0.606-2.896,3.299-4.793,6.15-4.183
		c2.102,0.458,3.746,2.058,4.12,4.183c0.527,2.893-1.349,5.719-4.12,6.24C14.296,19.072,13.624,19.072,12.947,18.919z"/>
</g>
</svg>
