<?xml version="1.0" encoding="utf-8"?>
<!-- Generator: Adobe Illustrator 16.0.0, SVG Export Plug-In . SVG Version: 6.00 Build 0)  -->
<!DOCTYPE svg PUBLIC "-//W3C//DTD SVG 1.1//EN" "http://www.w3.org/Graphics/SVG/1.1/DTD/svg11.dtd">
<svg version="1.1" id="Layer_1" xmlns="http://www.w3.org/2000/svg" xmlns:xlink="http://www.w3.org/1999/xlink" x="0px" y="0px"
	 width="35px" height="18px" viewBox="0 0 35 18" enable-background="new 0 0 35 18" xml:space="preserve">
<path fill="#373f51" d="M9,17c-4.411,0-8-3.589-8-8s3.589-8,8-8s8,3.589,8,8S13.411,17,9,17z M9,2C5.14,2,2,5.14,2,9
	c0,3.859,3.14,7,7,7s7-3.141,7-7C16,5.14,12.86,2,9,2z"/>
<path fill="#373f51" d="M26,17c-4.411,0-8-3.589-8-8s3.589-8,8-8s8,3.589,8,8S30.411,17,26,17z M26,2c-3.859,0-7,3.14-7,7
	c0,3.859,3.141,7,7,7s7-3.141,7-7C33,5.14,29.859,2,26,2z"/>
<circle fill="#F38D68" cx="26" cy="9" r="5"/>
</svg>
