<?xml version="1.0" encoding="utf-8"?>
<!-- Generator: Adobe Illustrator 16.0.0, SVG Export Plug-In . SVG Version: 6.00 Build 0)  -->
<!DOCTYPE svg PUBLIC "-//W3C//DTD SVG 1.1//EN" "http://www.w3.org/Graphics/SVG/1.1/DTD/svg11.dtd">
<svg version="1.1" id="Layer_1" xmlns="http://www.w3.org/2000/svg" xmlns:xlink="http://www.w3.org/1999/xlink" x="0px" y="0px"
	 width="26px" height="26px" viewBox="0 0 26 26" enable-background="new 0 0 26 26" xml:space="preserve">
<path fill="#2AA9E0" d="M13,0C5.822,0,0,5.82,0,13s5.822,13,13,13s13-5.82,13-13S20.178,0,13,0z M18.167,10.351
	c0.007,0.114,0.01,0.229,0.01,0.345c0,3.523-2.681,7.588-7.588,7.588c-1.509,0-2.906-0.44-4.089-1.199
	c0.211,0.023,0.421,0.036,0.637,0.036c1.252,0,2.397-0.424,3.312-1.141c-1.168-0.021-2.153-0.792-2.489-1.852
	c0.16,0.031,0.329,0.047,0.501,0.047c0.241,0,0.479-0.032,0.7-0.092c-1.219-0.247-2.138-1.324-2.138-2.615c0-0.011,0-0.022,0-0.035
	c0.358,0.202,0.771,0.319,1.209,0.334c-0.717-0.477-1.187-1.295-1.187-2.22c0-0.488,0.13-0.946,0.358-1.34
	c1.317,1.613,3.282,2.675,5.5,2.785c-0.045-0.195-0.069-0.398-0.069-0.607c0-1.473,1.196-2.666,2.669-2.666
	c0.763,0,1.458,0.324,1.945,0.842c0.606-0.12,1.176-0.341,1.692-0.647c-0.199,0.624-0.619,1.146-1.174,1.476
	c0.541-0.064,1.057-0.208,1.533-0.42C19.143,9.503,18.691,9.973,18.167,10.351z"/>
</svg>
