<?xml version="1.0" encoding="utf-8"?>
<!-- Generator: Adobe Illustrator 16.0.0, SVG Export Plug-In . SVG Version: 6.00 Build 0)  -->
<!DOCTYPE svg PUBLIC "-//W3C//DTD SVG 1.1//EN" "http://www.w3.org/Graphics/SVG/1.1/DTD/svg11.dtd">
<svg version="1.1" id="Layer_1" xmlns="http://www.w3.org/2000/svg" xmlns:xlink="http://www.w3.org/1999/xlink" x="0px" y="0px"
	 width="12px" height="12px" viewBox="0 0 12 12" enable-background="new 0 0 12 12" xml:space="preserve">
<g id="globe-2">
	<polygon id="XMLID_20_" fill="#373F51" points="4.965,2.228 4.965,2.239 4.973,2.231 	"/>
	<path id="XMLID_168_" fill="#373F51" d="M6,0C2.692,0,0,2.692,0,6s2.692,6,6,6c3.309,0,6-2.691,6-6S9.309,0,6,0z M11.482,6
		c0,0.104-0.01,0.207-0.016,0.311c-0.038-0.098-0.098-0.225-0.111-0.278c-0.021-0.083-0.145-0.372-0.145-0.372
		s-0.123-0.166-0.206-0.207s-0.145-0.145-0.289-0.227c-0.145-0.084-0.207-0.125-0.331-0.125s-0.248-0.166-0.393-0.248
		S9.827,4.813,9.827,4.813s0.165,0.248,0.165,0.311c0,0.061,0.187,0.164,0.372,0.123c0,0,0.124,0.228,0.187,0.289
		c0.062,0.062-0.021,0.125-0.145,0.207c-0.125,0.082-0.104,0.062-0.166,0.124c-0.062,0.062-0.269,0.166-0.33,0.206
		C9.848,6.115,9.6,6.239,9.476,6.115c-0.06-0.06-0.041-0.187-0.082-0.269C9.353,5.763,8.918,5.124,8.712,4.834
		C8.676,4.783,8.588,4.627,8.525,4.586C8.464,4.544,8.67,4.544,8.67,4.544s0-0.145-0.021-0.248C8.629,4.193,8.67,4.049,8.67,4.049
		S8.464,4.173,8.401,4.214C8.34,4.255,8.278,4.131,8.195,4.028S8.03,3.801,8.009,3.697C7.988,3.594,8.112,3.553,8.112,3.553
		L8.299,3.45c0,0,0.227-0.042,0.371-0.021C8.814,3.45,9.042,3.47,9.042,3.47s0.062-0.145-0.021-0.207
		C8.938,3.202,8.752,3.098,8.67,3.119C8.587,3.14,8.711,3.016,8.814,2.933L8.585,2.892c0,0-0.208,0.104-0.271,0.125
		c-0.062,0.02-0.169,0.062-0.252,0.165C7.98,3.284,8.096,3.429,8.013,3.47c-0.082,0.042-0.138,0.062-0.2,0.083
		c-0.062,0.021-0.258,0-0.258,0c-0.214,0-0.077,0.194-0.021,0.264L7.368,3.615L7.246,3.326c0,0-0.177-0.124-0.26-0.165
		C6.904,3.119,6.65,2.975,6.65,2.975l0.017,0.186l0.24,0.242l0.021,0.005l0.124,0.166L6.777,3.594V3.431
		c-0.259-0.063-0.191-0.127-0.22-0.147C6.495,3.243,6.352,3.14,6.352,3.14S6.108,3.181,6.047,3.202
		C5.984,3.222,5.968,3.284,5.844,3.326C5.72,3.367,5.663,3.429,5.622,3.491C5.58,3.553,5.446,3.739,5.363,3.821
		C5.281,3.904,5.128,3.883,5.065,3.883c-0.062,0-0.36-0.083-0.36-0.083V3.45c0,0,0.041-0.197,0.021-0.258l0.181-0.031l0.302-0.062
		l0.089-0.062l0.127-0.165c0,0-0.143-0.104-0.04-0.249c0.05-0.069,0.229-0.083,0.311-0.145c0.083-0.062,0.207-0.104,0.207-0.104
		s0.146-0.124,0.29-0.268c0,0,0.104-0.062,0.227-0.104c0,0,0.352,0.31,0.414,0.31c0.062,0,0.289-0.144,0.289-0.144
		s0.062-0.186,0.041-0.248S7.038,1.652,7.038,1.652S6.977,1.756,6.914,1.838C6.853,1.921,6.812,2.024,6.812,2.024
		s-0.29-0.02-0.311-0.082C6.48,1.88,6.439,1.779,6.418,1.717c-0.02-0.062-0.186-0.06-0.309-0.019
		c-0.125,0.042,0.02-0.223,0.02-0.223s0.125-0.156,0.207-0.156s0.269-0.106,0.352-0.126c0.082-0.021,0.33-0.115,0.434-0.115
		c0.103,0,0.228,0.044,0.289,0.044c0.062,0,0.31,0,0.31,0l0.434-0.035c0,0,0.372,0.138,0.248,0.22c0,0,0.146,0.09,0.207,0.151
		c0.059,0.059,0.208-0.054,0.294-0.102C10.449,2.328,11.482,4.044,11.482,6z M1.626,2.768c0,0.083-0.112,0.103,0,0.31
		C1.771,3.346,1.646,3.47,1.646,3.47S1.295,3.718,1.233,3.759C1.171,3.801,1.006,4.028,1.109,3.966
		c0.104-0.062,0.228-0.124,0.124,0.042C1.13,4.173,0.944,4.441,0.902,4.544C0.861,4.647,0.655,4.895,0.655,5.02
		c0,0.123-0.083,0.371-0.062,0.475C0.607,5.567,0.562,5.78,0.525,5.866c0.028-1.161,0.419-2.231,1.063-3.106
		C1.611,2.762,1.626,2.768,1.626,2.768z M2.29,1.976C2.796,1.51,3.387,1.138,4.04,0.887C3.976,0.969,3.898,1.054,3.898,1.054
		s-0.145,0-0.413,0.289C3.217,1.632,3.278,1.549,3.217,1.632C3.154,1.714,3.175,1.735,3.03,1.838
		C2.886,1.941,2.824,2.065,2.824,2.065L2.597,2.148L2.411,2.065c0,0-0.166,0.062-0.146-0.021C2.271,2.023,2.28,2,2.29,1.976z
		 M4.766,2.458L4.684,2.334l0.082-0.186l0.199,0.08V1.859l0.189-0.103l0.159,0.227l0.242,0.269L5.395,2.375l-0.43,0.083V2.239
		L4.766,2.458z M7.451,4.4C7.5,4.361,7.658,4.462,7.658,4.462s0.517,0.104,0.599,0.165C8.34,4.689,8.484,4.73,8.525,4.792
		c0.041,0.062,0.187,0.248,0.207,0.31c0.021,0.062,0.124,0.289,0.145,0.372S8.96,5.763,9.021,5.867s0.413,0.558,0.537,0.765
		l0.372-0.062c0,0-0.041,0.186-0.083,0.248C9.807,6.879,9.683,7.043,9.62,7.127C9.559,7.209,9.476,7.333,9.353,7.436
		C9.229,7.54,9.228,7.643,9.166,7.726S9.021,7.995,9.021,7.995s0.041,0.413,0.062,0.496c0.021,0.082-0.145,0.309-0.145,0.309
		L8.752,8.987l-0.248,0.33l0.02,0.31c0,0-0.188,0.145-0.292,0.228c-0.103,0.082-0.086,0.145-0.169,0.228
		c-0.082,0.082-0.405,0.227-0.488,0.247c-0.082,0.021-0.538,0.083-0.538,0.083v-0.186l-0.009-0.207c0,0-0.063-0.248-0.126-0.331
		C6.84,9.606,6.867,9.482,6.764,9.378C6.66,9.276,6.622,9.193,6.602,9.13C6.581,9.069,6.623,8.883,6.623,8.883
		s0.084-0.229,0.125-0.311s0.001-0.206-0.041-0.289C6.666,8.202,6.646,7.995,6.646,7.932c0-0.062-0.165-0.165-0.228-0.227
		C6.356,7.643,6.377,7.561,6.377,7.479c0-0.084-0.062-0.27-0.041-0.414s-0.186-0.041-0.311,0C5.902,7.106,5.819,7.024,5.819,6.899
		c0-0.123-0.228-0.02-0.371,0.062C5.303,7.043,5.138,7.043,4.973,7.106S4.725,7.043,4.725,7.043S4.58,6.92,4.477,6.858
		C4.373,6.796,4.27,6.672,4.188,6.569c-0.083-0.104-0.289-0.413-0.31-0.536c-0.021-0.124,0-0.208,0-0.353s0-0.227,0.021-0.33
		S3.98,5.124,4.043,5.02c0.062-0.104,0.289-0.228,0.351-0.269C4.456,4.71,4.601,4.586,4.601,4.503c0-0.083,0.082-0.124,0.124-0.207
		C4.766,4.214,4.91,4.008,5.096,4.09c0,0,0.165-0.021,0.228-0.041C5.385,4.028,5.55,3.967,5.632,3.926
		C5.715,3.884,5.92,3.865,5.92,3.865S6.083,3.93,6.145,3.93c0.062,0,0.264-0.036,0.264-0.036s0.093,0.299,0.093,0.361
		c0,0.062,0.062,0.124,0.165,0.165C6.77,4.462,7.245,4.565,7.451,4.4z M9.827,8.45c0,0.062-0.021,0.227-0.041,0.309
		C9.765,8.841,9.724,8.987,9.703,9.069S9.579,9.317,9.518,9.358C9.455,9.399,9.353,9.524,9.29,9.543
		C9.229,9.565,9.187,9.399,9.207,9.317c0.021-0.083,0.124-0.311,0.124-0.311s0.021-0.123,0.042-0.207
		c0.021-0.082,0.269-0.186,0.269-0.186l0.165-0.31C9.807,8.304,9.827,8.387,9.827,8.45z M0.66,7.218
		c0.026,0.007,0.064,0.026,0.118,0.073C0.856,7.36,0.902,7.395,1.006,7.436C1.109,7.479,1.15,7.54,1.274,7.602
		s0.083,0.021,0.248,0.207s0.145,0.186,0.186,0.289C1.75,8.202,1.812,8.304,1.853,8.367C1.895,8.428,2.019,8.469,2.08,8.511
		c0.062,0.041,0.165,0.083,0.228,0.083c0.062,0,0.248,0.186,0.351,0.205c0.104,0.021,0.104,0.229,0.104,0.229L2.658,9.317
		l-0.083,0.31l0.083,0.248c0,0-0.124,0.104-0.206,0.104c-0.076,0-0.103,0.048-0.185,0.025C1.479,9.268,0.907,8.305,0.66,7.218z"/>
</g>
</svg>
